<svg width="401" height="247" viewBox="0 0 401 247" fill="none" xmlns="http://www.w3.org/2000/svg">
<g clip-path="url(#clip0_7469_1038)">
<path fill-rule="evenodd" clip-rule="evenodd" d="M193.079 217.669C171.861 218.342 151.571 215.88 133.083 210.874C147.445 213.515 162.648 214.702 178.349 214.204C262.979 211.52 330.063 160.974 328.155 101.33C327.142 69.6855 306.909 41.8279 275.498 23.0469C313.651 41.1456 339.053 71.5952 340.181 106.833C342.056 165.4 276.182 215.033 193.079 217.669Z" fill="#EB5757"/>
<path fill-rule="evenodd" clip-rule="evenodd" d="M172.839 51.5615C240.411 51.5615 295.21 88.0342 295.21 133.009C295.21 177.983 239.976 214.456 172.404 214.456C104.832 214.456 50.4688 177.983 50.4688 133.009C50.4688 88.0342 105.267 51.5615 172.839 51.5615Z" fill="#2CC379"/>
<path fill-rule="evenodd" clip-rule="evenodd" d="M210.963 194.616C209 195.412 206.991 196.159 204.939 196.852C202.257 200.756 198.25 203.809 193.965 206.2L192.835 206.83L191.802 206.053C189.919 204.636 188.135 203.101 186.494 201.439C182.835 202.046 179.091 202.497 175.277 202.783L174.987 204.312L173.025 204.193C169.791 203.998 166.544 203.656 163.329 203.131C113.861 202.322 74.0964 173.799 74.0964 138.742C74.0964 109.788 101.222 85.2916 138.536 77.1838C106.809 86.8194 84.5885 109.055 84.5885 134.946C84.5885 160.032 105.451 181.688 135.611 191.774L133.208 189.909L166.871 170.833C166.085 168.915 165.58 166.91 165.348 164.851C162.306 164.073 159.513 162.628 157.202 160.494C153.663 157.224 151.782 152.817 151.414 148.062L151.41 148.006L151.411 147.95C151.448 146.369 152.155 144.969 153.568 144.187C154.479 143.683 155.556 143.516 156.584 143.656C156.51 143.351 156.446 143.045 156.394 142.736C156.225 141.744 156.166 140.739 156.114 139.736C156.063 138.721 156.012 137.707 155.937 136.693C148.515 134.425 144.159 128.077 141.176 121.321L140.57 119.949L142.063 119.757C144.989 119.379 147.944 119.306 150.89 119.228C153.742 119.153 156.624 119.082 159.457 118.726C162.074 118.397 164.668 117.812 167.058 116.673L166.632 114.8L157.761 89.7786L157.751 89.6234C157.717 89.084 157.693 88.544 157.682 88.0037C157.611 84.6323 158.013 81.1639 159.326 78.0316C160.234 75.8665 161.541 73.957 163.278 72.3663L163.4 72.2546L163.549 72.1826C187.418 60.6622 212.576 60.0992 238.025 66.2591L238.116 66.2813L238.202 66.3181C244.843 69.1516 248.407 74.4201 249.438 81.4435L249.459 81.5848L246.53 108.5C246.886 108.515 247.242 108.526 247.599 108.533C251.113 108.609 254.492 108.322 257.87 107.305C260.909 106.39 263.776 104.973 266.583 103.515L268.018 102.77L268.223 104.368C269.089 111.142 268.123 117.925 263.112 122.95L268.84 133.214L268.593 133.735C265.84 139.549 261.172 143.415 255.225 145.75C253.991 154.37 248.134 159.305 240.174 161.994C239.777 162.993 239.341 163.976 238.866 164.94L262.289 177.343L260.456 179.36C257.674 182.422 254.409 185.077 250.974 187.379C247.914 189.429 244.673 191.23 241.347 192.816C232.094 197.226 222.006 200.056 211.888 201.641L208.43 202.182L210.963 194.616ZM176.226 197.791C178.527 197.747 180.807 197.642 183.062 197.478C181.506 195.413 180.169 193.181 179.113 190.768L178.929 190.349L178.95 189.892C179.031 188.089 179.213 186.29 179.489 184.506L179.407 184.455C179.227 184.343 179.049 184.227 178.873 184.109L178.727 184.628L176.226 197.791ZM206.864 193.35C208.572 192.868 210.253 192.351 211.907 191.799L213.854 185.983C212.229 186.53 210.578 187.001 208.91 187.4L208.247 187.558C208.098 189.645 207.613 191.571 206.864 193.35Z" fill="white"/>
<path fill-rule="evenodd" clip-rule="evenodd" d="M281.901 91.7034L274.286 83.0196C273.914 82.5952 273.613 82.0648 273.386 81.4276C273.158 80.7897 273.057 80.1075 273.084 79.3817C273.108 78.6559 273.296 77.8995 273.645 77.1132C273.993 76.3269 274.555 75.5956 275.332 74.9201L293.831 58.842L293.339 58.2808C292.311 57.1078 291.815 55.801 291.854 54.3596C291.894 52.9183 292.678 51.5331 294.207 50.2043C295.736 48.876 297.239 48.2722 298.716 48.3956C300.193 48.519 301.458 49.1786 302.509 50.3771L318.2 68.2684C319.251 69.4669 319.737 70.8028 319.66 72.2766C319.584 73.7503 318.78 75.151 317.251 76.48C315.722 77.809 314.238 78.3958 312.798 78.2406C311.358 78.0846 310.124 77.4203 309.096 76.2473L308.603 75.6853L290.104 91.7634C289.327 92.4389 288.524 92.8956 287.695 93.1333C286.865 93.3711 286.086 93.4535 285.36 93.3803C284.634 93.3086 283.969 93.1166 283.365 92.8058C282.762 92.4949 282.274 92.1277 281.901 91.7034Z" fill="#EB5757"/>
<path fill-rule="evenodd" clip-rule="evenodd" d="M227.931 47.9702L242.333 21.0961C243.273 19.3425 244.418 18.2432 245.771 17.7974C247.122 17.3509 248.547 17.5256 250.043 18.3203L259.204 23.1849C260.701 23.9803 261.654 25.0692 262.064 26.4507C262.475 27.8323 262.21 29.4 261.27 31.1529L258.709 35.9317L265.739 31.048C267.194 30.0933 268.435 29.5888 269.463 29.5351C270.492 29.4799 271.402 29.6635 272.194 30.0841L280.738 34.6219C282.294 35.4482 283.277 36.5521 283.687 37.9338C284.097 39.3153 283.832 40.883 282.892 42.6366L268.491 69.5106C267.504 71.3519 266.328 72.473 264.963 72.874C263.598 73.2756 262.137 73.0631 260.581 72.2368L251.421 67.372C249.983 66.6083 249.058 65.5347 248.648 64.1537C248.239 62.7722 248.511 61.1904 249.467 59.4071L252.028 54.6282L244.683 59.5699C243.439 60.4864 242.298 60.9778 241.261 61.0471C240.225 61.1164 239.281 60.9252 238.43 60.4728L229.886 55.9357C228.389 55.1405 227.442 54.0744 227.046 52.7376C226.65 51.4009 226.945 49.8114 227.931 47.9702Z" fill="#EB5757"/>
<path fill-rule="evenodd" clip-rule="evenodd" d="M205.518 48.4532C203.858 48.1061 202.567 47.455 201.647 46.5008C200.726 45.5458 200.139 44.0604 199.885 42.0439L198.883 34.4722L193.985 41.7231C193.006 43.1424 191.964 44.0497 190.86 44.4451C189.756 44.8398 188.455 44.881 186.958 44.5674C185.329 44.2268 184.033 43.5239 183.068 42.458C182.103 41.3928 181.815 39.9369 182.205 38.0889C182.349 37.4077 182.545 36.7636 182.793 36.1548C183.04 35.5472 183.386 34.9177 183.829 34.2653L200.698 8.49938C201.294 7.60872 201.842 6.91026 202.339 6.40539C202.837 5.90063 203.338 5.54077 203.843 5.32382C204.347 5.10826 204.895 5.01098 205.485 5.03343C206.075 5.05509 206.745 5.14451 207.495 5.30159L214.186 6.70248C214.935 6.85966 215.55 7.04688 216.031 7.26623C216.511 7.48568 216.911 7.80623 217.23 8.22876C217.549 8.65049 217.799 9.19406 217.982 9.8581C218.165 10.5229 218.32 11.3599 218.447 12.3678L222.082 40.5475C222.277 41.8753 222.365 42.9929 222.343 43.902C222.32 44.8119 222.241 45.5907 222.104 46.2393C221.919 47.114 221.567 47.8528 221.049 48.4554C220.531 49.0573 219.923 49.5224 219.224 49.85C218.526 50.1783 217.761 50.3817 216.928 50.4614C216.094 50.5411 215.287 50.4984 214.506 50.3355L205.518 48.4532Z" fill="#EB5757"/>
<path fill-rule="evenodd" clip-rule="evenodd" d="M160.782 28.4165L160.755 15.6967C160.754 15.0009 160.561 14.3969 160.177 13.8848C159.794 13.3719 159.252 13.1162 158.553 13.1176C157.854 13.1186 157.314 13.377 156.933 13.8919C156.551 14.4052 156.362 15.0109 156.363 15.7058L156.39 28.4264C156.391 29.1222 156.585 29.7261 156.968 30.239C157.352 30.7512 157.892 31.0069 158.591 31.0055C159.291 31.0045 159.831 30.7461 160.212 30.2319C160.594 29.7179 160.784 29.1123 160.782 28.4165ZM158.62 44.123C155.26 44.13 152.213 43.5986 149.483 42.5281C146.752 41.457 144.419 39.9464 142.485 37.9959C140.551 36.046 139.057 33.7224 138.003 31.0242C136.949 28.3275 136.419 25.3556 136.411 22.1087C136.405 19.1938 136.923 16.4101 137.966 13.7582C139.008 11.1058 140.492 8.75863 142.418 6.71753C144.343 4.67643 146.669 3.04761 149.394 1.83311C152.12 0.617911 155.164 0.00714593 158.524 6.05168e-05C161.886 -0.0069251 164.932 0.590865 167.663 1.79419C170.394 2.99731 172.727 4.61536 174.661 6.64827C176.596 8.68109 178.09 11.0221 179.143 13.6698C180.197 16.3175 180.728 19.0988 180.734 22.0143C180.74 24.9293 180.222 27.713 179.179 30.3655C178.137 33.0172 176.653 35.3645 174.727 37.4055C172.802 39.4466 170.476 41.0755 167.75 42.2906C165.024 43.5051 161.981 44.116 158.62 44.123Z" fill="#EB5757"/>
<path fill-rule="evenodd" clip-rule="evenodd" d="M117.014 28.1338L118.467 36.3561C119.277 35.9779 119.873 35.4286 120.253 34.7065C120.631 33.9842 120.712 33.0028 120.493 31.7633C120.274 30.5231 119.862 29.6287 119.259 29.0782C118.655 28.5283 117.907 28.2139 117.014 28.1338ZM97.7461 45.5825L92.4565 15.6325C91.748 11.6195 93.6057 9.22629 98.0297 8.45148L119.414 4.709C121.119 4.41032 122.579 4.64283 123.795 5.40496C125.011 6.16719 125.787 7.51114 126.128 9.43627C126.468 11.3613 126.181 12.8494 125.269 13.8998C124.356 14.9516 123.065 15.6228 121.393 15.9156L115.052 17.0255L115.243 18.1021C117.34 17.7348 119.327 17.7486 121.205 18.143C123.082 18.5373 124.762 19.253 126.246 20.2877C127.729 21.3224 128.976 22.6438 129.986 24.2496C130.996 25.8554 131.682 27.6856 132.046 29.7418C132.512 32.3835 132.452 34.7655 131.863 36.887C131.275 39.0076 130.292 40.8528 128.914 42.4224C127.535 43.9927 125.811 45.2776 123.741 46.2799C121.671 47.2808 119.407 47.9967 116.949 48.4269L105.445 50.4407C103.315 50.8133 101.591 50.6107 100.271 49.8322C98.9514 49.0544 98.1092 47.6379 97.7461 45.5825Z" fill="#EB5757"/>
<path fill-rule="evenodd" clip-rule="evenodd" d="M52.854 26.3693C52.4383 26.5796 52.0081 26.7785 51.5625 26.9669C51.1182 27.1545 50.6791 27.3017 50.2488 27.4076C51.0533 27.5215 51.8368 27.8682 52.5994 28.4483C53.3615 29.0292 54.0218 29.8649 54.5798 30.9579L57.044 35.787L57.1003 27.2306C57.1246 26.3267 57.2163 25.5559 57.3763 24.9182C57.5347 24.2798 57.7767 23.6935 58.1014 23.1577L58.0112 23.0914C56.9464 24.0757 55.8061 24.8766 54.5889 25.4917L52.854 26.3693ZM49.0826 67.9035L35.2226 40.7486C34.3185 38.9772 34.0782 37.4085 34.501 36.0427C34.923 34.6769 35.9058 33.6037 37.4487 32.823L46.9271 28.0294L46.8815 27.9407C45.7364 27.9629 44.6372 27.7289 43.5846 27.24C42.5326 26.7498 41.7198 25.9446 41.1468 24.8223C40.5289 23.6112 40.3983 22.4046 40.7555 21.203C41.112 19.9998 41.8839 19.0989 43.0702 18.4987C43.9308 18.0633 44.8444 17.8059 45.8108 17.7253C46.7774 17.6454 47.5579 17.4552 48.151 17.1555L49.8867 16.2778C50.4209 16.0071 51.0122 15.5032 51.6626 14.7652C52.3124 14.0279 53.0677 13.4419 53.9283 13.0072C55.1441 12.3921 56.3452 12.2954 57.5316 12.7177C58.7166 13.1395 59.6187 13.9555 60.2366 15.1665C60.8396 16.3483 61.0036 17.5097 60.7281 18.6522C60.4524 19.7948 59.9312 20.8577 59.1636 21.84L59.2093 21.9288C59.5352 21.6897 59.8164 21.5097 60.0537 21.3897L68.7758 16.9786C70.3179 16.198 71.7905 16.0297 73.1926 16.4724C74.5938 16.9152 75.7472 18.023 76.6512 19.7945L90.5106 46.9494C91.4603 48.8096 91.694 50.4195 91.2117 51.7783C90.7294 53.1364 89.7169 54.2065 88.1746 54.9865L78.8292 59.713C77.3467 60.4631 75.9115 60.6126 74.5245 60.1625C73.1376 59.7123 71.9846 58.5871 71.0649 56.7849L68.5999 51.9565L68.4568 60.7792C68.4972 62.32 68.2402 63.5366 67.6879 64.4289C67.1356 65.3213 66.4288 65.9852 65.5689 66.4206L56.8475 70.8316C55.3047 71.6123 53.8619 71.7843 52.5201 71.3486C51.1777 70.9128 50.0316 69.7645 49.0826 67.9035Z" fill="#EB5757"/>
<path fill-rule="evenodd" clip-rule="evenodd" d="M19.1174 84.3407L20.7456 88.3741L23.1125 86.0933L19.1174 84.3407ZM2.41025 63.5814L7.46784 58.71C8.04144 58.1569 8.56562 57.7322 9.04179 57.435C9.51725 57.1385 10.0321 56.9653 10.5856 56.9157C11.1397 56.8659 11.7503 56.9463 12.4174 57.1566C13.0845 57.3663 13.8857 57.6906 14.8197 58.127L40.665 70.5665C41.8789 71.1488 43.0158 71.8052 44.0747 72.5378C45.1329 73.2696 45.893 73.8727 46.3561 74.3495C47.2355 75.2543 47.6955 76.2864 47.7351 77.4467C47.7746 78.6069 47.1724 79.7857 45.9289 80.9837L38.2539 88.3782C37.0105 89.5761 35.8582 90.2484 34.7967 90.395C33.7346 90.5416 32.5031 90.2994 31.1021 89.6671L24.1077 96.405C24.7653 97.9386 24.9663 99.2769 24.7127 100.421C24.4584 101.565 23.6375 102.804 22.2505 104.141C21.079 105.27 19.8319 105.976 18.5094 106.259C17.1876 106.541 15.9247 106.064 14.7213 104.826C14.3505 104.445 13.8733 103.776 13.2891 102.817C12.7057 101.859 12.1536 100.685 11.6352 99.2941L0.798601 71.4268C0.415462 70.413 0.170764 69.5421 0.0653059 68.8142C-0.0401523 68.0863 -0.0179976 67.4313 0.132571 66.848C0.28314 66.2646 0.551601 65.7184 0.936343 65.2099C1.32119 64.7006 1.81229 64.1578 2.41025 63.5814Z" fill="#EB5757"/>
<path fill-rule="evenodd" clip-rule="evenodd" d="M370.555 158.058C371.705 156.879 372.899 155.685 374.131 154.486C377.63 157.192 381.198 159.923 384.804 162.651C383.118 158.01 381.463 153.389 379.877 148.793C381.006 147.552 382.212 146.312 383.456 145.08C389.149 149.395 395.063 153.731 401 158.11C399.688 159.297 398.481 160.526 397.284 161.723C393.471 158.897 389.796 156.135 386.051 153.337C387.792 158.068 389.564 162.818 391.368 167.588C390.13 168.798 388.897 169.986 387.665 171.174C381.859 166.768 376.196 162.392 370.555 158.058Z" fill="#2CC379"/>
<path fill-rule="evenodd" clip-rule="evenodd" d="M373.564 179.346C374.923 178.325 376.258 177.299 377.606 176.276C378.891 175.3 379.565 174.511 379.482 173.861C379.477 173.211 379.221 172.64 378.717 172.135C377.956 171.395 377.16 171.147 376.298 171.352C375.364 171.535 374.169 172.251 372.605 173.41C371.599 174.155 370.65 174.827 369.785 175.553C370.972 176.799 372.265 178.083 373.564 179.346ZM356.917 170.293C358.327 169.212 359.737 168.129 361.191 167.031C363.209 169.06 365.301 171.1 367.355 173.135C368.805 172.059 370.221 170.938 371.642 169.837C373.335 168.526 374.785 167.669 375.936 167.198C377.098 166.722 378.322 166.608 379.695 166.885C381.068 167.161 382.248 167.793 383.256 168.778C384.717 170.205 385.295 171.705 384.932 173.273C384.535 174.823 383.308 176.434 381.102 178.092C377.964 180.432 374.863 182.788 371.766 185.13C366.76 180.119 361.804 175.199 356.917 170.293Z" fill="#2CC379"/>
<path fill-rule="evenodd" clip-rule="evenodd" d="M336.071 184.803C337.874 183.548 339.714 182.307 341.557 181.054C346.189 183.724 350.816 186.407 355.438 189.114C353.683 184.499 351.923 179.909 350.159 175.332C352.006 174.066 353.89 172.826 355.74 171.548C360.384 176.73 365.096 181.956 369.836 187.224C368.468 188.108 367.143 188.972 365.856 189.839C362.706 186.358 359.665 182.912 356.584 179.464C358.215 183.836 359.917 188.25 361.619 192.643C360.256 193.503 358.971 194.369 357.607 195.24C353.169 192.649 348.802 190.089 344.509 187.547C347.476 190.974 350.517 194.421 353.552 197.891C352.266 198.768 350.944 199.63 349.701 200.487C345.118 195.209 340.524 189.97 336.071 184.803Z" fill="#2CC379"/>
<path fill-rule="evenodd" clip-rule="evenodd" d="M335.436 194.796C334.417 193.66 333.363 192.955 332.267 192.746C331.101 192.524 330.157 192.709 329.223 193.27C328.285 193.875 327.737 194.695 327.656 195.71C327.537 196.723 328.008 197.782 328.883 198.878C331.067 197.514 333.213 196.17 335.436 194.796ZM338.5 199.034C340.073 198.354 341.797 197.668 343.447 196.969C344.111 198.812 344.194 200.499 343.586 202.048C342.98 203.565 341.797 204.892 339.926 206.047C337.043 207.825 334.23 208.289 331.417 207.39C329.219 206.66 327.186 205.251 325.469 203.125C323.448 200.623 322.568 198.188 322.826 195.886C323.083 193.585 324.305 191.741 326.453 190.375C328.912 188.843 331.434 188.376 334.092 188.965C336.715 189.553 339.27 191.401 341.758 194.521C338.087 196.825 334.419 199.118 330.792 201.388C331.844 202.57 332.969 203.301 334.134 203.546C335.373 203.784 336.486 203.599 337.512 202.971C338.2 202.55 338.626 202.019 338.827 201.384C338.955 200.725 338.906 199.948 338.5 199.034Z" fill="#2CC379"/>
<path fill-rule="evenodd" clip-rule="evenodd" d="M322.217 199.778C320.805 200.762 319.433 201.737 318.096 202.712C317.417 201.944 316.677 201.459 315.876 201.298C315.038 201.129 314.185 201.259 313.367 201.652C312.185 202.219 311.485 202.992 311.292 204.034C311.06 205.108 311.478 206.49 312.553 208.24C313.741 210.172 314.933 211.375 316.116 211.843C317.298 212.333 318.558 212.296 319.676 211.732C320.558 211.325 321.142 210.747 321.402 210.021C321.666 209.285 321.612 208.315 321.119 207.068C322.748 206.591 324.413 206.126 326.119 205.63C326.868 207.817 326.863 209.731 326.141 211.351C325.454 213.006 323.905 214.337 321.641 215.384C319.068 216.585 316.54 216.77 314.091 215.962C311.604 215.154 309.583 213.398 307.992 210.753C306.375 208.065 305.838 205.64 306.453 203.444C307.068 201.248 308.616 199.57 311.222 198.318C313.272 197.334 315.295 196.919 317.052 197.187C318.847 197.434 320.593 198.31 322.217 199.778Z" fill="#2CC379"/>
<path fill-rule="evenodd" clip-rule="evenodd" d="M224.162 223.186C227.63 222.669 231.104 222.105 234.575 221.577C236.759 221.245 238.467 221.374 239.695 221.984C240.923 222.595 241.672 223.677 241.905 225.229C242.056 226.194 241.903 227.136 241.422 227.95C240.94 228.763 240.291 229.387 239.445 229.739C240.73 229.862 241.787 230.295 242.577 231.037C243.367 231.779 243.799 232.631 243.984 233.621C244.195 235.024 243.895 236.234 242.969 237.246C242.042 238.269 240.51 238.934 238.45 239.222C234.564 239.763 230.754 240.307 226.946 240.838C226.009 234.945 225.068 229.064 224.162 223.186ZM230.145 229.781C231.158 229.629 232.172 229.467 233.223 229.317C234.703 229.094 235.822 228.748 236.444 228.3C237.078 227.843 237.271 227.18 237.172 226.389C237.076 225.631 236.63 225.168 235.892 224.943C235.23 224.721 234.119 224.731 232.523 224.961C231.506 225.136 230.418 225.272 229.442 225.437C229.651 226.884 229.898 228.332 230.145 229.781ZM231.287 237.145C232.567 236.983 233.777 236.791 235.136 236.602C236.537 236.407 237.528 236.099 238.114 235.679C238.699 235.27 238.893 234.615 238.762 233.799C238.601 232.924 238.167 232.377 237.357 232.141C236.616 231.924 235.161 231.956 233.021 232.265C232.201 232.401 231.384 232.515 230.568 232.629C230.808 234.134 231.046 235.651 231.287 237.145Z" fill="#2CC379"/>
<path fill-rule="evenodd" clip-rule="evenodd" d="M260.459 222.153C258.934 222.75 257.445 223.358 255.959 223.933C255.567 223.067 255.068 222.46 254.324 222.1C253.682 221.788 252.835 221.68 251.991 221.869C250.803 222.11 249.915 222.709 249.404 223.626C248.853 224.564 248.853 225.949 249.288 227.81C249.812 229.877 250.524 231.258 251.454 231.98C252.352 232.676 253.483 232.926 254.67 232.675C255.586 232.502 256.264 232.105 256.705 231.498C257.148 230.869 257.363 229.928 257.313 228.673C258.966 228.609 260.581 228.554 262.27 228.513C262.255 230.693 261.724 232.46 260.566 233.809C259.446 235.159 257.741 236.047 255.335 236.515C252.7 237.027 250.39 236.616 248.475 235.317C246.448 234.012 245.171 231.948 244.507 229.116C243.839 226.265 244.062 223.872 245.239 221.978C246.42 220.051 248.313 218.839 251.031 218.287C253.254 217.836 255.079 217.918 256.619 218.574C258.123 219.206 259.453 220.401 260.459 222.153Z" fill="#2CC379"/>
<path fill-rule="evenodd" clip-rule="evenodd" d="M275.296 225.361C276.909 225.217 278.635 225.066 280.323 224.925C280.334 226.774 279.773 228.298 278.752 229.513C277.728 230.751 276.18 231.604 274.201 232.104C271.057 232.9 268.364 232.469 266.173 230.852C264.478 229.591 263.171 227.754 262.363 225.366C261.392 222.5 261.404 220.067 262.407 218.064C263.373 216.058 265.112 214.715 267.433 214.111C270.133 213.409 272.539 213.696 274.683 214.975C276.826 216.276 278.512 218.704 279.666 222.237C275.637 223.261 271.61 224.283 267.621 225.318C268.156 226.664 268.906 227.62 269.872 228.172C270.871 228.759 271.907 228.899 273.042 228.627C273.803 228.445 274.349 228.081 274.761 227.553C275.134 227.046 275.299 226.318 275.296 225.361ZM273.893 220.64C273.393 219.317 272.714 218.421 271.782 217.893C270.85 217.388 269.928 217.272 268.975 217.522C267.914 217.801 267.159 218.371 266.758 219.266C266.319 220.171 266.317 221.227 266.748 222.468C269.141 221.878 271.497 221.264 273.893 220.64Z" fill="#2CC379"/>
<path fill-rule="evenodd" clip-rule="evenodd" d="M277.359 211.649C278.879 211.099 280.362 210.56 281.919 210.023C283.549 213.609 285.213 217.208 286.874 220.82C287.63 216.333 288.46 211.861 289.291 207.4C290.89 206.842 292.451 206.281 294.051 205.711C296.724 211.483 299.356 217.243 302.092 223.068C300.497 223.604 298.94 224.128 297.421 224.666C295.659 220.956 293.969 217.261 292.238 213.588C291.4 218.141 290.599 222.695 289.796 227.282C288.241 227.806 286.685 228.352 285.169 228.866C282.572 223.098 279.968 217.366 277.359 211.649Z" fill="#2CC379"/>
<path fill-rule="evenodd" clip-rule="evenodd" d="M285.16 202.172C285.827 201.919 286.603 201.66 287.345 201.378C287.886 202.806 287.862 204.082 287.346 205.189C286.794 206.305 285.761 207.112 284.39 207.636C282.947 208.147 281.614 208.158 280.388 207.701C279.091 207.231 278.113 206.344 277.383 205.017C278.088 204.745 278.792 204.472 279.533 204.201C279.984 204.906 280.491 205.356 281.088 205.562C281.72 205.769 282.484 205.721 283.369 205.395C284.223 205.082 284.83 204.648 285.086 204.111C285.379 203.565 285.392 202.921 285.16 202.172Z" fill="#2CC379"/>
<path fill-rule="evenodd" clip-rule="evenodd" d="M172.652 242.194C168.409 241.908 164.167 241.609 160.04 241.316C159.987 242.828 159.974 244.319 159.96 245.81C158.738 245.722 157.555 245.625 156.409 245.54C156.418 242.832 156.504 240.116 156.591 237.388C157.165 237.424 157.738 237.46 158.351 237.487C159.129 236.689 159.728 235.402 160.273 233.631C160.826 231.829 161.104 228.76 161.292 224.374C165.738 224.618 170.261 224.865 174.745 225.121C174.697 229.61 174.613 234.073 174.527 238.572C175.1 238.619 175.711 238.657 176.361 238.707C176.266 241.462 176.284 244.256 176.228 247C174.968 246.922 173.746 246.835 172.562 246.749C172.578 245.245 172.595 243.731 172.652 242.194ZM170.128 238.291C170.173 235.057 170.256 231.837 170.34 228.593C168.54 228.483 166.739 228.384 164.939 228.274C164.654 232.964 163.923 236.144 162.633 237.786C165.043 237.946 167.604 238.125 170.128 238.291Z" fill="#2CC379"/>
<path fill-rule="evenodd" clip-rule="evenodd" d="M180.275 225.324C185.186 225.365 190.211 225.397 195.236 225.43C195.397 231.16 195.481 236.901 195.602 242.643C194.171 242.611 192.626 242.576 191.157 242.542C191.029 238.049 190.938 233.555 190.847 229.074C188.769 229.059 186.768 229.034 184.767 229.01C184.795 231.569 184.874 234.106 184.927 236.666C184.967 238.618 184.718 239.981 184.29 240.775C183.863 241.559 183.378 242.072 182.836 242.291C182.331 242.534 181.493 242.659 180.25 242.628C179.573 242.611 178.674 242.491 177.481 242.275C177.437 241.164 177.393 240.064 177.386 238.953C177.498 238.968 177.763 238.965 178.138 238.998C178.626 239.046 179.002 239.06 179.228 239.065C179.831 239.075 180.145 238.89 180.284 238.479C180.421 238.091 180.491 236.96 180.418 235.13C180.357 231.865 180.298 228.588 180.275 225.324Z" fill="#2CC379"/>
<path fill-rule="evenodd" clip-rule="evenodd" d="M212.128 224.316C212.849 230.205 213.491 236.103 214.208 241.994C212.632 242.096 211.02 242.175 209.483 242.257C209.184 239.816 208.926 237.366 208.627 234.926C208.473 234.931 208.359 234.938 208.243 234.944C207.243 235.015 206.547 235.163 206.063 235.467C205.629 235.738 205.202 236.33 204.723 237.22C204.639 237.319 204.554 237.452 204.507 237.575C203.63 239.281 202.792 240.965 201.953 242.671C200.148 242.763 198.343 242.867 196.577 242.961C197.456 241.201 198.335 239.451 199.291 237.693C200.08 236.178 200.864 235.301 201.61 235.025C200.308 235.015 199.186 234.603 198.285 233.734C197.381 232.887 196.843 231.748 196.702 230.353C196.546 229.22 196.724 228.237 197.161 227.425C197.598 226.578 198.212 225.989 199.078 225.638C199.945 225.287 201.263 225.069 202.996 224.948C206.078 224.747 209.045 224.529 212.128 224.316ZM207.806 227.622C206.766 227.704 205.649 227.798 204.57 227.862C203.302 227.938 202.48 228.161 202.034 228.529C201.587 228.921 201.397 229.505 201.497 230.295C201.599 231.107 201.945 231.657 202.537 231.978C203.129 232.3 204.079 232.419 205.349 232.337C206.311 232.275 207.35 232.206 208.313 232.144C208.144 230.633 207.975 229.133 207.806 227.622Z" fill="#2CC379"/>
<path fill-rule="evenodd" clip-rule="evenodd" d="M45.3626 173.012C46.3525 173.986 47.3062 174.971 48.2957 175.935C47.0486 179.157 45.8382 182.367 44.5926 185.578C47.32 183.882 50.0125 182.165 52.7427 180.448C53.7304 181.444 54.6815 182.441 55.7403 183.437C52.8674 186.997 50.033 190.543 47.2015 194.067C46.496 193.392 45.8628 192.686 45.1934 192C47.0677 189.686 48.8716 187.362 50.7851 185.036C48.2032 186.614 45.5868 188.191 43.0428 189.768C42.3728 189.083 41.667 188.387 41.0682 187.702C42.2001 184.694 43.3338 181.665 44.5038 178.644C42.6633 180.97 40.8237 183.283 38.9855 185.586C38.3146 184.912 37.6791 184.238 37.0796 183.553C39.8025 180.051 42.5634 176.527 45.3626 173.012Z" fill="#2CC379"/>
<path fill-rule="evenodd" clip-rule="evenodd" d="M58.2772 197.411C59.0258 198.314 59.8102 199.219 60.5945 200.114C59.4769 200.943 58.3801 201.34 57.3037 201.307C56.1902 201.283 55.0947 200.811 53.9546 199.888C52.185 198.454 51.3688 196.723 51.3884 194.736C51.4256 193.15 51.8998 191.562 52.9755 189.972C54.2559 188.08 55.6719 186.955 57.2009 186.594C58.8033 186.215 60.2645 186.585 61.5801 187.65C63.1073 188.886 63.9328 190.406 64.0607 192.253C64.2241 194.112 63.4414 196.186 61.8571 198.502C59.6069 196.664 57.3559 194.817 55.2105 192.996C54.5925 193.907 54.3712 194.792 54.4045 195.625C54.509 196.471 54.8641 197.149 55.4609 197.655C55.8668 198 56.3369 198.143 56.7335 198.117C57.2733 198.107 57.7527 197.863 58.2772 197.411ZM60.4313 194.435C61.013 193.542 61.2321 192.709 61.1607 191.938C61.0894 191.167 60.7557 190.567 60.2038 190.111C59.6476 189.651 59.0091 189.485 58.2813 189.656C57.6252 189.83 56.9895 190.342 56.4471 191.172C57.7989 192.267 59.1158 193.34 60.4313 194.435Z" fill="#2CC379"/>
<path fill-rule="evenodd" clip-rule="evenodd" d="M69.3754 210.774C66.579 208.934 63.8163 207.107 61.051 205.293C60.4568 206.376 59.8975 207.473 59.3408 208.548C58.5189 208.042 57.8047 207.534 57.0204 207.01C58.084 205.035 59.1117 203.067 60.1052 201.075C60.5158 201.339 60.926 201.602 61.3017 201.852C62.1546 201.558 63.0857 200.865 64.1431 199.747C65.1799 198.651 66.5433 196.478 68.3244 193.299C71.3015 195.201 74.2764 197.115 77.2841 199.053C75.5275 202.331 73.8103 205.591 72.0562 208.868C72.4298 209.128 72.8401 209.382 73.251 209.635C72.181 211.644 71.1116 213.652 70.0432 215.65C69.2601 215.125 68.4412 214.597 67.658 214.073C68.2194 212.965 68.7792 211.868 69.3754 210.774ZM69.1224 206.943C70.4013 204.592 71.6434 202.248 72.9235 199.895C71.691 199.126 70.5293 198.373 69.4041 197.613C67.4274 200.977 65.7076 203.01 64.1728 203.706C65.8114 204.78 67.4844 205.869 69.1224 206.943Z" fill="#2CC379"/>
<path fill-rule="evenodd" clip-rule="evenodd" d="M79.763 200.236C80.8051 200.776 81.847 201.304 82.8517 201.841C81.6426 204.656 80.4331 207.492 79.1514 210.313C82.1201 208.361 84.9803 206.391 87.8785 204.423C88.9549 204.975 90.0316 205.538 91.1081 206.09C89.1092 210.626 87.149 215.162 85.2282 219.698C84.1535 219.135 83.115 218.583 82.0771 218.021C83.3261 215.122 84.5748 212.244 85.7883 209.344C82.8534 211.352 79.9201 213.349 76.9893 215.334C75.9503 214.783 74.9478 214.223 73.9445 213.685C75.8576 209.195 77.8091 204.727 79.763 200.236Z" fill="#2CC379"/>
<path fill-rule="evenodd" clip-rule="evenodd" d="M93.3587 206.939C94.5177 207.465 95.6777 207.968 96.8741 208.485C95.6065 212.273 94.3768 216.063 93.149 219.852C94.7915 220.593 96.5088 221.348 98.226 222.116C99.4568 218.302 100.726 214.502 101.997 210.69C103.193 211.207 104.389 211.735 105.623 212.243C104.312 216.076 103.078 219.901 101.846 223.715C102.331 223.929 102.779 224.141 103.264 224.333C102.523 226.684 101.671 228.973 100.894 231.287C99.9623 230.871 98.9931 230.42 98.0244 229.98C98.4341 228.713 98.8441 227.435 99.292 226.148C95.6354 224.534 92.0901 222.939 88.5433 221.355C90.1719 216.556 91.7645 211.754 93.3587 206.939Z" fill="#2CC379"/>
<path fill-rule="evenodd" clip-rule="evenodd" d="M107.494 212.627C108.656 213.022 109.931 213.437 111.131 213.824C110.349 217.022 109.528 220.218 108.71 223.401C111.439 220.857 114.208 218.315 116.98 215.749C118.254 216.164 119.491 216.577 120.803 216.994C119.529 222.136 118.257 227.267 116.91 232.379C115.714 231.968 114.443 231.54 113.209 231.115C114.033 227.853 114.896 224.592 115.723 221.306C112.913 223.913 110.106 226.507 107.301 229.078C106.028 228.662 104.869 228.254 103.672 227.832C104.931 222.774 106.231 217.697 107.494 212.627Z" fill="#2CC379"/>
<path fill-rule="evenodd" clip-rule="evenodd" d="M122.685 217.423C124.008 217.738 125.292 218.062 126.69 218.391C126.314 220.329 125.9 222.265 125.525 224.202C127.411 224.677 129.374 225.144 131.298 225.62C131.637 223.669 132.053 221.721 132.431 219.771C133.715 220.084 135.075 220.412 136.473 220.72C135.327 226.073 134.335 231.432 133.305 236.79C131.949 236.449 130.594 236.085 129.274 235.769C129.668 233.515 130.138 231.276 130.57 229.035C128.685 228.559 126.762 228.071 124.838 227.606C124.408 229.835 123.978 232.074 123.587 234.293C122.23 233.964 120.873 233.612 119.554 233.285C120.609 228.002 121.666 222.708 122.685 217.423Z" fill="#2CC379"/>
<path fill-rule="evenodd" clip-rule="evenodd" d="M140.883 226.653C139.637 226.225 138.501 225.824 137.255 225.395C137.864 223.908 138.706 222.894 139.789 222.277C140.869 221.704 142.412 221.541 144.376 221.828C146.23 222.098 147.59 222.516 148.454 223.093C149.241 223.69 149.837 224.356 150.13 225.098C150.422 225.851 150.496 227.147 150.274 229.006C150.103 230.668 149.855 232.327 149.682 234C149.562 235.421 149.499 236.49 149.534 237.177C149.605 237.866 149.783 238.648 150.033 239.476C148.628 239.261 147.297 239.037 145.967 238.825C145.909 238.524 145.823 238.067 145.708 237.499C145.686 237.221 145.659 237.044 145.627 236.954C144.808 237.559 144 237.978 143.204 238.208C142.369 238.427 141.509 238.467 140.621 238.328C139.032 238.072 137.825 237.432 137.038 236.385C136.265 235.356 135.92 234.138 136.087 232.777C136.199 231.865 136.428 231.068 136.891 230.46C137.397 229.795 138.077 229.366 138.837 229.096C139.602 228.824 140.73 228.657 142.153 228.606C144.064 228.511 145.418 228.347 146.252 228.151C146.26 228.007 146.269 227.864 146.313 227.733C146.362 226.895 146.21 226.304 145.861 225.879C145.511 225.467 144.817 225.193 143.779 225.04C143.039 224.932 142.436 224.995 142.011 225.242C141.587 225.456 141.186 225.937 140.883 226.653ZM145.904 230.921C145.375 231.02 144.511 231.104 143.348 231.187C142.223 231.272 141.468 231.405 141.084 231.588C140.506 231.895 140.219 232.358 140.146 232.973C140.076 233.555 140.238 234.119 140.612 234.605C141.002 235.112 141.501 235.392 142.165 235.501C142.869 235.616 143.622 235.497 144.279 235.094C144.857 234.788 145.217 234.372 145.436 233.829C145.606 233.472 145.765 232.804 145.854 231.781C145.879 231.483 145.887 231.207 145.904 230.921Z" fill="#2CC379"/>
<path fill-rule="evenodd" clip-rule="evenodd" d="M161.44 47.2631C182.137 47.7553 201.759 51.2503 219.488 57.1238C205.647 53.7757 190.909 51.7979 175.594 51.4337C93.0434 49.4709 24.9653 95.0598 23.5694 153.238C22.8289 184.105 41.0095 212.324 70.5696 232.309C34.4078 212.624 11.3348 181.601 12.1595 147.23C13.5301 90.1017 80.3793 45.3358 161.44 47.2631Z" fill="#EB5757"/>
<path fill-rule="evenodd" clip-rule="evenodd" d="M176.582 116.761C179.545 116.761 181.947 119.382 181.947 122.615C181.947 125.848 179.545 128.47 176.582 128.47C173.619 128.47 171.216 125.848 171.216 122.615C171.216 119.382 173.619 116.761 176.582 116.761ZM205.024 116.302C207.987 116.302 210.39 118.924 210.39 122.157C210.39 125.39 207.987 128.012 205.024 128.012C202.061 128.012 199.658 125.39 199.658 122.157C199.658 118.924 202.061 116.302 205.024 116.302ZM205.024 111.172C210.433 111.172 214.847 115.83 215.081 121.67H224.168L224.249 121.682C225.465 121.862 226.639 122.32 227.51 123.209C229.346 125.085 228.973 127.889 228.181 130.143L227.816 131.181L225.731 130.455L226.096 129.418C226.571 128.066 227.079 125.919 225.928 124.744C225.427 124.231 224.698 123.981 224.001 123.869H214.97C214.422 127.687 212.07 130.854 208.896 132.299C210.046 132.938 211.175 133.616 212.282 134.326L212.964 134.764L213.199 135.537C213.67 137.086 213.554 139.086 213.086 140.621C212.846 141.406 212.501 142.134 212.051 142.769C212.942 143.641 213.951 144.42 215.042 144.957C216.153 145.505 217.465 145.848 218.693 145.509C220.252 145.078 221.197 143.673 221.761 142.249C221.992 141.608 222.367 141.033 222.847 140.55C225.483 137.895 230.486 138.461 230.59 142.842L230.591 142.897L230.587 142.952C230.208 147.894 228.249 152.482 224.829 156.097C220.767 160.391 215.162 162.778 209.281 163.129C202.554 163.531 196.088 161.3 190.576 157.572C185.261 161.909 178.801 165.174 171.876 165.707C170.127 165.842 168.373 165.794 166.66 165.549C167.747 172.991 172.673 178.367 178.938 182.418C180.012 177.132 181.943 171.941 184.718 167.47L185.058 166.923L185.657 166.684C190.341 164.82 194.974 164.434 199.775 166.259L200.645 166.589L200.936 167.47C201.592 169.453 202.403 171.369 203.224 173.288C204.985 177.404 206.465 181.11 207.212 185.547L207.395 185.504C218.88 182.757 228.881 176.64 234.802 166.239C235.73 164.609 236.527 162.924 237.201 161.197L237.473 160.479C239.161 155.895 240 151.03 240.12 146.114L240.139 145.374L240.834 145.112C245.151 143.488 249.096 140.633 250.813 136.224C252.209 132.638 251.801 128.77 250.411 125.253C248.46 122.86 245.927 123.185 243.518 124.827L236.017 130.583L235.861 130.641C235.442 130.796 234.999 130.837 234.562 130.74C231.993 130.17 231.301 125.301 230.759 123.157L230.639 122.685L233.831 117.922C234.033 116.447 233.75 115.234 232.891 113.98C232.401 113.265 231.795 112.621 231.204 111.988C230.325 111.044 229.464 110.109 228.842 108.977L228.72 108.746L221.771 107.1C221.919 107.814 222.017 108.567 222.064 109.363L222.181 111.388L214.836 111.117C210.28 110.987 206.708 109.769 203.216 107.614L187.121 108.246L187.131 108.523L186.214 109.104C184.185 110.389 182.081 111.421 179.91 112.246C183.153 113.485 185.638 116.484 186.403 120.193L195.149 120.012C196.063 114.973 200.137 111.172 205.024 111.172ZM205.729 133.115C205.496 133.132 205.261 133.142 205.024 133.142C202.298 133.142 199.824 131.959 198.011 130.038C197.51 129.889 197.01 129.75 196.509 129.621C192.511 128.258 189.532 128.569 184.282 130.322C179.269 134.536 173.786 136.569 174.173 143.197C178.016 145.768 184.675 142.496 189.926 144.132C196.586 144.676 201.838 141.949 208.028 142.961C208.37 142.894 208.68 142.784 208.96 142.641C209.572 142.171 210.091 141.647 210.519 141.067C211.4 139.472 211.43 137.309 211.085 136.174C209.3 135.028 207.514 134.008 205.729 133.115ZM196.071 127.185C195.724 126.451 195.45 125.669 195.261 124.85L186.36 125.235C186.173 126.069 185.899 126.867 185.549 127.614C189.185 126.541 192.301 126.146 196.071 127.185ZM195.035 123.539C194.983 123.086 194.956 122.625 194.956 122.157C194.956 121.881 194.966 121.606 194.984 121.335L186.599 121.509C186.632 121.873 186.649 122.242 186.649 122.615C186.649 123.052 186.626 123.482 186.58 123.905L195.035 123.539ZM177.711 184.887L173.974 204.552L172.032 204.434C158.849 203.639 145.447 200.414 134.856 192.195L132.254 190.175L165.905 171.106C165.14 169.246 164.615 167.247 164.375 165.097C161.374 164.332 158.569 162.908 156.223 160.741C152.688 157.475 150.81 153.074 150.442 148.324L150.438 148.269L150.439 148.214C150.476 146.641 151.179 145.248 152.584 144.471C153.504 143.961 154.586 143.799 155.619 143.946C155.542 143.634 155.476 143.317 155.421 142.996C155.253 142.005 155.194 141 155.143 139.999C155.09 138.976 155.04 137.959 154.964 136.94C147.576 134.689 143.212 128.39 140.202 121.576L139.609 120.232L141.071 120.043C143.992 119.666 146.955 119.592 149.896 119.515C155.84 119.357 161.406 119.187 166.089 116.949L165.659 115.057L156.789 90.0378L156.779 89.8856C156.377 83.6049 157.444 77.0922 162.299 72.6467L162.418 72.5371L162.564 72.4665C186.438 60.9441 211.584 60.3866 237.025 66.5447L237.114 66.5664L237.199 66.6025C243.82 69.4276 247.389 74.6798 248.421 81.7105L248.441 81.8488L245.51 108.785C245.875 108.8 246.239 108.812 246.604 108.82C250.139 108.896 253.486 108.612 256.882 107.59C259.917 106.676 262.795 105.254 265.599 103.799L267.005 103.068L267.205 104.634C268.082 111.492 267.065 118.229 262.089 123.209L267.82 133.479L267.578 133.989C264.82 139.813 260.145 143.67 254.21 145.997C252.987 154.574 247.183 159.533 239.162 162.24C238.762 163.246 238.323 164.238 237.842 165.214L261.258 177.613L259.445 179.609C254.28 185.293 247.243 189.77 240.342 193.059C231.105 197.462 220.989 200.301 210.89 201.882L207.468 202.418L212.895 186.21C211.27 186.76 209.606 187.236 207.91 187.642L207.231 187.804C206.623 196.395 200.338 202.327 192.959 206.444L191.842 207.067L190.821 206.299C185.435 202.245 180.859 197.234 178.139 191.023L177.957 190.608L177.977 190.157C178.058 188.374 178.238 186.566 178.519 184.759L178.425 184.7C178.225 184.575 178.037 184.452 177.865 184.336L177.711 184.887ZM167.136 118.807L167.066 118.842C159.925 122.435 150.791 121.317 142.851 122.058C145.646 127.924 149.655 133.305 156.282 135.027L157.036 135.223L157.104 135.995C157.218 137.293 157.282 138.586 157.348 139.887C157.395 140.8 157.446 141.726 157.599 142.629C157.727 143.382 157.929 144.095 158.207 144.807L158.415 145.34C158.647 145.78 158.955 146.191 159.239 146.622C159.823 147.682 160.656 148.519 161.796 148.974C161.809 148.979 161.822 148.984 161.834 148.989C161.967 145.858 161.291 142.989 160.137 139.99L160.064 139.8V139.596C160.065 134.595 163.017 131.584 166.871 128.882L167.774 128.249L169.046 130.046L168.143 130.679C164.968 132.906 162.356 135.31 162.275 139.4C163.525 142.701 164.22 145.881 164.028 149.348C165.159 149.319 166.299 149.006 167.312 148.566C169.27 147.716 171.028 146.304 172.405 144.663L171.968 143.324C171.831 140.969 172.301 138.787 173.572 136.782C174.325 135.594 175.313 134.556 176.41 133.598C170.93 133.498 166.514 128.619 166.514 122.615C166.514 121.277 166.734 119.994 167.136 118.807ZM173.504 112.154C174.106 111.943 174.732 111.793 175.376 111.709C178.307 110.941 181.167 109.845 183.922 108.272C184.558 107.738 184.986 107.11 185.11 106.345C184.582 101.611 181.828 100.221 176.908 102.047C172.002 103.391 169.864 107.556 169.23 112.875C170.667 112.692 172.093 112.457 173.504 112.154ZM207.588 120.363C208.949 120.363 210.053 121.567 210.053 123.051C210.053 124.536 208.949 125.739 207.588 125.739C206.227 125.739 205.122 124.536 205.122 123.051C205.122 121.567 206.227 120.363 207.588 120.363ZM178.711 121.999C180.072 121.999 181.176 123.203 181.176 124.687C181.176 126.172 180.072 127.375 178.711 127.375C177.35 127.375 176.246 126.172 176.246 124.687C176.246 123.203 177.35 121.999 178.711 121.999ZM240.449 128.493C242.198 127.99 244.453 127.626 246.024 128.799C248.779 130.856 247.328 136.096 246.506 138.752L246.18 139.802L244.07 139.155L244.395 138.104C244.834 136.685 246.286 131.742 244.699 130.558C243.827 129.907 241.998 130.337 241.062 130.606L240.001 130.911L239.388 128.798L240.449 128.493ZM185.115 72.0535H195.679V79.5323H203.191V90.0493H195.679V97.5281H185.115V90.0493H177.602V79.5323H185.115V72.0535ZM200.486 105.741C200.181 105.512 199.875 105.277 199.568 105.035L197.946 103.76L199.395 102.294C203.845 97.79 207.969 98.3239 213.753 97.8284L214.363 97.7761L214.884 98.0962C217.78 99.8742 219.856 101.958 221.016 104.673C227.313 106.106 232.997 107.556 239.462 108.292C240.737 108.437 242.019 108.564 243.302 108.658L246.215 81.8915C245.275 75.7193 242.226 71.1708 236.412 68.6594C211.56 62.6593 187.009 63.1604 163.677 74.3734C159.489 78.3007 158.645 84.1149 158.974 89.5946L167.293 113.058L167.342 112.652C168.02 106.965 170.43 101.9 176.321 100.245C182.426 98.0099 186.371 100.209 187.012 106.27L200.486 105.741ZM203.526 105.621L203.676 105.615L203.681 105.721C207.293 108.054 210.656 109.154 214.896 109.273L220.214 109.469C220.154 108.447 220 107.509 219.751 106.64L219.52 105.928C218.577 103.329 216.707 101.383 213.911 99.6661C208.38 100.14 204.67 99.5849 200.716 103.587C201.682 104.347 202.613 105.023 203.526 105.621ZM239.211 110.477C236.766 110.199 234.326 109.851 231.894 109.47C232.195 109.82 232.511 110.157 232.823 110.492C233.493 111.21 234.16 111.929 234.716 112.742C235.939 114.527 236.333 116.372 235.975 118.509L235.936 118.742L233.017 123.098C233.246 124.067 233.434 125.031 233.723 125.999C233.919 126.651 234.165 127.371 234.505 127.963C234.575 128.084 234.841 128.497 235.008 128.581L242.217 123.049L242.242 123.032C245.671 120.682 249.543 120.547 252.251 124.023L252.345 124.144L252.402 124.286C254.05 128.365 254.493 132.857 252.873 137.019C251.014 141.792 246.943 145.004 242.306 146.898C242.139 151.207 241.439 155.468 240.13 159.543C246.652 156.95 251.258 152.571 252.1 145.083L252.176 144.41L252.814 144.175C258.327 142.142 262.698 138.77 265.335 133.553L259.321 122.778L259.965 122.192C264.525 118.037 265.658 112.342 265.18 106.487C262.707 107.736 260.178 108.895 257.521 109.695C253.899 110.785 250.327 111.099 246.556 111.018C244.141 110.966 241.82 110.774 239.211 110.477ZM165.241 163.045L166.439 163.289C168.163 163.583 169.939 163.651 171.705 163.515C178.395 162.999 184.642 159.697 189.696 155.44L190.257 154.657L190.454 154.797L190.639 154.64L191.265 155.372C196.489 159.051 202.689 161.321 209.149 160.934C214.467 160.616 219.545 158.475 223.221 154.59C226.281 151.355 228.029 147.261 228.38 142.842C228.359 142.277 228.197 141.706 227.684 141.394C226.812 140.863 225.478 141.251 224.724 141.827C224.327 142.131 224.004 142.528 223.836 143.001L223.83 143.019L223.823 143.036C222.994 145.142 221.556 147 219.283 147.628C217.512 148.117 215.677 147.724 214.062 146.928C212.743 146.278 211.536 145.352 210.471 144.307C209.883 144.691 209.21 144.971 208.453 145.118L208.063 145.194L207.67 145.13C205.919 144.844 204.189 144.9 202.433 145.106C200.473 145.336 198.531 145.731 196.577 146.013C194.295 146.343 192.051 146.512 189.745 146.323L189.5 146.303L189.266 146.23C187.671 145.733 185.815 145.813 184.169 145.956C181.034 146.227 177.385 146.951 174.357 145.76C172.723 147.798 170.593 149.541 168.195 150.582C166.819 151.179 165.308 151.557 163.807 151.549C163.078 151.58 162.349 151.477 161.62 151.238C161.402 151.175 161.186 151.1 160.973 151.015C159.328 150.357 158.093 149.147 157.261 147.604L157.225 147.538L157.199 147.467C157.095 147.278 156.927 147.063 156.707 146.749C156.66 146.705 156.61 146.664 156.558 146.625L156.548 146.629L156.542 146.612C156.165 146.332 155.696 146.167 155.234 146.114C153.791 145.947 152.708 146.733 152.649 148.214C152.985 152.388 154.614 156.255 157.726 159.129C159.879 161.118 162.472 162.39 165.241 163.045ZM215.101 185.961L210.563 199.81C232.867 196.317 249.472 187.458 257.882 178.202L236.893 167.086C234.267 171.086 231.766 174.523 228.547 177.272C224.692 180.564 219.979 182.998 215.101 185.961ZM186.384 168.494C182.76 174.332 180.299 182.126 179.933 190.244C182.292 195.63 186.314 200.463 192.002 204.744C200.741 199.868 205.457 193.739 205.319 186.101C204.14 178.782 201.088 174.156 199.077 168.08C194.534 166.353 190.372 166.906 186.384 168.494ZM166.873 173.113C169.486 177.007 172.345 180.168 175.841 183.037L172.165 202.24C157.148 201.334 145.165 197.407 136.214 190.461L166.873 173.113Z" fill="#030309"/>
</g>
<defs>
<clipPath id="clip0_7469_1038">
<rect width="401" height="247" fill="white"/>
</clipPath>
</defs>
</svg>
