<?xml version="1.0" encoding="UTF-8" standalone="no"?>
<!-- Created with Inkscape (http://www.inkscape.org/) -->

<svg
   width="124.38392mm"
   height="28.61264mm"
   viewBox="0 0 124.38392 28.61264"
   version="1.1"
   id="svg5"
   xml:space="preserve"
   inkscape:export-filename="bitmap.svg"
   inkscape:export-xdpi="96"
   inkscape:export-ydpi="96"
   xmlns:inkscape="http://www.inkscape.org/namespaces/inkscape"
   xmlns:sodipodi="http://sodipodi.sourceforge.net/DTD/sodipodi-0.dtd"
   xmlns="http://www.w3.org/2000/svg"
   xmlns:svg="http://www.w3.org/2000/svg"><sodipodi:namedview
     id="namedview7"
     pagecolor="#505050"
     bordercolor="#eeeeee"
     borderopacity="1"
     inkscape:showpageshadow="0"
     inkscape:pageopacity="0"
     inkscape:pagecheckerboard="0"
     inkscape:deskcolor="#505050"
     inkscape:document-units="mm"
     showgrid="false" /><defs
     id="defs2" /><g
     inkscape:label="Layer 1"
     inkscape:groupmode="layer"
     id="layer1"
     transform="translate(-80.915369,-147.0693)"><g
       id="g128"
       transform="matrix(0.35277777,0,0,0.35277777,39.342194,33.108714)"><path
         d="m 230.3007,394.4449 h 6.4231 l -0.2592,1.2612 h -4.903 l -0.4005,2.0272 h 2.4397 c 0.8484,0 1.4946,0.1827 1.9386,0.5481 0.444,0.3654 0.666,0.8976 0.666,1.5969 0,0.5814 -0.1533,1.0842 -0.4599,1.5084 -0.3063,0.4245 -0.7482,0.7485 -1.3257,0.9723 -0.5775,0.2241 -1.263,0.336 -2.0565,0.336 h -3.7126 z m 2.2276,7.0714 c 0.6519,0 1.1646,-0.1335 1.5378,-0.4005 0.3732,-0.2673 0.5598,-0.6405 0.5598,-1.1196 0,-0.3693 -0.1275,-0.6423 -0.3828,-0.8193 -0.2556,-0.1767 -0.6543,-0.2649 -1.1964,-0.2649 h -2.1214 l -0.5187,2.6043 z m 11.098,-2.4276 c 0,0.3063 -0.0315,0.6048 -0.0942,0.8955 h -4.9972 c 0.0234,1.0293 0.6285,1.5441 1.8151,1.5441 0.3615,0 0.6993,-0.057 1.0134,-0.171 0.3144,-0.114 0.5814,-0.273 0.8016,-0.4773 l 0.6126,1.0254 c -0.3219,0.2907 -0.7089,0.5088 -1.1607,0.654 -0.4518,0.1455 -0.9252,0.2181 -1.4202,0.2181 -0.6286,0 -1.1767,-0.114 -1.6441,-0.3417 -0.4674,-0.228 -0.8271,-0.552 -1.0785,-0.9723 -0.2514,-0.4203 -0.3771,-0.9057 -0.3771,-1.4556 0,-0.6993 0.1551,-1.3299 0.4656,-1.8915 0.3102,-0.562 0.7425,-1 1.2963,-1.3144 0.5541,-0.3141 1.1767,-0.4713 1.8682,-0.4713 0.8799,0 1.5831,0.2457 2.1096,0.7365 0.5265,0.4911 0.7896,1.165 0.7896,2.0215 z m -2.97,-1.5793 c -0.495,0 -0.9172,0.1336 -1.267,0.4006 -0.3495,0.2673 -0.5913,0.6327 -0.7248,1.0962 h 3.6064 c 0.008,-0.4716 -0.1356,-0.8388 -0.4302,-1.1019 -0.2946,-0.2634 -0.6894,-0.3949 -1.1844,-0.3949 z m 6.714,5.2681 c -0.621,0 -1.1649,-0.1158 -1.6323,-0.3477 -0.4677,-0.2319 -0.8271,-0.5559 -1.0785,-0.9723 -0.2514,-0.4164 -0.3771,-0.8997 -0.3771,-1.4496 0,-0.6993 0.1611,-1.3278 0.4833,-1.8858 0.3219,-0.5578 0.768,-0.9958 1.3374,-1.3141 0.5697,-0.3183 1.2198,-0.4773 1.9506,-0.4773 0.6364,0 1.1845,0.1239 1.6441,0.3714 0.4596,0.2475 0.8154,0.6147 1.0668,1.102 l -1.2612,0.648 c -0.2907,-0.5814 -0.8133,-0.8722 -1.5676,-0.8722 -0.4164,0 -0.7875,0.1003 -1.1136,0.3007 -0.3261,0.2004 -0.5835,0.4794 -0.7719,0.8367 -0.1887,0.3576 -0.2829,0.7641 -0.2829,1.2198 0,0.495 0.1452,0.882 0.4359,1.161 0.2907,0.279 0.7032,0.4182 1.2375,0.4182 0.3615,0 0.6876,-0.0726 0.9784,-0.2178 0.2907,-0.1455 0.5382,-0.3636 0.7425,-0.6543 l 1.0842,0.7308 c -0.2907,0.4401 -0.6915,0.7839 -1.2021,1.0314 -0.5106,0.2475 -1.0687,0.3711 -1.6735,0.3711 z m 9.8372,-1.3317 h 0.9546 l -0.5421,2.6988 h -1.3792 l 0.295,-1.4496 h -5.5276 l 1.2609,-6.2935 h 1.4616 l -1.002,5.0443 h 3.0054 l 1.0018,-5.0443 h 1.4733 z m 8.4463,-2.3571 c 0,0.3063 -0.0315,0.6048 -0.0942,0.8955 h -4.9972 c 0.0234,1.0293 0.6285,1.5441 1.815,1.5441 0.3615,0 0.6993,-0.057 1.0134,-0.171 0.3144,-0.114 0.5814,-0.273 0.8016,-0.4773 l 0.6127,1.0254 c -0.322,0.2907 -0.709,0.5088 -1.1608,0.654 -0.4518,0.1455 -0.9252,0.2181 -1.4202,0.2181 -0.6285,0 -1.1766,-0.114 -1.644,-0.3417 -0.4674,-0.228 -0.8271,-0.552 -1.0785,-0.9723 -0.2514,-0.4203 -0.3771,-0.9057 -0.3771,-1.4556 0,-0.6993 0.1551,-1.3299 0.4656,-1.8915 0.3102,-0.562 0.7425,-1 1.2963,-1.3144 0.5541,-0.3141 1.1766,-0.4713 1.8681,-0.4713 0.8799,0 1.5831,0.2457 2.1097,0.7365 0.5265,0.4911 0.7896,1.165 0.7896,2.0215 z m -2.9701,-1.5793 c -0.495,0 -0.9171,0.1336 -1.2669,0.4006 -0.3495,0.2673 -0.5913,0.6327 -0.7248,1.0962 h 3.6063 c 0.008,-0.4716 -0.1356,-0.8388 -0.4302,-1.1019 -0.2946,-0.2634 -0.6894,-0.3949 -1.1844,-0.3949 z m 4.8046,-1.1079 h 1.4616 l -0.507,2.5576 h 3.1704 l 0.5067,-2.5576 h 1.4734 l -1.2493,6.2935 h -1.4733 l 0.495,-2.4867 h -3.1704 l -0.495,2.4867 h -1.473 z m 7.9162,0 h 1.4616 l -0.507,2.5576 h 3.1704 l 0.5067,-2.5576 h 1.4734 l -1.2493,6.2935 h -1.4733 l 0.495,-2.4867 h -3.1704 l -0.495,2.4867 h -1.473 z m 14.2571,0 h 1.473 l -1.2609,6.2935 h -1.4617 z m -3.7951,2.0626 c 0.7227,0 1.269,0.1473 1.6383,0.4419 0.369,0.2946 0.5538,0.7326 0.5538,1.314 0,0.495 -0.1278,0.9291 -0.3831,1.3023 -0.2553,0.3732 -0.6147,0.6621 -1.0782,0.8664 -0.4638,0.2043 -1.002,0.3063 -1.6146,0.3063 h -2.9229 l 1.2609,-6.2701 h 1.4616 l -0.4008,2.0392 z m -0.8838,3.1584 c 0.4791,0 0.864,-0.1179 1.1547,-0.3534 0.2907,-0.2358 0.4362,-0.5463 0.4362,-0.9312 0,-0.5658 -0.381,-0.8487 -1.1433,-0.8487 h -1.2609 l -0.4125,2.1333 z m 7.963,-5.221 h 1.485 l -0.8604,4.2664 4.2784,-4.2664 h 1.4025 l -1.2612,6.2935 h -1.4968 l 0.8839,-4.278 -4.2781,4.278 h -1.4142 z m 3.3,-0.7779 c -0.5658,0 -0.9978,-0.114 -1.2963,-0.3417 -0.2985,-0.228 -0.4479,-0.5502 -0.4479,-0.9666 0,-0.1257 0.0117,-0.2592 0.0354,-0.4005 h 0.9663 c -0.0156,0.1098 -0.0234,0.1806 -0.0234,0.2121 0,0.2358 0.0744,0.4164 0.2238,0.5421 0.1494,0.1257 0.3576,0.1884 0.6246,0.1884 0.2985,0 0.5481,-0.0804 0.7485,-0.2415 0.2005,-0.1611 0.3358,-0.3948 0.4066,-0.7011 h 0.9783 c -0.1023,0.5655 -0.342,0.9918 -0.7191,1.2786 -0.3771,0.2868 -0.8761,0.4302 -1.4968,0.4302 z m 9.9437,7.1539 c -0.6129,0 -1.1494,-0.1158 -1.609,-0.3477 -0.4596,-0.2319 -0.8151,-0.5559 -1.0665,-0.9723 -0.2514,-0.4164 -0.3771,-0.8997 -0.3771,-1.4496 0,-0.6993 0.159,-1.3278 0.4773,-1.8858 0.3183,-0.5578 0.762,-0.9958 1.3317,-1.3141 0.5698,-0.3183 1.2121,-0.4773 1.927,-0.4773 0.6129,0 1.1511,0.114 1.6146,0.3417 0.4635,0.228 0.8211,0.5502 1.0725,0.9667 0.2514,0.4164 0.3771,0.8994 0.3771,1.4496 0,0.6993 -0.1611,1.3278 -0.483,1.8855 -0.3222,0.558 -0.768,0.9981 -1.3377,1.32 -0.5697,0.3222 -1.212,0.4833 -1.9269,0.4833 z m 0.0942,-1.2612 c 0.4164,0 0.7875,-0.0999 1.1136,-0.3003 0.3261,-0.2004 0.5835,-0.4794 0.7722,-0.837 0.1884,-0.3573 0.2826,-0.7638 0.2826,-1.2198 0,-0.4947 -0.1452,-0.8817 -0.4359,-1.1607 -0.2907,-0.279 -0.6993,-0.4186 -1.2258,-0.4186 -0.4164,0 -0.7875,0.1003 -1.1136,0.3007 -0.3262,0.2004 -0.5836,0.4794 -0.772,0.8367 -0.1887,0.3576 -0.2829,0.7641 -0.2829,1.2198 0,0.495 0.1452,0.882 0.4359,1.161 0.2907,0.279 0.6994,0.4182 1.2259,0.4182 z m 11.5813,-5.1148 -1.2609,6.2935 h -1.4733 l 0.99,-5.0442 h -3.088 l -0.99,5.0442 h -1.473 l 1.2609,-6.2935 z m 8.152,0 h 1.473 l -1.2609,6.2935 h -1.4616 z m -3.795,2.0626 c 0.7227,0 1.269,0.1473 1.6383,0.4419 0.369,0.2946 0.5538,0.7326 0.5538,1.314 0,0.495 -0.1278,0.9291 -0.3831,1.3023 -0.2553,0.3732 -0.6147,0.6621 -1.0782,0.8664 -0.4638,0.2043 -1.002,0.3063 -1.6147,0.3063 h -2.9229 l 1.2609,-6.2701 h 1.4616 l -0.4008,2.0392 z m -0.8839,3.1584 c 0.4792,0 0.8641,-0.1179 1.1548,-0.3534 0.2907,-0.2358 0.4362,-0.5463 0.4362,-0.9312 0,-0.5658 -0.381,-0.8487 -1.1433,-0.8487 h -1.261 l -0.4125,2.1333 z m 12.701,-3.9717 h -2.2392 l -0.99,5.0442 h -1.4734 l 0.9901,-5.0442 h -2.1922 l 0.2475,-1.2493 h 5.9047 z m 9.1654,3.795 h 0.9309 l -0.5304,2.6517 h -1.3788 l 0.2829,-1.4025 h -4.8556 l -0.2829,1.4025 h -1.3671 l 0.5184,-2.6517 h 0.2475 c 0.4008,-0.0159 0.7386,-0.2889 1.0137,-0.8193 0.2749,-0.5301 0.5224,-1.2393 0.7426,-2.127 l 0.495,-2.098 h 5.1855 z m -3.3825,-2.7342 c -0.1806,0.7386 -0.3516,1.3239 -0.5127,1.7559 -0.1611,0.4323 -0.3711,0.7581 -0.6306,0.9783 h 3.0525 l 0.7542,-3.795 h -2.4159 z m 12.1588,-2.3101 -1.2609,6.2935 h -1.4733 l 1.0017,-5.0442 h -2.3571 l -0.3063,1.2492 c -0.2199,0.9036 -0.4458,1.6362 -0.6777,2.1981 -0.2319,0.5616 -0.5067,0.9879 -0.8251,1.2786 -0.3183,0.2907 -0.7011,0.4362 -1.149,0.4362 -0.2436,0 -0.5265,-0.0432 -0.8487,-0.1296 l 0.33,-1.2375 c 0.1101,0.0234 0.2043,0.0354 0.2829,0.0354 0.3849,0 0.6915,-0.2202 0.9192,-0.66 0.228,-0.4401 0.4557,-1.1118 0.6838,-2.0154 l 0.5892,-2.4043 z m 7.1266,0 -1.2492,6.2935 h -1.3083 l 0.3654,-1.9329 h -1.6146 l -1.6384,1.9329 h -1.638 l 1.9446,-2.145 c -0.3693,-0.1491 -0.6483,-0.3633 -0.837,-0.6423 -0.1884,-0.279 -0.2826,-0.6147 -0.2826,-1.0077 0,-0.7779 0.2946,-1.3888 0.8838,-1.8328 0.5892,-0.4437 1.4026,-0.6657 2.4397,-0.6657 z m -3.0525,1.2376 c -0.5421,0 -0.9585,0.1059 -1.2492,0.318 -0.2907,0.2124 -0.4363,0.5187 -0.4363,0.9195 0,0.5814 0.3892,0.8721 1.1671,0.8721 h 1.5909 l 0.4125,-2.1096 z m 10.0261,5.1384 c -0.621,0 -1.1649,-0.1158 -1.6323,-0.3477 -0.4677,-0.2319 -0.8271,-0.5559 -1.0785,-0.9723 -0.2514,-0.4164 -0.3771,-0.8997 -0.3771,-1.4496 0,-0.6993 0.1611,-1.3278 0.4833,-1.8858 0.3219,-0.5578 0.768,-0.9958 1.3374,-1.3141 0.5697,-0.3183 1.2198,-0.4773 1.9506,-0.4773 0.6363,0 1.1844,0.1239 1.644,0.3714 0.4596,0.2475 0.8154,0.6147 1.0668,1.102 l -1.2612,0.648 c -0.2907,-0.5814 -0.8133,-0.8722 -1.5675,-0.8722 -0.4164,0 -0.7875,0.1003 -1.1136,0.3007 -0.3261,0.2004 -0.5835,0.4794 -0.7719,0.8367 -0.1887,0.3576 -0.2829,0.7641 -0.2829,1.2198 0,0.495 0.1452,0.882 0.4359,1.161 0.2907,0.279 0.7032,0.4182 1.2375,0.4182 0.3615,0 0.6876,-0.0726 0.9783,-0.2178 0.2907,-0.1455 0.5382,-0.3636 0.7425,-0.6543 l 1.0842,0.7308 c -0.2907,0.4401 -0.6915,0.7839 -1.2021,1.0314 -0.5106,0.2475 -1.0686,0.3711 -1.6734,0.3711 z m 10.9804,-6.376 -1.2495,6.2935 h -1.4022 l 0.1296,-0.6483 c -0.5502,0.4872 -1.2336,0.7308 -2.0508,0.7308 -0.5184,0 -0.9879,-0.1101 -1.4082,-0.33 -0.4207,-0.2199 -0.7525,-0.5403 -0.9961,-0.9606 -0.2436,-0.4203 -0.3654,-0.9132 -0.3654,-1.479 0,-0.6993 0.1551,-1.3299 0.4656,-1.8915 0.3102,-0.562 0.7348,-1 1.273,-1.3144 0.5382,-0.3141 1.1412,-0.4713 1.809,-0.4713 1.0056,0 1.7208,0.3339 2.145,1.0017 l 0.1767,-0.9309 z m -4.1958,5.1148 c 0.4164,0 0.7878,-0.0999 1.1139,-0.3003 0.3261,-0.2004 0.5832,-0.4794 0.7719,-0.837 0.1884,-0.3573 0.2829,-0.7638 0.2829,-1.2198 0,-0.4947 -0.1455,-0.8817 -0.4362,-1.1607 -0.2907,-0.279 -0.6993,-0.4186 -1.2258,-0.4186 -0.4164,0 -0.7875,0.1003 -1.1136,0.3007 -0.3261,0.2004 -0.5835,0.4794 -0.7719,0.8367 -0.1887,0.3576 -0.2829,0.7641 -0.2829,1.2198 0,0.495 0.1455,0.882 0.4362,1.161 0.2907,0.279 0.699,0.4182 1.2255,0.4182 z m 13.5145,-5.1148 -1.2375,6.2935 h -1.3437 l 0.8133,-4.1367 -2.7696,3.4767 h -0.6366 l -1.4022,-3.5946 -0.8487,4.2546 h -1.3318 l 1.2609,-6.2935 h 1.5205 l 1.4496,3.9364 3.135,-3.9364 z m 3.697,6.376 c -0.6129,0 -1.1493,-0.1158 -1.6089,-0.3477 -0.4596,-0.2319 -0.8151,-0.5559 -1.0665,-0.9723 -0.2514,-0.4164 -0.3772,-0.8997 -0.3772,-1.4496 0,-0.6993 0.1591,-1.3278 0.4774,-1.8858 0.3183,-0.5578 0.762,-0.9958 1.3317,-1.3141 0.5697,-0.3183 1.212,-0.4773 1.9269,-0.4773 0.6129,0 1.1511,0.114 1.6146,0.3417 0.4635,0.228 0.8211,0.5502 1.0725,0.9667 0.2514,0.4164 0.3771,0.8994 0.3771,1.4496 0,0.6993 -0.1611,1.3278 -0.483,1.8855 -0.3222,0.558 -0.768,0.9981 -1.3377,1.32 -0.5697,0.3222 -1.212,0.4833 -1.9269,0.4833 z m 0.0942,-1.2612 c 0.4164,0 0.7875,-0.0999 1.1136,-0.3003 0.3261,-0.2004 0.5835,-0.4794 0.7722,-0.837 0.1884,-0.3573 0.2826,-0.7638 0.2826,-1.2198 0,-0.4947 -0.1452,-0.8817 -0.4359,-1.1607 -0.2907,-0.279 -0.6993,-0.4186 -1.2258,-0.4186 -0.4164,0 -0.7875,0.1003 -1.1136,0.3007 -0.3261,0.2004 -0.5835,0.4794 -0.7719,0.8367 -0.1887,0.3576 -0.2829,0.7641 -0.2829,1.2198 0,0.495 0.1452,0.882 0.4359,1.161 0.2907,0.279 0.6993,0.4182 1.2258,0.4182 z m 10.12,-3.8655 h -3.3708 l -0.99,5.0442 h -1.4731 l 1.261,-6.2935 h 4.8321 z m 2.754,5.1267 c -0.6129,0 -1.1493,-0.1158 -1.6089,-0.3477 -0.4596,-0.2319 -0.8151,-0.5559 -1.0665,-0.9723 -0.2514,-0.4164 -0.3771,-0.8997 -0.3771,-1.4496 0,-0.6993 0.159,-1.3278 0.4773,-1.8858 0.3183,-0.5578 0.762,-0.9958 1.3317,-1.3141 0.5697,-0.3183 1.212,-0.4773 1.927,-0.4773 0.6129,0 1.1511,0.114 1.6146,0.3417 0.4635,0.228 0.8211,0.5502 1.0725,0.9667 0.2514,0.4164 0.3771,0.8994 0.3771,1.4496 0,0.6993 -0.1611,1.3278 -0.483,1.8855 -0.3222,0.558 -0.768,0.9981 -1.3377,1.32 -0.5697,0.3222 -1.212,0.4833 -1.927,0.4833 z m 0.0942,-1.2612 c 0.4165,0 0.7876,-0.0999 1.1137,-0.3003 0.3261,-0.2004 0.5835,-0.4794 0.7722,-0.837 0.1884,-0.3573 0.2826,-0.7638 0.2826,-1.2198 0,-0.4947 -0.1452,-0.8817 -0.4359,-1.1607 -0.2907,-0.279 -0.6993,-0.4186 -1.2258,-0.4186 -0.4165,0 -0.7876,0.1003 -1.1137,0.3007 -0.3261,0.2004 -0.5835,0.4794 -0.7719,0.8367 -0.1887,0.3576 -0.2829,0.7641 -0.2829,1.2198 0,0.495 0.1452,0.882 0.4359,1.161 0.2907,0.279 0.6993,0.4182 1.2258,0.4182 z m 13.7384,-0.0705 h 0.9546 l -0.5421,2.6988 h -1.3791 l 0.2949,-1.4496 h -5.5276 l 1.261,-6.2935 h 1.4616 l -1.002,5.0443 h 3.0054 l 1.0017,-5.0443 h 1.4733 z m 8.4463,-2.3571 c 0,0.3063 -0.0315,0.6048 -0.0942,0.8955 h -4.9971 c 0.0234,1.0293 0.6285,1.5441 1.815,1.5441 0.3615,0 0.6993,-0.057 1.0134,-0.171 0.3144,-0.114 0.5814,-0.273 0.8016,-0.4773 l 0.6126,1.0254 c -0.3219,0.2907 -0.7089,0.5088 -1.1607,0.654 -0.4518,0.1455 -0.9252,0.2181 -1.4202,0.2181 -0.6285,0 -1.1766,-0.114 -1.644,-0.3417 -0.4674,-0.228 -0.8272,-0.552 -1.0786,-0.9723 -0.2514,-0.4203 -0.3771,-0.9057 -0.3771,-1.4556 0,-0.6993 0.1551,-1.3299 0.4656,-1.8915 0.3102,-0.562 0.7426,-1 1.2964,-1.3144 0.5541,-0.3141 1.1766,-0.4713 1.8681,-0.4713 0.8799,0 1.5831,0.2457 2.1096,0.7365 0.5265,0.4911 0.7896,1.165 0.7896,2.0215 z m -2.97,-1.5793 c -0.495,0 -0.9171,0.1336 -1.2669,0.4006 -0.3495,0.2673 -0.5913,0.6327 -0.7248,1.0962 h 3.6063 c 0.008,-0.4716 -0.1356,-0.8388 -0.4302,-1.1019 -0.2946,-0.2634 -0.6894,-0.3949 -1.1844,-0.3949 z m 4.8045,-1.1079 h 1.4617 l -0.507,2.5576 h 3.1704 l 0.5067,-2.5576 h 1.4733 l -1.2492,6.2935 h -1.4733 l 0.495,-2.4867 h -3.1705 l -0.495,2.4867 h -1.473 z m 7.9162,0 h 1.4617 l -0.5071,2.5576 h 3.1705 l 0.5067,-2.5576 h 1.4733 l -1.2492,6.2935 h -1.4733 l 0.495,-2.4867 h -3.1705 l -0.495,2.4867 h -1.473 z m 9.7904,6.376 c -0.6129,0 -1.1494,-0.1158 -1.609,-0.3477 -0.4596,-0.2319 -0.8151,-0.5559 -1.0665,-0.9723 -0.2514,-0.4164 -0.3771,-0.8997 -0.3771,-1.4496 0,-0.6993 0.159,-1.3278 0.4773,-1.8858 0.3183,-0.5578 0.762,-0.9958 1.3317,-1.3141 0.5697,-0.3183 1.2121,-0.4773 1.927,-0.4773 0.6129,0 1.1511,0.114 1.6146,0.3417 0.4635,0.228 0.8211,0.5502 1.0725,0.9667 0.2514,0.4164 0.3771,0.8994 0.3771,1.4496 0,0.6993 -0.1611,1.3278 -0.483,1.8855 -0.3222,0.558 -0.768,0.9981 -1.3377,1.32 -0.5697,0.3222 -1.212,0.4833 -1.9269,0.4833 z m 0.0942,-1.2612 c 0.4164,0 0.7875,-0.0999 1.1136,-0.3003 0.3261,-0.2004 0.5835,-0.4794 0.7722,-0.837 0.1884,-0.3573 0.2826,-0.7638 0.2826,-1.2198 0,-0.4947 -0.1452,-0.8817 -0.4359,-1.1607 -0.2907,-0.279 -0.6993,-0.4186 -1.2258,-0.4186 -0.4164,0 -0.7875,0.1003 -1.1136,0.3007 -0.3262,0.2004 -0.5836,0.4794 -0.772,0.8367 -0.1887,0.3576 -0.2829,0.7641 -0.2829,1.2198 0,0.495 0.1452,0.882 0.4359,1.161 0.2907,0.279 0.6994,0.4182 1.2259,0.4182 z m 10.12,-3.8655 h -3.3709 l -0.99,5.0442 h -1.473 l 1.2609,-6.2935 h 4.8322 z m 2.754,5.1267 c -0.6129,0 -1.1493,-0.1158 -1.6089,-0.3477 -0.4596,-0.2319 -0.8151,-0.5559 -1.0665,-0.9723 -0.2514,-0.4164 -0.3771,-0.8997 -0.3771,-1.4496 0,-0.6993 0.159,-1.3278 0.4773,-1.8858 0.3183,-0.5578 0.762,-0.9958 1.3317,-1.3141 0.5697,-0.3183 1.212,-0.4773 1.9269,-0.4773 0.6129,0 1.1511,0.114 1.6146,0.3417 0.4636,0.228 0.8212,0.5502 1.0726,0.9667 0.2514,0.4164 0.3771,0.8994 0.3771,1.4496 0,0.6993 -0.1611,1.3278 -0.483,1.8855 -0.3222,0.558 -0.7681,0.9981 -1.3378,1.32 -0.5697,0.3222 -1.212,0.4833 -1.9269,0.4833 z m 0.0942,-1.2612 c 0.4164,0 0.7875,-0.0999 1.1136,-0.3003 0.3261,-0.2004 0.5835,-0.4794 0.7722,-0.837 0.1884,-0.3573 0.2826,-0.7638 0.2826,-1.2198 0,-0.4947 -0.1452,-0.8817 -0.4359,-1.1607 -0.2907,-0.279 -0.6993,-0.4186 -1.2258,-0.4186 -0.4164,0 -0.7875,0.1003 -1.1136,0.3007 -0.3261,0.2004 -0.5835,0.4794 -0.7719,0.8367 -0.1887,0.3576 -0.2829,0.7641 -0.2829,1.2198 0,0.495 0.1452,0.882 0.4359,1.161 0.2907,0.279 0.6993,0.4182 1.2258,0.4182 z"
         style="fill:#e3002f;fill-rule:evenodd"
         id="path56" /><path
         d="m 200.3094,335.1287 c 3.323,-1.3078 6.8549,-4.5296 8.0753,-8.0536 -3.9089,2.5515 -8.9748,4.5901 -13.8658,4.9718 -5.9323,0.4631 -13.5273,-0.645 -18.4386,-1.1549 -6.2801,-0.8054 -12.6675,-1.5521 -18.9224,-1.5521 -2.411,0 -4.6961,0.1776 -6.8642,0.5284 -6.5337,1.0564 -11.9672,3.7065 -16.2988,7.9427 -5.0081,5.1874 -7.2274,10.6161 -6.6557,16.2569 0.3557,2.5559 1.2875,4.6091 2.7981,6.1908 1.7845,1.5353 4.0665,2.3098 6.8332,2.3098 6.0256,0 10.3277,-1.7328 12.9397,-5.2152 2.438,-3.1158 3.0552,-6.9217 2.6655,-10.781 -0.1745,-1.8159 -1.1863,-6.015 -2.8665,-7.8481 l 0.0592,1.5667 c 0.41,4.8959 -0.399,9.4281 -2.3814,13.5962 -2.5189,5.047 -6.0508,7.5733 -10.6272,7.5733 -2.5109,-0.0919 -4.4063,-0.7621 -5.7,-2.0089 -1.3966,-1.4293 -2.2025,-3.2236 -2.422,-5.3836 -0.5267,-5.2308 1.4385,-10.052 5.9164,-14.4459 4.3303,-3.9773 9.5827,-6.395 15.7395,-7.2569 1.7112,-0.2417 3.4882,-0.3632 5.3368,-0.3632 6.1816,0.209 12.0967,1.9219 18.1523,3.2187 8.719,2.3986 18.6896,2.9955 26.5266,-0.0919 z"
         style="fill:#e3002f;fill-rule:evenodd"
         id="path58" /><path
         d="m 143.4344,384.5307 c -3.725,2.9036 -7.8574,4.3643 -12.3852,4.3643 -16.1411,-0.4118 -15.8544,-16.3019 3.3106,-16.3019 l 0.5753,-0.1843 -0.2152,-0.1665 -1.3325,-0.3195 c -21.6123,0.4175 -19.34,19.2039 -1.4682,18.4028 25.9063,-1.1659 30.2379,-20.0941 35.3048,-42.0196 1.5229,-5.6129 3.9733,-9.3551 6.1068,-11.224 -17.4679,4.8397 -12.9944,34.2452 -29.8964,47.4487 z"
         style="fill:#e3002f;fill-rule:evenodd"
         id="path60" /><path
         d="m 183.1773,378.6447 c -0.9729,1.2764 -1.9175,2.3271 -2.84,3.1484 -1.6555,1.4731 -3.2311,2.207 -4.7134,2.207 -0.9336,0 -1.7739,-0.433 -2.4906,-1.3074 -0.7188,-0.8761 -1.0882,-2.0699 -1.0882,-3.5819 0,-3.0022 0.8479,-6.3547 2.5361,-10.0629 1.6878,-3.6875 3.6053,-6.4745 5.7561,-8.3607 l 0.0344,-0.0296 c 1.5318,-1.3307 2.9691,-2.001 4.3299,-2.001 1.2185,0 2.1755,0.4193 2.871,1.261 0.7073,0.8523 1.0568,2.2179 1.0568,4.1054 0,4.9909 -1.8159,9.8677 -5.4521,14.6217 z m 12.3083,2.1243 -1.0895,-0.7931 c -1.3807,2.0214 -2.4795,3.3526 -3.3168,4.0007 -0.4471,0.3508 -0.8054,0.5223 -1.0785,0.5223 -0.2602,0 -0.4674,-0.0902 -0.6419,-0.296 -0.2073,-0.262 -0.3151,-0.5797 -0.3151,-0.9305 0,-0.2059 0.0327,-0.4445 0.0968,-0.7282 l 0.6968,-3.0362 6.2142,-22.5802 -5.0611,0.7953 -1.1531,3.7996 c -0.4458,-1.6506 -1.0989,-2.821 -1.9578,-3.5381 -0.8602,-0.7042 -1.9391,-1.0568 -3.2341,-1.0568 -1.3842,0 -2.8184,0.3804 -4.3082,1.135 -0.8527,0.4317 -1.724,0.9848 -2.6125,1.6613 -3.1233,2.3536 -5.7013,5.4927 -7.7372,9.4051 -2.0245,3.9216 -3.0363,7.6515 -3.0363,11.1737 0,2.3536 0.5567,4.2083 1.6865,5.5488 1.1222,1.3423 2.4596,2.0125 4.017,2.0125 1.6101,0 3.2651,-0.5456 4.9379,-1.6259 0.8836,-0.5704 1.7986,-1.3011 2.7446,-2.1945 1.56,-1.4761 3.2063,-3.3976 4.9409,-5.764 l -0.6641,2.4892 c -0.4674,1.7863 -0.7073,3.2187 -0.7073,4.2989 0,0.9102 0.2275,1.6021 0.687,2.0793 0.4551,0.4785 1.1412,0.717 2.0558,0.717 1.3171,0 2.7526,-0.6035 4.3082,-1.8066 1.5464,-1.2172 3.0596,-2.9787 4.5278,-5.2886 z"
         style="fill:#e3002f;fill-rule:evenodd"
         id="path62" /><path
         d="m 222.4417,371.9807 c -0.6968,2.24 -1.4805,4.196 -2.3505,5.8435 -0.8726,1.66 -1.8517,3.1167 -2.9505,4.3781 -0.9291,1.0882 -1.8844,1.9453 -2.8617,2.5674 -0.1683,0.106 -0.3318,0.2055 -0.5001,0.2974 -1.1443,0.6503 -2.2741,0.968 -3.3729,0.968 -2.2321,0 -4.006,-0.8196 -5.3231,-2.4671 l 2.7654,-9.9601 c 1.044,-3.6826 2.6885,-6.903 4.9281,-9.6525 0.5006,-0.6141 0.9976,-1.158 1.5026,-1.6334 1.7518,-1.6617 3.5275,-2.4954 5.3103,-2.4954 1.0334,0 1.9484,0.4674 2.7216,1.409 0.7714,0.9459 1.1642,2.3098 1.1642,4.0837 0,2.1946 -0.3477,4.4218 -1.0334,6.6614 z m 4.4717,-12.7108 c -1.337,-1.5681 -2.9474,-2.3408 -4.8411,-2.3408 -1.8954,0 -3.744,0.5563 -5.563,1.694 -0.706,0.4396 -1.4491,1.0086 -2.2303,1.7049 -1.2313,1.0993 -2.5528,2.5114 -3.9715,4.2522 l 2.198,-7.6511 -10.9386,1.694 v 1.2954 c 1.1112,-0.148 1.9701,-0.2276 2.5917,-0.2276 0.6734,0 1.1753,0.1591 1.5137,0.5002 0.3243,0.3291 0.4895,0.7948 0.4895,1.3984 0,0.4422 -0.2403,1.5804 -0.7294,3.4334 l -7.636,28.8378 c -0.7728,2.8179 -1.5014,4.5357 -2.1888,5.1609 -0.695,0.6265 -2.0245,0.9773 -4.0038,1.0692 l -0.3168,1.2283 h 15.018 l 0.2836,-1.2283 c -1.6338,0 -2.7309,-0.0919 -3.2876,-0.2854 -0.5438,-0.1931 -0.9472,-0.4533 -1.1858,-0.7948 -0.251,-0.3517 -0.3694,-0.7622 -0.3694,-1.25 0,-0.5111 0.2276,-1.6148 0.695,-3.2968 l 1.9034,-8.2586 c 1.021,0.6234 1.9338,1.0568 2.7636,1.295 0.8165,0.2496 1.7518,0.3632 2.8197,0.3632 1.5071,0 2.9549,-0.2214 4.3515,-0.6685 3.289,-1.0551 6.2739,-3.3601 8.9452,-6.9035 3.797,-5.0576 5.7017,-10.0281 5.7017,-14.9036 0,-2.5144 -0.672,-4.5481 -2.0125,-6.1179 z"
         style="fill:#e3002f;fill-rule:evenodd"
         id="path64" /><path
         d="m 262.7196,385.7727 c 1.7735,-1.398 3.2638,-3.1268 4.4841,-5.1623 l -0.9261,-0.6703 c -1.9807,2.9554 -3.482,4.4346 -4.4933,4.4346 -0.6203,0 -0.9261,-0.3649 -0.9261,-1.0692 0,-0.273 0.3058,-1.523 0.9261,-3.7626 l 5.8979,-21.8181 h -5.2011 l -14.8886,23.5448 -1.2733,-24.3414 h -1.3374 l -9.7961,2.0576 -0.4785,1.0692 c 1.219,-0.2854 2.198,-0.4317 2.9381,-0.4317 1.3842,0 2.0686,0.5112 2.0686,1.5336 0,0.8417 -0.8934,4.1615 -2.6872,9.9706 -1.7973,5.8109 -3.136,9.4255 -4.0184,10.8468 -0.8792,1.4231 -1.5773,2.1274 -2.0871,2.1274 -0.3053,0 -0.653,-0.148 -1.0564,-0.4675 -0.8713,-0.6141 -1.5994,-0.9322 -2.1981,-0.9322 -0.6857,0 -1.2747,0.262 -1.7752,0.7855 -0.4989,0.5223 -0.7498,1.1488 -0.7498,1.888 0,1.6599 0.968,2.4887 2.9054,2.4887 1.9361,0 3.7237,-1.158 5.354,-3.4789 1.6427,-2.3191 4.4187,-10.4257 8.3249,-24.3303 l 1.819,27.8092 h 1.4368 l 16.8025,-26.5827 -4.9736,18.2614 c -0.6844,2.5343 -1.0242,4.2628 -1.0242,5.1963 0,2.0921 0.8837,3.125 2.6466,3.125 1.0864,0 2.5126,-0.6932 4.2865,-2.0915 z"
         style="fill:#e3002f;fill-rule:evenodd"
         id="path66" /><path
         d="m 290.7105,379.2231 c -1.5787,2.7994 -3.2262,4.7584 -4.9392,5.8744 -1.1363,0.7388 -2.2975,1.1068 -3.4948,1.1068 -1.5459,0 -2.8303,-0.5691 -3.8527,-1.716 -1.0241,-1.1474 -1.534,-2.7729 -1.534,-4.8786 0,-4.6277 1.3171,-9.2646 3.9375,-13.9374 1.5601,-2.7777 3.2046,-4.7306 4.944,-5.8577 1.1846,-0.77 2.4172,-1.158 3.6875,-1.158 1.523,0 2.776,0.5457 3.7458,1.6476 0.9676,1.1019 1.4461,2.6841 1.4461,4.7412 0,4.7978 -1.3154,9.5284 -3.9402,14.1777 z m -0.4237,-22.2949 c -1.4762,0 -2.9837,0.2664 -4.5155,0.7949 -1.3829,0.4767 -2.7857,1.1642 -4.2132,2.0699 -3.0035,1.9109 -5.4084,4.5031 -7.2039,7.7885 -1.7956,3.2858 -2.6872,6.5606 -2.6872,9.8226 0,3.0923 0.9133,5.6067 2.7539,7.5503 1.8393,1.9449 4.2101,2.9098 7.1279,2.9098 1.3873,0 2.7946,-0.2244 4.2225,-0.6782 1.5022,-0.4749 3.0283,-1.2061 4.5809,-2.1865 3.0141,-1.9109 5.3632,-4.4907 7.0621,-7.7545 1.6864,-3.262 2.525,-6.5602 2.525,-9.8893 0,-3.0941 -0.904,-5.6067 -2.723,-7.5269 -1.8141,-1.9343 -4.1226,-2.9006 -6.9295,-2.9006 z"
         style="fill:#e3002f;fill-rule:evenodd"
         id="path68" /><path
         d="m 330.4441,379.5761 c -2.1884,2.9332 -3.7533,4.4001 -4.69,4.4001 -0.4674,0 -0.6967,-0.2837 -0.6967,-0.8417 0,-0.3521 0.1634,-1.1598 0.5112,-2.4313 l 6.3998,-22.9793 h -4.9082 l -3.6349,13.1549 H 312.434 l 3.7873,-13.9497 h -1.1438 l -9.7948,2.0571 v 1.1019 c 1.3608,-0.1573 2.21,-0.2381 2.5595,-0.2381 1.4244,0 2.1322,0.6013 2.1322,1.8079 0,0.4662 -0.2403,1.5336 -0.7078,3.2293 l -6.1815,22.1831 h 4.8207 l 4.048,-14.5205 h 11.0244 l -1.7519,6.2876 c -0.8059,2.9332 -1.2066,4.9113 -1.2066,5.9354 0,2.0558 0.8244,3.0906 2.4782,3.0906 2.6359,0 5.6505,-2.556 9.0233,-7.6842 z"
         style="fill:#e3002f;fill-rule:evenodd"
         id="path70" /><path
         d="m 347.3898,384.3403 c 2.438,-2.355 5.4631,-6.6287 9.0763,-12.8262 -1.6007,5.5038 -2.5581,9.0857 -2.9071,10.7222 -0.2713,1.2499 -0.4114,2.2396 -0.4114,3.0017 0,0.7732 0.2386,1.4095 0.706,1.9003 0.4675,0.4865 1.1099,0.7264 1.9374,0.7264 1.0878,0 2.21,-0.4211 3.3853,-1.2627 1.7629,-1.3078 3.4807,-3.3526 5.1592,-6.1268 l -0.9491,-0.7622 c -1.7739,2.3877 -2.8727,3.7626 -3.3075,4.1037 -0.4365,0.3539 -0.8262,0.5236 -1.1863,0.5236 -0.2381,0 -0.4237,-0.1012 -0.5655,-0.285 -0.1294,-0.1935 -0.2059,-0.4878 -0.2059,-0.8868 0,-0.7718 0.4114,-2.6359 1.2393,-5.5926 l 5.5489,-19.8524 h -4.8415 l -0.7074,2.5356 c -1.3718,4.8088 -2.6779,8.3341 -3.8951,10.5397 -1.23,2.2069 -2.776,4.5702 -4.659,7.0935 -1.8826,2.525 -3.3839,4.1509 -4.5154,4.8786 -1.1223,0.7405 -2.0355,1.1019 -2.7433,1.1019 -0.4458,0 -0.7949,-0.1233 -1.0661,-0.3866 -0.2603,-0.2492 -0.3911,-0.5907 -0.3911,-1.01 0,-0.7856 0.4131,-2.6386 1.2389,-5.5723 l 2.9929,-10.7562 c 0.8492,-3.0799 1.2734,-5.2276 1.2734,-6.4232 0,-0.8288 -0.2492,-1.5009 -0.7388,-2.0231 -0.5019,-0.5112 -1.1443,-0.7732 -1.936,-0.7732 -1.1439,0 -2.3956,0.4772 -3.7547,1.4324 -1.7862,1.2159 -3.4837,3.1144 -5.0734,5.6956 l 0.9914,0.7276 c 1.5681,-2.1256 2.5794,-3.3649 3.0252,-3.6936 0.4476,-0.3305 0.8916,-0.5006 1.3374,-0.5006 0.2196,0 0.4162,0.0906 0.589,0.2837 0.1855,0.1824 0.273,0.4086 0.273,0.6826 0,0.6035 -0.3384,2.126 -1.0241,4.5918 l -2.7742,10.2905 c -0.9261,3.4463 -1.3936,6.004 -1.3936,7.6639 0,1.0909 0.3367,1.9887 1.0114,2.7057 0.6857,0.7048 1.5137,1.0569 2.4941,1.0569 2.0774,0 4.3409,-1.1708 6.7674,-3.5244 z"
         style="fill:#e3002f;fill-rule:evenodd"
         id="path72" /><path
         d="m 386.4704,370.8103 c -0.7935,0.0451 -1.4806,0.0685 -2.0793,0.0685 -0.3397,0 -0.6684,-0.008 -0.9852,-0.0234 -4.1881,-0.2072 -6.2827,-1.7925 -6.2827,-4.7739 0,-1.7974 0.706,-3.5024 2.1105,-5.1062 0.9756,-1.1222 2.366,-1.8517 4.1722,-2.1945 0.7922,-0.1485 1.6679,-0.2262 2.6173,-0.2262 1.3171,0 2.5374,0.1467 3.6672,0.4316 z m 8.6738,-13.8812 h -10.0126 c -0.5955,0 -1.1721,0.0137 -1.7257,0.0389 -3.8558,0.182 -6.6989,1.002 -8.5259,2.4733 -2.1009,1.671 -3.1453,3.6269 -3.1453,5.8436 0,3.5924 2.3178,5.764 6.9547,6.4917 -1.3171,0.3181 -3.9402,2.9911 -7.8803,8.027 -1.8924,2.4208 -3.3623,4.0135 -4.4284,4.7633 -1.0662,0.7622 -2.1226,1.1815 -3.1887,1.2751 l -0.3163,1.2265 h 7.6183 l 7.6502,-9.2553 c 1.9171,-2.3191 3.2434,-3.7749 3.9839,-4.4001 0.3959,-0.3287 0.8196,-0.5655 1.2778,-0.7215 0.41,-0.1387 0.8483,-0.2103 1.3126,-0.2103 0.2276,0 0.6513,0.034 1.2734,0.1043 l -2.3629,8.8218 -0.2231,0.8152 c -0.3848,1.4638 -0.5717,2.4627 -0.5717,3.0163 0,0.5983 0.1869,1.1611 0.5717,1.6675 l 0.125,0.1511 c 0.4688,0.5346 1.1766,0.8059 2.1119,0.8059 3.1016,0 6.2686,-2.4548 9.5014,-7.3551 l -1.0568,-0.7718 c -2.2741,3.0675 -3.9384,4.6046 -5.0045,4.6046 -0.6005,0 -0.8916,-0.3539 -0.8916,-1.0696 0,-0.285 0.095,-0.7962 0.2819,-1.5349 z"
         style="fill:#e3002f;fill-rule:evenodd"
         id="path74" /><path
         d="m 227.5439,339.1196 -2.3498,10.2913 h -2.1502 l 1.4028,-6.1305 -3.9972,5.0426 h -1.0394 l -1.8663,-5.1162 -1.4193,6.2041 h -2.1496 l 2.364,-10.2913 h 1.8791 l 2.2608,6.4101 5.086,-6.4101 z m 4.3446,1.9115 -0.5073,2.2342 h 4.6271 l -0.4228,1.8526 h -4.6418 l -0.5411,2.3819 h 5.4388 l -0.4534,1.9111 h -7.717 l 2.3641,-10.2913 h 7.5318 l -0.4529,1.9115 z m 14.6885,6.439 h 1.4097 l -0.9439,4.0726 h -2.136 l 0.49,-2.1318 h -7.0336 l -0.4896,2.1318 h -2.1355 l 0.9439,-4.0726 h 0.2989 c 0.6176,-0.0197 1.1684,-0.49 1.6529,-1.411 0.4836,-0.9215 0.9402,-2.1909 1.3685,-3.808 l 0.8392,-3.1315 h 7.6599 z m -4.638,-4.8218 c -0.3296,1.2346 -0.6459,2.2466 -0.9499,3.0355 -0.3035,0.7894 -0.6477,1.3845 -1.0321,1.7863 h 4.3424 l 1.4695,-6.4097 h -3.4026 z m 9.5096,-3.5287 h 2.2777 l -1.5655,6.7041 6.2922,-6.7041 h 2.1927 l -2.3636,10.2913 h -2.2786 l 1.5797,-6.6895 -6.3064,6.6895 h -2.1922 z m 18.7776,8.3505 h 1.4375 l -0.9457,4.1165 h -2.1355 l 0.4772,-2.1757 h -8.286 l 2.364,-10.2913 h 2.2781 l -1.9243,8.3505 h 4.4561 l 1.9102,-8.3505 h 2.2918 z m 4.8854,-8.3505 h 2.2781 l -1.566,6.7041 6.2927,-6.7041 h 2.1922 l -2.3636,10.2913 h -2.2786 l 1.5797,-6.6895 -6.3064,6.6895 h -2.1922 z m 20.8152,0 -2.364,10.2913 h -2.3065 l 0.9622,-4.1901 h -4.5133 l -0.9626,4.1901 h -2.3207 l 2.3641,-10.2913 h 2.3211 l -0.9288,4.0429 h 4.5133 l 0.9288,-4.0429 z m 5.3319,10.4677 c -0.9964,0 -1.8603,-0.186 -2.5926,-0.5586 -0.7313,-0.3725 -1.2844,-0.8968 -1.6583,-1.5732 -0.3748,-0.6761 -0.5457,-1.4554 -0.5137,-2.3376 0.042,-1.1665 0.3382,-2.2173 0.8894,-3.1534 0.5508,-0.9361 1.3059,-1.6734 2.2649,-2.2128 0.9594,-0.5389 2.0459,-0.8086 3.2613,-0.8086 0.8922,0 1.6743,0.1568 2.3462,0.4704 0.6724,0.314 1.1734,0.7647 1.5034,1.3529 l -1.7168,1.4111 c -0.5028,-0.8036 -1.2904,-1.2054 -2.3627,-1.2054 -0.7309,0 -1.3827,0.1765 -1.9554,0.5293 -0.5727,0.3529 -1.0243,0.8329 -1.3544,1.4408 -0.3304,0.6074 -0.5092,1.2839 -0.5357,2.0285 -0.0288,0.794 0.1929,1.4239 0.6646,1.8896 0.4722,0.4653 1.1496,0.698 2.0322,0.698 1.0536,0 1.9509,-0.3968 2.6914,-1.1907 l 1.3145,1.4407 c -1.0298,1.1862 -2.4559,1.779 -4.2783,1.779 z m 12.2975,-5.4252 2.146,5.2488 h -2.477 l -1.6441,-4.1604 h -1.6949 l -0.9612,4.1604 h -2.306 l 2.364,-10.2913 h 2.3065 l -0.9617,4.1608 h 1.5234 l 3.5813,-4.1608 h 2.5912 z m 5.6354,-5.0425 h 2.2781 l -1.566,6.7041 6.2923,-6.7041 h 2.1926 l -2.3636,10.2913 h -2.2785 l 1.5796,-6.6895 -6.3064,6.6895 h -2.1922 z m 11.6891,0 h 2.2781 l -1.5655,6.7041 6.2922,-6.7041 h 2.1922 l -2.3636,10.2913 h -2.2786 l 1.5797,-6.6895 -6.3064,6.6895 h -2.1922 z m 4.7354,-0.6322 c -0.8068,0 -1.411,-0.1545 -1.8128,-0.463 -0.4018,-0.3085 -0.5915,-0.767 -0.5696,-1.3745 0.006,-0.1865 0.0211,-0.3286 0.0435,-0.4264 h 1.4668 c -0.0119,0.0489 -0.0188,0.1174 -0.022,0.2057 -0.01,0.2843 0.0745,0.5073 0.2537,0.6691 0.1792,0.1614 0.4443,0.2423 0.7953,0.2423 0.3703,0 0.6802,-0.0955 0.9288,-0.2866 0.2487,-0.1911 0.4132,-0.4681 0.4928,-0.8305 h 1.4946 c -0.1503,0.7642 -0.4794,1.3328 -0.9864,1.7054 -0.5069,0.3725 -1.2021,0.5585 -2.0847,0.5585 z m 18.0709,8.9827 h 1.438 l -0.9457,4.1165 h -2.1355 l 0.4772,-2.1757 h -8.2861 l 2.3641,-10.2913 h 2.2781 l -1.9244,8.3505 h 4.4562 l 1.9101,-8.3505 h 2.2919 z m 6.7246,-6.439 -0.5078,2.2342 h 4.6271 l -0.4223,1.8526 h -4.6418 l -0.5416,2.3819 h 5.4393 l -0.4539,1.9111 h -7.7165 l 2.3641,-10.2913 h 7.5318 l -0.4534,1.9115 z m 16.8693,-1.9115 -2.3645,10.2913 h -2.3065 l 0.9622,-4.1901 h -4.5133 l -0.9622,4.1901 h -2.321 l 2.3645,-10.2913 h 2.3206 l -0.9288,4.0429 h 4.5133 l 0.9288,-4.0429 z m 9.6683,1.9408 h -3.2179 l -1.8956,8.3505 h -2.2781 l 1.896,-8.3505 h -3.147 l 0.4406,-1.9408 h 8.6421 z m 5.8644,-1.9408 c 1.2433,0 2.194,0.282 2.8522,0.8456 0.6587,0.5636 0.9695,1.3498 0.9334,2.3595 -0.0311,0.8625 -0.2555,1.6148 -0.6724,2.2566 -0.4173,0.6422 -0.9951,1.1345 -1.7333,1.4778 -0.7382,0.3428 -1.6011,0.5142 -2.5885,0.5142 h -2.2209 l -0.6436,2.8376 h -2.3202 l 2.3641,-10.2913 z m -1.039,5.5133 c 0.7688,0 1.3685,-0.1814 1.7996,-0.5439 0.4306,-0.3629 0.6582,-0.8822 0.6824,-1.5587 0.0178,-0.49 -0.128,-0.8574 -0.437,-1.1024 -0.3094,-0.245 -0.7628,-0.3675 -1.3607,-0.3675 h -1.8082 l -0.8265,3.5725 z"
         style="fill:#e3002f;fill-rule:evenodd"
         id="path76" /><path
         d="m 443.7026,323.4387 c -6.2862,2.7012 -11.2278,7.941 -13.536,14.4326 -2.8225,-1.6344 -6.3857,-2.4519 -10.6901,-2.4519 -2.7677,0 -5.3356,0.4717 -7.6952,1.4264 5.9613,-8.3588 15.7326,-13.8079 26.7801,-13.8079 1.7492,0 3.4662,0.1375 5.1412,0.4008 z m 3.0917,50.7498 -1.3666,6.808 h -1.974 l 1.0377,-5.201 h -2.1639 l -0.2909,1.2149 c -0.2449,0.9956 -0.4938,1.7884 -0.7466,2.3789 -0.2531,0.5904 -0.5567,1.0292 -0.9111,1.3161 -0.3546,0.2869 -0.7889,0.4303 -1.3033,0.4303 -0.3121,0 -0.6582,-0.0508 -1.0378,-0.152 l 0.4303,-1.6197 c 0.1519,0.017 0.2531,0.0253 0.3036,0.0253 0.3795,0 0.6812,-0.2024 0.9048,-0.6072 0.2237,-0.4051 0.4365,-1.0293 0.6392,-1.8729 l 0.6579,-2.7207 z m 7.8321,2.8979 c 0,0.3121 -0.038,0.6579 -0.1139,1.0375 h -5.2132 c 0.0674,0.928 0.6536,1.3921 1.7586,1.3921 0.3461,0 0.6772,-0.055 0.9935,-0.1644 0.3164,-0.1097 0.5925,-0.2659 0.8289,-0.4683 l 0.8223,1.3033 c -0.3795,0.3036 -0.8141,0.5315 -1.3034,0.6835 -0.4892,0.1516 -1.0037,0.2276 -1.5437,0.2276 -0.7002,0 -1.3139,-0.1244 -1.8408,-0.3733 -0.5276,-0.2489 -0.9323,-0.6055 -1.215,-1.0693 -0.2826,-0.464 -0.424,-0.9997 -0.424,-1.6072 0,-0.7506 0.1709,-1.4275 0.5128,-2.0307 0.3415,-0.6032 0.8161,-1.0755 1.4235,-1.4174 0.6072,-0.3415 1.2989,-0.5125 2.075,-0.5125 0.6582,0 1.2297,0.1225 1.7147,0.3671 0.485,0.2447 0.8603,0.5947 1.1262,1.0503 0.2656,0.4555 0.3985,0.9827 0.3985,1.5817 z m -3.3278,-1.5182 c -0.4641,0 -0.8564,0.1241 -1.177,0.373 -0.3203,0.2489 -0.5482,0.5927 -0.6831,1.0312 h 3.3786 c 0,-0.4385 -0.1372,-0.7823 -0.4113,-1.0312 -0.2744,-0.2489 -0.6432,-0.373 -1.1072,-0.373 z m 10.3501,0.2401 h -2.3156 l -1.0123,5.1882 h -1.974 l 1.0122,-5.1882 h -2.2776 l 0.3291,-1.6198 h 6.5673 z m -34.1779,-2.8735 c 0,2.1217 -0.6882,3.8177 -2.065,5.1043 -1.3629,1.2861 -3.803,1.9038 -6.2122,1.9038 -13.113,-0.0219 -16.3862,-21.6848 -12.8704,-30.5252 h 6.5497 c 0,-1.709 0.648,-3.102 1.9579,-4.1754 1.3105,-1.0605 2.9506,-1.5908 4.8969,-1.5908 2.1577,0 3.8509,0.5706 5.0822,1.7237 1.2317,1.1531 1.8533,2.7573 1.8533,4.8249 0,2.1472 -0.6352,3.8573 -1.8663,5.1565 -1.2444,1.2866 -3.1635,1.936 -5.7439,1.936 h -5.413 v 7.9407 h 5.3736 c 5.6381,0 8.4572,2.5722 8.4572,7.7015 z m 42.9588,-8.8458 c -3.6082,14.2699 -16.5067,24.8204 -31.8682,24.8204 -3.9034,0 -7.6471,-0.6803 -11.1201,-1.9304 1.9647,-0.6797 3.7063,-1.6483 5.2305,-2.9078 3.3086,-2.7575 4.9623,-6.4167 4.9623,-10.9774 0,-2.8236 -0.701,-5.2753 -2.1169,-7.3429 -1.4162,-2.082 -3.5736,-3.6331 -6.4718,-4.6675 1.2246,-0.5567 2.3239,-1.2379 3.2984,-2.046 4.3348,7.1104 12.1539,11.8559 21.0802,11.8559 6.5911,0 12.5779,-2.5872 17.0056,-6.8043 z m -2.3417,-17.9187 c 0,8.1131 -6.5648,14.6886 -14.6639,14.6886 -8.0992,0 -14.6639,-6.5755 -14.6639,-14.6886 0,-3.0826 0.9482,-5.9428 2.5676,-8.3046 l 12.3525,18.5904 11.8239,-18.6137 c 1.6293,2.3664 2.5838,5.235 2.5838,8.3279 z m -22.6676,-12.3089 c 2.3015,-1.5043 5.0503,-2.3794 8.0037,-2.3794 2.9355,0 5.669,0.8643 7.9619,2.352 l -7.7031,20.904 z"
         style="fill:#e3002f;fill-rule:evenodd"
         id="path78" /></g></g></svg>
