<svg width="140" height="50" viewBox="0 0 140 50" fill="none" xmlns="http://www.w3.org/2000/svg">
<g clip-path="url(#clip0_16005_10)">
<path d="M51.2476 0.378278C51.679 0.251272 52.1402 0.382289 52.573 0.260631C53.2553 0.0921815 53.9689 0.269989 54.6553 0.116246C55.7487 0.0213259 56.8557 0.0146414 57.9491 0.112235C58.5501 0.279347 59.204 0.0560853 59.7846 0.308759C60.0898 0.31678 60.3964 0.324802 60.703 0.340845L60.6732 0.459829C60.9648 0.463839 61.2931 0.388973 61.5454 0.578813C61.6608 0.581486 61.89 0.58416 62.004 0.585497C62.0555 0.617583 62.1573 0.683091 62.2088 0.715176C62.5303 0.724535 62.8315 0.839508 63.1489 0.882289C63.1394 0.913037 63.1191 0.974535 63.1096 1.00528C63.2344 0.995925 63.4827 0.978545 63.6075 0.970524L63.4921 1.13496C63.6224 1.12828 63.8815 1.11491 64.0117 1.10822L63.8991 1.26732C64.0131 1.26197 64.2383 1.25127 64.3522 1.24592C64.3549 1.29405 64.3631 1.39165 64.3658 1.43978C64.4458 1.41036 64.6046 1.35154 64.6846 1.32213L64.5937 1.51464C64.8053 1.46919 64.9749 1.524 65.0997 1.68042C65.1485 1.66571 65.2462 1.6363 65.2951 1.62159L65.3086 1.83282C65.3764 1.81277 65.5121 1.77266 65.5799 1.75261L65.5623 1.95181C65.6328 1.93978 65.7753 1.91571 65.8458 1.90368L65.8485 2.1002L66.0683 2.03603L66.1144 2.21919C66.1741 2.20181 66.2949 2.16571 66.3559 2.14833L66.2135 2.31143C66.3857 2.33951 66.5567 2.37427 66.7276 2.41705L66.6272 2.62026C66.7086 2.60689 66.8714 2.58282 66.9528 2.56945L66.908 2.76999L67.1332 2.67641L67.0546 2.91705L67.2241 2.83149C67.3286 2.94646 67.433 3.06277 67.5361 3.17908L67.6908 3.09753L67.5633 3.32079L67.8088 3.21117L67.7166 3.41972L67.9797 3.3863L67.8292 3.61357L68.1113 3.46117L67.9892 3.63363C68.2009 3.65368 68.3175 3.76732 68.3406 3.97855L68.3827 3.91705C68.5292 4.20983 68.9226 4.39432 68.8561 4.76865L69.0528 4.69111L68.9673 4.92641L69.1464 4.87159C69.1383 4.95047 69.1206 5.10555 69.1125 5.18309L69.3255 5.147C69.2983 5.21384 69.2414 5.34753 69.2129 5.41437C69.2739 5.41972 69.396 5.43309 69.4571 5.43978L69.3811 5.6109C69.4788 5.73924 69.5439 5.88363 69.5764 6.04272C69.7406 6.20716 69.647 6.45448 69.6741 6.65635C69.7067 6.64566 69.7718 6.62561 69.8044 6.61625C69.8356 7.49459 70.0919 8.37828 69.883 9.2593C69.7759 9.61491 69.8179 9.99058 69.7921 10.3556L69.666 10.3261C69.6728 10.5547 69.6714 10.7847 69.6728 11.0146L69.5276 10.9933C69.533 11.1363 69.5439 11.4211 69.5493 11.5641C69.5113 11.5547 69.4326 11.5347 69.3947 11.5253C69.3987 11.7179 69.4015 11.909 69.4028 12.1015L69.2522 12.0614C69.2604 12.1777 69.2753 12.409 69.2834 12.5253L69.1193 12.4465C69.1261 12.5735 69.141 12.8302 69.1478 12.9572L68.985 12.8355C68.9904 12.9638 69.004 13.2192 69.0107 13.3475L68.8466 13.2446C68.8534 13.3596 68.8683 13.5895 68.8751 13.7045L68.7367 13.6644C68.753 13.8582 68.6974 14.0267 68.5699 14.1697C68.5902 14.2259 68.6309 14.3382 68.6499 14.3943L68.4708 14.3248C68.4803 14.5187 68.4247 14.6898 68.3013 14.8368C68.3162 14.885 68.3474 14.9839 68.3623 15.032L68.133 15.0293C68.1615 15.1096 68.2185 15.2687 68.2456 15.3475L68.0639 15.262C68.0516 15.5026 67.9607 15.7272 67.8875 15.9531L67.7342 15.9692C67.7532 16.032 67.7925 16.1604 67.8115 16.2232L67.5985 16.2299C67.6189 16.2994 67.6596 16.4371 67.6799 16.5066L67.4534 16.4999C67.4792 16.5708 67.5307 16.7138 67.5565 16.786L67.3326 16.7513C67.3516 16.8315 67.3883 16.9933 67.4073 17.0748L67.2078 16.9959C67.2201 17.0802 67.2445 17.2473 67.258 17.3315L67.0437 17.2941C67.0681 17.3636 67.1183 17.5013 67.1441 17.5695L66.9202 17.5628C66.9392 17.6296 66.9772 17.7646 66.9962 17.8328L66.7914 17.8261C66.8063 17.889 66.8361 18.0173 66.8497 18.0815L66.6476 18.1069L66.7127 18.3088C66.6625 18.3288 66.5635 18.3676 66.5133 18.3876L66.6069 18.5935L66.3546 18.4812C66.3857 18.5628 66.4495 18.7245 66.4821 18.8048L66.2338 18.762C66.2596 18.8382 66.3098 18.9879 66.3356 19.0641L66.1782 19.008C66.1239 19.1002 66.0168 19.2834 65.9639 19.3743L66.0941 19.5387L65.8133 19.4224C65.8458 19.5066 65.9109 19.6737 65.9435 19.758L65.7712 19.6751C65.7237 19.9625 65.5311 20.1938 65.4361 20.4638L65.3547 20.3154C65.3195 20.4906 65.2815 20.6644 65.2421 20.8382L65.0834 20.7366C65.0902 21.0187 64.8921 21.2232 64.7728 21.4585C64.6914 21.5735 64.5937 21.6724 64.4784 21.7553L64.591 21.9398L64.3834 21.8235C64.378 21.889 64.3658 22.0187 64.3604 22.0842L64.1854 22.1697L64.2695 22.2205C64.2152 22.2981 64.1094 22.4531 64.0551 22.5307L63.9195 22.5013L64.0307 22.7392L63.8001 22.6216C63.8177 22.6965 63.8544 22.8475 63.872 22.9224L63.716 22.881C63.7173 23.0828 63.6007 23.2406 63.4406 23.3529C63.3782 23.4839 63.3022 23.6056 63.2127 23.7205C63.1123 23.8489 63.0797 24.0975 62.8383 24.0213C62.8627 24.0775 62.9115 24.1898 62.9359 24.2459L62.7908 24.2312C62.6199 24.6363 62.2604 24.9264 62.0772 25.3261C62.2197 25.3261 62.5059 25.3275 62.6497 25.3275L62.5819 25.1711C62.6999 25.1777 62.9373 25.1938 63.0553 25.2018L63.0133 25.0534C63.1082 25.0507 63.2968 25.0467 63.3918 25.0441C63.6129 24.881 63.8923 24.9224 64.1528 24.9144L64.0782 24.778C64.2518 24.782 64.4255 24.7834 64.6005 24.7847C64.7321 24.6162 64.9573 24.6644 65.1431 24.6283C65.3263 24.4892 65.5637 24.5267 65.778 24.5093L65.7115 24.3729C65.8309 24.3783 66.0697 24.3903 66.189 24.3957L66.1009 24.2379C66.2257 24.2446 66.4753 24.2553 66.6001 24.262L66.4834 24.0534C66.5702 24.0815 66.7425 24.1363 66.828 24.1644L66.8063 23.9384C66.8795 23.9612 67.0261 24.0053 67.1007 24.028L67.0857 23.8088C67.1563 23.8302 67.3001 23.8716 67.372 23.893L67.3557 23.6751C67.429 23.6965 67.5741 23.7392 67.6474 23.7606L67.6148 23.5374C67.6908 23.5601 67.8441 23.6056 67.9201 23.6283L67.8766 23.3876C67.958 23.4184 68.1222 23.4812 68.2036 23.512L68.0896 23.2673L68.2972 23.3556C68.3175 23.3061 68.3582 23.2072 68.3799 23.1577L68.5807 23.2259L68.6051 23.0213C68.6811 23.0387 68.8303 23.0721 68.9063 23.0895L68.7815 22.913C68.8764 22.917 69.065 22.9237 69.16 22.9264L69.0867 22.7219C69.1735 22.7513 69.3485 22.8114 69.4354 22.8408L69.3106 22.6697C69.4788 22.6149 69.647 22.5588 69.8166 22.5013C69.8274 22.4638 69.8505 22.3903 69.8613 22.3529L70.0119 22.405C70.1801 22.2486 70.385 22.1122 70.6237 22.0975C70.6346 22.0721 70.6563 22.0227 70.6671 21.9973C70.8815 21.9211 71.0972 21.8355 71.3292 21.8315L71.2613 21.6483C71.3373 21.6764 71.4906 21.7339 71.5666 21.762L71.5611 21.6015C71.7931 21.5374 72.021 21.4545 72.2638 21.4318L72.253 21.2967C72.3629 21.3034 72.584 21.3181 72.6939 21.3248L72.6166 21.1617C72.7386 21.1684 72.9855 21.1818 73.109 21.1884L73.0181 21.0253C73.1388 21.0334 73.3803 21.0494 73.5024 21.0588C73.4902 21.028 73.4644 20.9665 73.4522 20.9358C73.7846 20.8863 74.102 20.7566 74.4439 20.77C74.4371 20.7366 74.4263 20.6684 74.4195 20.635C74.5429 20.6363 74.7885 20.639 74.9106 20.639C75.114 20.4384 75.4138 20.5253 75.6689 20.508C75.6594 20.4732 75.6404 20.405 75.6309 20.3703C75.8683 20.3716 76.1057 20.3756 76.3445 20.381L76.3133 20.2553C76.8993 20.2874 77.4542 20.0761 78.0388 20.0775C78.5978 19.8836 79.2028 20.0521 79.7644 19.8676C80.4861 19.79 81.216 19.885 81.9377 19.79C82.4654 19.9037 83.0555 19.7125 83.5452 19.9465C83.7976 19.9531 83.9644 20.143 84.1299 20.3061C84.077 20.2834 83.9726 20.2392 83.9197 20.2165C83.9495 20.4491 83.8274 20.6497 83.7514 20.8596L83.5737 20.7473C83.6076 20.8248 83.6741 20.9812 83.7067 21.0601L83.4855 21.0213C83.4964 21.0882 83.5167 21.2205 83.5276 21.286L83.3255 21.3235L83.4381 21.536L83.1803 21.4224C83.2115 21.5066 83.2739 21.6764 83.3065 21.762L83.1328 21.6804C83.0908 21.9678 82.9076 22.2031 82.7991 22.4652L82.6282 22.3502C82.6621 22.4344 82.7299 22.6029 82.7638 22.6871L82.597 22.6109C82.5509 22.7045 82.46 22.8916 82.4138 22.9852L82.4627 23.1457L82.2158 23.028C82.2524 23.1082 82.3243 23.2687 82.3609 23.3475L82.1045 23.3101C82.1317 23.385 82.1832 23.536 82.209 23.6109L82.0421 23.5534C82.0272 23.6256 81.9947 23.7687 81.9784 23.8408L81.8047 23.9023L81.9228 24.032C81.8699 24.0601 81.764 24.1149 81.7111 24.1416L81.7952 24.3435L81.5497 24.2285C81.5823 24.3128 81.6447 24.4812 81.6772 24.5641L81.4276 24.508C81.4534 24.5882 81.5063 24.7486 81.5321 24.8302L81.2919 24.7753C81.3204 24.8636 81.3788 25.04 81.4073 25.1296L81.2187 25.0093C81.254 25.2232 81.1943 25.3943 81.0423 25.524C81.0654 25.5855 81.1129 25.7098 81.1373 25.7727L80.9284 25.6858C80.9297 25.8729 80.9311 26.0614 80.9325 26.2499L80.7927 26.2352C80.7656 26.6925 80.8212 27.1416 80.9352 27.5842C81.1332 27.5989 81.2336 27.7138 81.2336 27.9291C81.2865 27.8943 81.3937 27.8235 81.448 27.7874L81.4235 27.9959C81.8319 28.008 82.2429 28.0173 82.6526 27.9866C82.7842 27.8569 82.9524 27.8114 83.1545 27.8515L83.0053 27.7419C83.1762 27.7259 83.3214 27.6537 83.4421 27.528C83.4964 27.5053 83.6036 27.4585 83.6578 27.4344C83.8193 27.2687 84.0051 27.1256 84.2045 27.0053C84.309 26.8676 84.4447 26.7981 84.6129 26.7967L84.503 26.5908L84.697 26.7098C84.6766 26.5066 84.853 26.3863 84.9764 26.2593C85.3292 25.913 85.7076 25.5855 86.0088 25.1924L86.1214 25.2112L86.0468 25.0267L86.173 25.0855C86.2055 24.8823 86.3208 24.7834 86.5202 24.7887L86.409 24.5989L86.6532 24.7192L86.5392 24.4545L86.7794 24.6109L86.6708 24.3342L86.9137 24.4705L86.8241 24.2072L87.0507 24.3061L86.9693 24.0414L87.1361 24.1925C87.1253 24.0039 87.2135 23.8836 87.402 23.8288C87.4658 23.7753 87.5906 23.6711 87.6544 23.6176L87.535 23.8903L87.7357 23.8475C87.6367 24.3368 87.5553 24.8275 87.5648 25.3275L87.4387 25.2967C87.4522 25.7927 87.4468 26.29 87.4332 26.786C87.6204 26.7834 87.7168 26.9545 87.8416 27.0614C88.1481 27.0588 88.4547 27.0561 88.7613 27.0481C88.9417 26.9264 89.1561 26.9157 89.3691 26.9157L89.3433 26.7847C89.4545 26.7887 89.6757 26.7967 89.7869 26.8007L89.7204 26.6029C89.7964 26.6283 89.9483 26.6804 90.0243 26.7072L90.0053 26.4678C90.0826 26.4973 90.2373 26.5574 90.3146 26.5882L90.2007 26.3382L90.3743 26.4384C90.4842 26.2593 90.6388 26.1216 90.8613 26.1042L90.8518 25.9384C90.9047 25.9652 91.0106 26.0213 91.0635 26.0481C91.0621 25.8342 91.1774 25.7152 91.4094 25.6898L91.3538 25.663C91.6576 25.4705 91.8706 25.1577 92.2138 25.0227L92.165 24.9986C92.4716 24.8328 92.6371 24.4759 92.979 24.3729C92.9817 24.2205 93.0671 24.1296 93.2354 24.1002C93.2733 23.9679 93.3575 23.8756 93.4877 23.8235C93.5609 23.6804 93.6776 23.5895 93.8404 23.5494L93.7631 23.4184L93.9598 23.5173L93.9028 23.3128L94.1104 23.3622L94.0317 23.1804L94.227 23.2419L94.189 23.0534L94.3735 23.0895L94.3328 22.9104L94.516 22.9505L94.4712 22.7687L94.6123 22.8275L94.6394 22.6724L94.7968 22.6457L94.7357 22.5053L94.9216 22.5574L94.8728 22.3756L95.0559 22.4211L95.0111 22.2392L95.1943 22.2847L95.1468 22.1029L95.2838 22.155L95.3272 22.0106L95.4751 21.9665L95.4222 21.8301L95.6067 21.8756L95.57 21.6858L95.7559 21.7446L95.6867 21.5374L95.9051 21.6082L95.8047 21.4077L96.0042 21.5093L95.9336 21.2954L96.152 21.3729L96.0394 21.151L96.2728 21.2566L96.1792 21.0146L96.3935 21.135L96.3243 20.8943L96.5454 20.9732L96.4654 20.7553L96.6852 20.8181L96.6214 20.5895L96.8615 20.7125L96.7164 20.4812L96.9578 20.5494L96.8846 20.3061L97.0582 20.4424C97.0257 20.2459 97.1071 20.1296 97.3011 20.0908C97.335 19.9424 97.4259 19.8529 97.5764 19.8221C97.6171 19.6604 97.727 19.5668 97.9088 19.5427L97.8681 19.5039C98.0567 19.3743 98.2276 19.2138 98.4514 19.1376L98.4243 18.9946C98.4867 19.0173 98.6088 19.0628 98.6712 19.0868C98.659 18.8957 98.7553 18.7793 98.9602 18.7366C99.2735 18.536 99.5611 18.2419 99.9559 18.2179L99.8392 18.0601L100.063 18.1216L100.116 17.9505C100.172 17.9638 100.286 17.9879 100.341 18.0013L100.336 17.8088C100.409 17.8235 100.553 17.8515 100.625 17.8649L100.579 17.6497C100.655 17.6751 100.806 17.7245 100.882 17.7499L100.84 17.5133C100.919 17.5387 101.076 17.5895 101.155 17.6149L101.112 17.3796C101.19 17.405 101.348 17.4558 101.426 17.4812L101.382 17.2473C101.459 17.2713 101.616 17.3208 101.695 17.3449L101.667 17.1082C101.738 17.135 101.882 17.1911 101.954 17.2178V17.0213C102.068 17.0267 102.297 17.0387 102.411 17.0441L102.296 16.8943C102.883 16.8689 103.512 16.4585 104.065 16.8382C104.203 17.1002 104.107 17.4277 104.136 17.7165L104.005 17.6697C104.047 17.8863 103.988 18.0534 103.824 18.1711C103.848 18.2219 103.895 18.3235 103.92 18.3743L103.681 18.3662C103.703 18.4384 103.748 18.5842 103.769 18.6564L103.541 18.6323C103.564 18.7045 103.613 18.8475 103.636 18.9184L103.482 18.8823C103.434 18.9732 103.338 19.1564 103.29 19.2473L103.388 19.401L103.121 19.286C103.152 19.3703 103.217 19.5387 103.25 19.6243L103.075 19.54C103.03 19.8195 102.868 20.0574 102.752 20.3101L102.642 20.2165C102.664 20.5146 102.414 20.7285 102.346 21.0039L102.253 20.8622C102.27 21.2753 101.869 21.512 101.776 21.8903L101.616 21.8422L101.729 22.0654C101.688 22.0775 101.606 22.0989 101.565 22.1096C101.528 22.27 101.464 22.4197 101.375 22.5574C101.326 22.6657 101.284 22.7767 101.247 22.889L101.104 22.9304C101.129 23.0066 101.184 23.1577 101.209 23.2326L101 23.143C101.007 23.2847 101.019 23.5668 101.025 23.7085C100.986 23.7072 100.904 23.7031 100.865 23.7005C100.874 23.9264 100.877 24.1523 100.873 24.3796C100.969 24.5654 101.075 24.7593 101.277 24.8569L101.216 24.9264C101.565 24.9157 101.916 24.9157 102.268 24.9237L102.205 24.7727C102.323 24.7793 102.562 24.7914 102.68 24.7967L102.588 24.5895C102.669 24.6176 102.831 24.6737 102.911 24.7031L102.893 24.4785C102.968 24.4986 103.117 24.5387 103.191 24.5601L103.159 24.3195C103.237 24.3542 103.396 24.4224 103.475 24.4572L103.36 24.2178L103.59 24.286L103.616 24.0922C103.682 24.1082 103.818 24.1403 103.886 24.1564L103.813 23.9371C103.977 23.8983 104.144 23.8649 104.312 23.8355L104.171 23.6523L104.467 23.7459L104.321 23.5414L104.53 23.6229L104.578 23.4077C104.625 23.4331 104.719 23.4826 104.765 23.508C104.746 23.2192 105.013 23.1283 105.229 23.024L105.205 22.9826C105.37 22.8636 105.51 22.6965 105.716 22.6403C105.905 22.2098 106.379 21.9866 106.626 21.5882L106.75 21.5855L106.683 21.4023L106.877 21.4959L106.788 21.2834L106.926 21.3475C106.95 21.1724 107.043 21.0668 107.201 21.028C107.36 20.7018 107.676 20.4919 107.918 20.2272L107.933 20.1149L108.025 20.1109C108.059 19.905 108.177 19.8181 108.379 19.8489L108.232 19.6617L108.435 19.7526C108.508 19.3515 108.932 19.151 109.182 18.8622L109.124 18.7259L109.32 18.8235L109.23 18.6122L109.368 18.667C109.407 18.4424 109.533 18.3502 109.749 18.3916L109.589 18.2272L109.833 18.2727L109.797 18.02L109.958 18.2058C109.915 18.0146 109.985 17.8783 110.17 17.8007C110.247 17.6724 110.361 17.5868 110.509 17.5427L110.453 17.4224L110.636 17.4852L110.63 17.3836C110.853 17.2245 111.016 16.9705 111.289 16.885C111.317 16.7419 111.41 16.6497 111.566 16.6082C111.754 16.4558 111.916 16.2539 112.167 16.1938L112.118 16.0588C112.183 16.0788 112.31 16.1176 112.375 16.1376C112.332 15.8195 112.749 15.7459 112.978 15.6777L112.96 15.5293C113.009 15.5414 113.108 15.5681 113.157 15.5815C113.29 15.3569 113.565 15.4157 113.781 15.4318C114.006 15.6457 113.926 16.0334 113.771 16.2727C113.77 16.3743 113.77 16.5761 113.769 16.6764L113.615 16.5908C113.622 16.7112 113.634 16.9491 113.641 17.0681L113.508 17.0013C113.488 17.2459 113.402 17.4759 113.337 17.7098L113.172 17.7058C113.198 17.778 113.249 17.9224 113.275 17.9946L113.035 17.9638C113.063 18.0454 113.12 18.2072 113.149 18.2874L112.957 18.2072C112.968 18.4184 112.888 18.6149 112.795 18.7994C112.674 18.9839 112.54 19.1751 112.525 19.3997L112.342 19.274C112.374 19.3609 112.438 19.532 112.47 19.6176L112.221 19.5614C112.248 19.6416 112.301 19.8021 112.328 19.8823L112.087 19.8288C112.111 19.9064 112.162 20.0614 112.187 20.139L111.948 20.1015C111.978 20.1844 112.036 20.3489 112.065 20.4318L111.878 20.3368C111.894 20.516 111.855 20.6777 111.758 20.8221C111.673 21.0922 111.621 21.3796 111.468 21.6216C111.43 22.1149 111.42 22.6069 111.457 23.1002L111.64 23.0628C111.616 23.135 111.567 23.2807 111.543 23.3542L111.791 23.2941C111.8 23.3302 111.818 23.4023 111.827 23.4384C112.31 23.7072 112.864 23.5561 113.366 23.4344C113.371 23.393 113.383 23.3114 113.39 23.27L113.56 23.3556L113.676 23.2058C113.742 23.1991 113.872 23.1858 113.937 23.1791L113.838 23.0949C114.047 22.9852 114.235 22.8355 114.466 22.762L114.402 22.7165C114.583 22.6002 114.74 22.4398 114.95 22.3703C114.965 22.1938 115.071 22.1015 115.266 22.0935L115.204 21.9465L115.424 21.9986L115.35 21.8074L115.568 21.8823L115.49 21.6697L115.688 21.762L115.612 21.5574L115.817 21.6243L115.752 21.4224L115.958 21.4946L115.869 21.3034L116.086 21.3676L116 21.1564L116.215 21.2366L116.141 21.0173L116.356 21.0895L116.284 20.8408L116.441 20.9772C116.43 20.7259 116.544 20.6162 116.784 20.651L116.645 20.4384L116.848 20.5601C116.845 20.278 117.107 20.1336 117.286 19.9598L117.271 19.8208L117.385 19.8703C117.49 19.532 117.821 19.3408 118.015 19.0561L118.049 19.0721C118.076 18.897 118.169 18.7941 118.327 18.7593C118.43 18.5708 118.56 18.397 118.684 18.2192L118.727 18.2914C118.814 17.9933 119.085 17.8047 119.238 17.5441L119.271 17.635C119.339 17.3261 119.629 17.1443 119.78 16.8769L119.815 16.9625C119.989 16.532 120.382 16.1697 120.786 15.9465C120.809 15.766 120.929 15.6737 121.146 15.667L121.021 15.635C121.286 15.4785 121.509 15.2633 121.779 15.1136C121.831 15.0681 121.934 14.9785 121.986 14.9344C122.23 14.8007 122.46 14.6256 122.749 14.5962L122.669 14.4304C122.749 14.4572 122.908 14.5133 122.988 14.5414L122.973 14.2994C123.041 14.3275 123.175 14.3836 123.243 14.4117C123.249 14.3703 123.258 14.2874 123.263 14.2459C123.631 14.2045 124.004 14.0293 124.361 14.2205C124.364 14.6323 124.35 15.0467 124.186 15.4318H124.029C124.05 15.4986 124.094 15.6323 124.117 15.6978L123.969 15.6751C123.919 15.766 123.82 15.9491 123.769 16.04L123.881 16.1965L123.607 16.0761C123.637 16.1564 123.695 16.3168 123.723 16.397L123.481 16.3582C123.506 16.4344 123.561 16.5868 123.586 16.663L123.381 16.6002C123.387 16.6858 123.396 16.8556 123.4 16.9398L123.202 16.8863C123.227 16.9505 123.276 17.0815 123.299 17.1457L123.075 17.1777L123.158 17.3903C123.103 17.4064 122.995 17.4384 122.941 17.4545L123.022 17.651C122.968 17.6697 122.859 17.7058 122.805 17.7245L122.89 17.9344C122.836 17.9451 122.728 17.9692 122.675 17.9799C122.695 18.0414 122.734 18.1644 122.755 18.2245L122.534 18.2433C122.559 18.3154 122.612 18.4598 122.638 18.5334L122.466 18.4759C122.432 18.7138 122.353 18.9411 122.295 19.1724C122.268 19.167 122.212 19.1577 122.184 19.1523C122.204 19.3315 122.158 19.4879 122.041 19.6216C122.041 19.7072 122.041 19.881 122.041 19.9665L121.907 19.9491C121.927 20.2486 121.834 20.5334 121.77 20.8221C121.703 21.1523 121.9 21.4478 121.914 21.7713L122 21.6951C122.35 22.036 122.87 21.8114 123.297 21.8368L123.24 21.6537C123.295 21.6751 123.405 21.7179 123.459 21.7392C123.627 21.5935 123.824 21.4933 124.031 21.409C124.115 21.3783 124.284 21.3181 124.368 21.2874L124.326 21.1336C124.404 21.1564 124.56 21.2018 124.639 21.2245L124.514 20.9598L124.696 21.1015C124.798 20.9077 124.95 20.7553 125.19 20.7593L125.167 20.5922C125.221 20.6176 125.33 20.6697 125.384 20.6951C125.37 20.4358 125.632 20.3596 125.796 20.2219C125.83 20.2406 125.897 20.2767 125.931 20.2954C125.922 20.1096 126.015 19.9999 126.206 19.9692C126.424 19.7834 126.61 19.5481 126.884 19.4358C127.166 19.2072 127.382 18.8769 127.74 18.7526L127.689 18.6443L127.827 18.6617C128.096 18.4211 128.307 18.1015 128.646 17.9465C128.691 17.7834 128.808 17.6871 128.998 17.6564L128.888 17.4999L129.137 17.6243L129.018 17.401L129.249 17.508L129.155 17.3047L129.294 17.3556C130.129 16.5187 130.976 15.6884 131.825 14.8636L131.799 14.7446L131.985 14.778L131.921 14.5828L132.138 14.663L132.012 14.4491L132.252 14.5614L132.13 14.3355L132.358 14.4237L132.279 14.1991L132.496 14.2727L132.427 14.0187L132.595 14.1697C132.562 13.9505 132.647 13.8342 132.852 13.8208C132.962 13.4892 133.309 13.3195 133.488 13.028L133.606 13.0454L133.503 12.8368L133.65 12.9398C133.781 12.5227 134.226 12.3235 134.431 11.9478L134.461 11.9986C134.594 11.6657 134.898 11.4518 135.111 11.1711L135.146 11.1818C135.245 10.913 135.477 10.7285 135.652 10.5093L135.684 10.512C135.897 10.1176 136.216 9.79138 136.483 9.43176C136.563 9.29539 136.654 9.16438 136.755 9.03871C136.886 8.83951 137.015 8.63897 137.118 8.4224L137.183 8.5494C137.204 8.37427 137.268 8.21518 137.375 8.07213C137.411 7.99192 137.482 7.83015 137.518 7.74994L137.68 7.86491C137.649 7.78202 137.584 7.61758 137.551 7.53603L137.797 7.57213C137.768 7.4879 137.711 7.31945 137.683 7.23523L137.87 7.33951C137.851 7.16036 137.89 6.99726 137.991 6.85288C138.087 6.54405 138.147 6.22186 138.282 5.92641C138.288 5.60689 138.286 5.28871 138.296 4.97052L138.14 5.00929C138.148 4.897 138.163 4.67373 138.17 4.56277L137.977 4.65502C137.951 4.56812 137.9 4.39298 137.875 4.30609L137.711 4.36224L137.816 4.2379C137.645 4.19512 137.485 4.13095 137.334 4.04539L137.392 3.96651C137.006 3.89699 136.611 3.83951 136.245 3.69913C135.458 3.59085 134.704 3.89432 133.921 3.81945L133.967 3.95047C133.727 3.95448 133.485 3.95716 133.249 3.95448L133.264 4.0748C132.88 4.04272 132.54 4.25528 132.16 4.23657L132.226 4.34753C132.013 4.35288 131.803 4.35689 131.593 4.35822L131.711 4.50929C131.583 4.50127 131.327 4.48657 131.2 4.47855L131.266 4.64165C131.148 4.63363 130.915 4.61758 130.798 4.60956C130.813 4.65101 130.844 4.73122 130.86 4.77133C130.737 4.76598 130.49 4.75528 130.367 4.75127L130.476 4.90368C130.35 4.89833 130.097 4.88897 129.969 4.88496L130.078 5.08817C130.011 5.06812 129.881 5.02667 129.814 5.00662C129.675 5.14298 129.505 5.19913 129.304 5.17507L129.363 5.35288C129.308 5.33282 129.2 5.29405 129.146 5.274C128.998 5.40101 128.824 5.45716 128.625 5.44379L128.702 5.62694C128.626 5.59753 128.477 5.54138 128.401 5.51197C128.395 5.55475 128.385 5.64165 128.379 5.68443C128.144 5.75127 127.914 5.82881 127.671 5.84619L127.78 6.02801C127.693 5.9986 127.518 5.94245 127.431 5.91437L127.472 6.14833C127.393 6.12293 127.238 6.07347 127.161 6.0494L127.191 6.27935C127.116 6.25528 126.966 6.20716 126.891 6.18309L126.914 6.40903C126.841 6.3863 126.693 6.34085 126.618 6.31812L126.644 6.54272C126.569 6.51999 126.419 6.47453 126.344 6.45181L126.382 6.68175C126.305 6.65635 126.15 6.60822 126.073 6.58416L126.115 6.82347C126.032 6.79405 125.867 6.73256 125.784 6.70314L125.901 6.93042C125.844 6.91571 125.73 6.88496 125.673 6.87026L125.616 7.05208L125.406 6.99325L125.387 7.18577C125.316 7.17373 125.178 7.14967 125.107 7.13764L125.163 7.36224C125.083 7.33015 124.925 7.26598 124.847 7.23523L124.961 7.51331L124.805 7.39432C124.712 7.44379 124.526 7.54272 124.434 7.59218L124.514 7.68175C123.923 7.88095 123.546 8.42373 122.969 8.65769C122.975 8.7486 122.984 8.92908 122.989 9.01865C123.272 9.02801 123.555 9.01197 123.841 9.01063L123.772 8.88363C123.962 8.88095 124.152 8.87694 124.346 8.8756C124.346 8.94646 124.345 9.08683 124.345 9.15769C124.171 9.33149 123.996 9.51598 123.757 9.6002L123.845 9.73657L123.641 9.64432L123.662 9.75796C123.299 9.9732 123.091 10.3997 122.676 10.5253L122.749 10.6443L122.599 10.6122C122.376 10.8342 122.178 11.1216 121.854 11.1965L121.931 11.3101L121.802 11.3154C121.731 11.3462 121.584 11.4077 121.511 11.4384C121.493 11.6777 121.264 11.7673 121.082 11.8703C120.599 12.2205 120.138 12.7058 119.529 12.8021L119.647 12.9184C119.469 12.9211 119.293 12.9251 119.116 12.9304C119.153 12.7299 119.183 12.5253 119.286 12.3435C119.29 12.1791 119.297 12.016 119.304 11.8515L119.447 11.8609C119.441 11.7553 119.428 11.5414 119.422 11.4358L119.556 11.4612C119.565 11.2272 119.662 11.0146 119.728 10.7927C119.751 10.79 119.799 10.782 119.822 10.778C119.871 10.6096 119.929 10.4438 119.997 10.2807L120.141 10.2473C120.119 10.1871 120.075 10.0681 120.054 10.008L120.227 10.1457C120.286 9.80876 120.454 9.30609 120.85 9.2593C120.822 9.20716 120.766 9.1002 120.737 9.04807L120.885 9.05341C121.02 8.70849 121.359 8.50796 121.554 8.20047L121.69 8.2379L121.558 8.03202L121.8 8.15368L121.686 7.92774L121.874 7.98657C121.897 7.90903 121.943 7.75528 121.967 7.67908C122.056 7.96117 122.041 8.25662 122.038 8.54806L122.249 8.41036L122.094 8.60555C122.333 8.62026 122.588 8.73256 122.818 8.60956C122.996 8.47186 123.125 8.25929 123.357 8.19379C123.407 7.90635 123.684 7.72186 123.954 7.65234L123.913 7.61357C124.153 7.44111 124.358 7.21518 124.636 7.09619L124.617 6.94913C124.674 6.97721 124.787 7.03603 124.844 7.06544C124.837 6.85421 124.948 6.73256 125.176 6.70181L125.175 6.54405C125.232 6.57881 125.344 6.64967 125.401 6.68443C125.418 6.61892 125.452 6.48924 125.468 6.42507C126.025 6.14967 126.464 5.61357 127.093 5.51197L126.993 5.35555C127.162 5.31678 127.333 5.28068 127.507 5.24726L127.405 5.06678C127.492 5.09753 127.666 5.1617 127.752 5.19245L127.634 4.91705L127.8 5.04806C127.893 4.99459 128.078 4.88764 128.172 4.83416L128.121 4.68042C128.196 4.70582 128.345 4.75662 128.42 4.78202L128.383 4.5494C128.462 4.57347 128.619 4.62159 128.698 4.64699L128.64 4.40635C128.721 4.43443 128.885 4.48924 128.968 4.51598L128.908 4.27266C128.991 4.30074 129.158 4.35555 129.241 4.38229L129.177 4.13897C129.26 4.16571 129.428 4.22052 129.512 4.2486L129.447 4.00528C129.531 4.03202 129.699 4.08683 129.782 4.11357L129.722 3.87159C129.804 3.89833 129.968 3.95314 130.049 3.97988L130.01 3.74459C130.086 3.76865 130.238 3.81812 130.314 3.84218L130.308 3.62026C130.361 3.6363 130.464 3.66839 130.517 3.68443C130.65 3.53871 130.82 3.48389 131.027 3.51865L130.942 3.33149C131.004 3.35421 131.13 3.39833 131.193 3.41972C131.319 3.26732 131.488 3.21117 131.701 3.25127L131.638 3.11357C131.76 3.12026 132.001 3.13363 132.123 3.14031L132.02 2.97855C132.145 2.98523 132.395 2.99994 132.519 3.00796L132.458 2.85288C132.552 2.85288 132.738 2.85555 132.831 2.85555C133.765 2.47988 134.792 2.45716 135.783 2.37427C136.22 2.43042 136.661 2.48256 137.106 2.45983L137.03 2.60288C137.228 2.59619 137.428 2.58951 137.628 2.58282L137.586 2.71651C137.779 2.68978 137.943 2.74058 138.08 2.86892C138.13 2.86224 138.231 2.84753 138.281 2.84084L138.3 3.04405L138.516 2.95983C138.525 2.99325 138.545 3.06143 138.556 3.09486C138.764 3.20047 138.958 3.33282 139.16 3.45314L139.085 3.59085L139.313 3.50261L139.201 3.71651L139.37 3.64566C139.454 3.79539 139.517 3.95314 139.56 4.11892L139.739 4.06544C139.708 4.13764 139.646 4.28336 139.616 4.35555L139.826 4.33683C139.818 4.4478 139.802 4.66972 139.794 4.77935L139.937 4.75796C139.958 5.48523 140.008 6.25662 139.68 6.92908C139.68 7.01464 139.678 7.18577 139.678 7.26999L139.556 7.25662C139.525 7.49726 139.443 7.72587 139.384 7.95849L139.217 7.94512C139.244 8.01865 139.297 8.16705 139.324 8.24191L139.083 8.20181C139.108 8.28068 139.161 8.43844 139.188 8.51732L138.946 8.46651C138.973 8.54807 139.027 8.70983 139.056 8.79138L138.811 8.73122C138.836 8.8101 138.887 8.96651 138.913 9.04539L138.673 9.00528C138.7 9.08282 138.757 9.2379 138.784 9.31678L138.619 9.23924C138.535 9.4117 138.6 9.82748 138.255 9.71919C138.289 9.78336 138.357 9.91036 138.389 9.97454L138.136 9.93577L138.217 10.1777C138.176 10.1831 138.096 10.1965 138.057 10.2031C138.022 10.3636 137.954 10.5106 137.854 10.6416L137.715 10.6136L137.832 10.8302L137.571 10.7419L137.677 10.9785C137.642 10.9866 137.57 11.0039 137.535 11.012C137.425 11.2232 137.282 11.4157 137.159 11.6176L137.072 11.4892C137.136 11.766 136.85 11.9304 136.745 12.1537L136.665 12.0013C136.732 12.2446 136.645 12.3743 136.407 12.3903C136.388 12.4612 136.35 12.6042 136.331 12.6751C136.112 12.9358 135.861 13.1697 135.665 13.4505L135.63 13.4023C135.611 13.5922 135.518 13.6978 135.351 13.7219C135.328 13.917 135.226 13.9999 135.044 13.9719C135.098 14.1938 134.899 14.2981 134.746 14.4037L134.775 14.5414L134.588 14.4812L134.687 14.6911L134.463 14.5908L134.565 14.8021L134.347 14.7433L134.401 14.9892L134.226 14.8435C134.282 15.0588 134.199 15.1751 133.981 15.1925C133.841 15.5855 133.42 15.7967 133.161 16.1136C132.791 16.4184 132.528 16.8703 132.084 17.0735C132.058 17.2981 131.933 17.3703 131.711 17.2927L131.882 17.4759L131.617 17.4291L131.695 17.643L131.46 17.5521L131.575 17.7807L131.343 17.6497L131.441 17.8783L131.252 17.7834L131.259 17.913C130.959 18.0882 130.787 18.4251 130.457 18.5467C130.432 18.7098 130.327 18.7994 130.141 18.8154L130.211 18.9371L130.065 18.897C129.808 19.1577 129.561 19.4411 129.23 19.6136C129 19.8114 128.796 20.0467 128.513 20.1724L128.504 20.3181C128.455 20.2914 128.355 20.2366 128.305 20.2085C128.196 20.6644 127.644 20.8034 127.324 21.1015C127.142 21.2473 126.962 21.3916 126.763 21.512C126.489 21.6884 126.249 21.9344 125.926 22.0213L125.982 22.0882C125.834 22.1911 125.675 22.2526 125.503 22.2727L125.576 22.3542C125.431 22.4585 125.273 22.5187 125.102 22.5374L125.159 22.6122C124.81 22.762 124.535 23.0761 124.138 23.1015L124.281 23.2687L124.106 23.2098C124.022 23.2486 123.854 23.3288 123.769 23.3676L123.753 23.4973C123.685 23.4839 123.55 23.4572 123.482 23.4438L123.533 23.6376C123.452 23.6229 123.289 23.5949 123.206 23.5815L123.274 23.8047C123.194 23.7767 123.036 23.7192 122.957 23.6898L122.996 23.9277C122.918 23.9037 122.759 23.8542 122.68 23.8302L122.726 24.0641C122.648 24.0387 122.492 23.9879 122.413 23.9625L122.447 24.1938C122.372 24.1711 122.223 24.1229 122.148 24.1002V24.3195C122.1 24.3048 121.999 24.2753 121.949 24.2606C121.808 24.393 121.638 24.4451 121.442 24.4197C121.459 24.4531 121.496 24.5227 121.513 24.5574C121.385 24.5521 121.127 24.5427 120.998 24.5374L121.149 24.6978C121.018 24.6898 120.755 24.6724 120.624 24.6644C120.638 24.7018 120.666 24.7767 120.679 24.8141C120.548 24.8168 120.283 24.8208 120.15 24.8221C119.689 25.0695 119.138 24.909 118.639 24.9344L118.674 24.7994C118.556 24.8061 118.317 24.8221 118.198 24.8288C118.214 24.7941 118.245 24.7245 118.262 24.6911C117.813 24.6871 117.384 24.2593 117.38 23.8181L117.194 23.9064C117.224 23.8275 117.285 23.6684 117.315 23.5895C117.265 23.5895 117.166 23.5882 117.117 23.5868C117.122 23.4438 117.132 23.1564 117.137 23.012L117.006 23.0748C116.987 22.7098 116.978 22.3449 117.01 21.9812L116.658 22.0173L116.793 22.1884C116.711 22.2072 116.548 22.2459 116.467 22.2646C116.478 22.4612 116.372 22.5601 116.152 22.5601L116.25 22.7446L116.053 22.6149C116.086 22.8128 115.995 22.9264 115.779 22.9585L115.81 23.0654L115.679 23.0507C115.436 23.2633 115.251 23.6029 114.891 23.6229L115.032 23.6657C114.751 23.8007 114.56 24.0641 114.268 24.1791L114.267 24.3168C114.212 24.2941 114.104 24.2499 114.05 24.2285C114.047 24.4117 113.95 24.5293 113.759 24.5788C113.625 24.6724 113.489 24.7646 113.351 24.8475C113.036 25.0561 112.74 25.3328 112.348 25.3743L112.439 25.5481C112.351 25.5173 112.175 25.4545 112.085 25.4237L112.2 25.6737L111.99 25.5708C111.973 25.6243 111.939 25.7299 111.921 25.7834L111.775 25.7205C111.701 25.7673 111.555 25.8622 111.483 25.909C111.259 26.0534 111.008 26.1657 110.737 26.1537C110.746 26.1884 110.765 26.2593 110.775 26.2954C110.654 26.29 110.414 26.2793 110.293 26.2727L110.399 26.4197C110.293 26.4224 110.081 26.4251 109.977 26.4264C109.463 26.6871 108.852 26.4973 108.299 26.5521L108.376 26.405C108.249 26.4117 107.995 26.4251 107.868 26.4318L107.948 26.2245C107.863 26.2553 107.695 26.3168 107.611 26.3475L107.675 26.1082C107.603 26.1269 107.459 26.1644 107.389 26.1831L107.4 26.0521C107.212 26.0093 107.097 25.8957 107.055 25.7138L106.929 25.7165C106.942 25.647 106.972 25.5093 106.986 25.4411L106.762 25.4732C106.781 25.4197 106.822 25.3128 106.842 25.2593C106.805 25.2152 106.735 25.1269 106.7 25.0828C106.657 24.5013 106.663 23.913 106.72 23.3315L106.347 23.3408L106.485 23.4652C106.328 23.5815 106.168 23.6938 105.991 23.7753L105.987 23.9264C105.936 23.8997 105.834 23.8462 105.782 23.8195C105.787 24.0908 105.548 24.1951 105.344 24.3021C105.181 24.4398 105.03 24.5962 104.831 24.6831C104.647 24.8382 104.471 25.0039 104.255 25.1136C104.117 25.2138 103.986 25.3315 103.818 25.3756L103.863 25.4318C103.715 25.5467 103.552 25.6042 103.372 25.6069L103.475 25.6844C103.233 25.8261 103.01 26.024 102.715 26.0427L102.803 26.1617C102.38 26.2847 102.079 26.6644 101.63 26.7112L101.726 26.8863C101.637 26.8542 101.458 26.7914 101.368 26.7593L101.483 27.0039L101.269 26.9117C101.251 26.9652 101.216 27.0721 101.199 27.1269L101.057 27.0374L100.942 27.1831C100.878 27.1978 100.75 27.2259 100.686 27.2406L100.714 27.397C100.648 27.3743 100.516 27.3302 100.45 27.3088L100.424 27.512C100.378 27.5026 100.287 27.4852 100.241 27.4772C100.093 27.5962 99.9206 27.6497 99.7266 27.6376L99.8175 27.758C98.9642 27.9224 98.0906 28.3141 97.2115 28.0013L97.2291 27.897C97.0623 27.8596 96.9036 27.8021 96.753 27.7219L96.8303 27.6416C96.6255 27.6243 96.5074 27.5146 96.4749 27.3141L96.3555 27.3368C96.3637 27.2539 96.3799 27.0908 96.3881 27.0093L96.1683 27.131C96.1982 27.0454 96.2565 26.8756 96.285 26.7914C96.2375 26.7954 96.1439 26.8034 96.0964 26.8088C96.0991 26.2633 96.0991 25.7192 96.0964 25.1764C96.129 25.1938 96.1941 25.2285 96.2266 25.2473C96.2063 24.9438 96.3352 24.6684 96.3745 24.3743L96.4993 24.4411C96.5088 24.1991 96.5739 23.9638 96.616 23.7259C96.3582 23.8876 96.152 24.1136 95.935 24.3208L95.9865 24.4572L95.7722 24.3703L95.8929 24.5828L95.6569 24.4745L95.7749 24.6938L95.5578 24.6336L95.5877 24.8916L95.4262 24.7058C95.4873 24.9598 95.3896 25.0868 95.1305 25.0882L95.2214 25.2767L94.9664 25.139L95.1088 25.3796L94.8619 25.3074L94.9406 25.5534L94.752 25.4157C94.79 25.6363 94.6842 25.7593 94.4359 25.7834L94.5323 25.9411L94.2759 25.8462L94.4047 26.0802L94.17 25.9425L94.2772 26.1684L94.0588 26.0748L94.1171 26.2152C93.816 26.2834 93.7278 26.6523 93.4199 26.6884C93.4036 26.8689 93.2951 26.9638 93.0902 26.9745L93.1512 27.012C92.922 27.1684 92.7171 27.3542 92.496 27.52C92.4323 27.5534 92.3047 27.6203 92.241 27.6523C92.1691 27.79 92.0321 27.8596 91.9032 27.9304C91.5885 28.1269 91.309 28.4384 90.9102 28.4398L91.0499 28.6283L90.8288 28.516C90.8098 28.5681 90.7718 28.6697 90.7542 28.7219L90.5425 28.6363L90.5493 28.8395C90.4747 28.8302 90.3255 28.8114 90.2509 28.8021L90.2658 28.9986C90.1993 28.9772 90.0691 28.9344 90.0026 28.913L89.9931 29.0668C89.7625 29.1336 89.5373 29.2232 89.2958 29.2379L89.3352 29.3743C89.2226 29.3662 88.9987 29.3502 88.8861 29.3408C88.897 29.3823 88.9187 29.4638 88.9282 29.5039C88.7803 29.4986 88.4846 29.4866 88.3367 29.4812L88.3883 29.6229C87.6584 29.6323 86.9286 29.6269 86.2001 29.6283L86.2571 29.4772C86.1282 29.4866 85.8731 29.5026 85.7443 29.512L85.8596 29.3662C85.4648 29.4331 85.2016 29.0815 85.0117 28.7981C84.9262 28.4264 84.9873 28.0374 84.9805 27.659C84.8693 27.6844 84.6468 27.7326 84.5356 27.758L84.6427 27.8957L84.5043 27.8903C84.4284 27.9264 84.2764 27.9986 84.2018 28.0347C84.1828 28.1804 84.0933 28.2673 83.9346 28.2941C83.7338 28.4745 83.5385 28.6991 83.2427 28.6978C83.2305 28.8529 83.1383 28.9505 82.9633 28.9919C82.7883 29.1323 82.5997 29.2593 82.3623 29.2433L82.4627 29.4077C82.2863 29.4451 82.1113 29.4799 81.935 29.512L82.091 29.6203C81.9133 29.6617 81.7396 29.7112 81.57 29.7713L81.5633 29.9144C81.4968 29.901 81.3639 29.8756 81.2974 29.8636L81.3231 30.0748C81.2512 30.0494 81.1088 29.9999 81.0369 29.9759L81.0722 30.1991C80.9935 30.1804 80.8334 30.1416 80.7534 30.1229L80.8036 30.3395C80.7276 30.3181 80.5743 30.2753 80.497 30.2526L80.5038 30.4812C80.4536 30.4612 80.3518 30.4184 80.3003 30.397C80.1728 30.5534 79.9991 30.6122 79.7794 30.5748L79.8824 30.6965C79.5745 30.7112 79.291 30.8556 78.9803 30.8395L79.0224 30.9625C78.7049 30.9612 78.3875 30.9612 78.0714 30.9892C77.8245 30.9692 77.579 30.9638 77.3334 30.9598L77.4297 30.77C77.3416 30.8007 77.1666 30.8622 77.0797 30.893L77.1489 30.647C77.077 30.6697 76.9332 30.7138 76.8627 30.7352L76.8925 30.536L76.7636 30.5721C76.6171 30.3649 76.4734 30.155 76.3797 29.9197C76.2617 29.7138 76.3119 29.4665 76.2441 29.2473C76.1451 29.2339 75.9456 29.2085 75.8466 29.1951L75.9375 29.4304C75.8656 29.3983 75.7231 29.3328 75.6512 29.3007C75.7788 29.6457 75.3406 29.5708 75.171 29.6537L75.2633 29.8261C75.1751 29.7941 74.9974 29.7285 74.9092 29.6965L75.0286 29.881C74.859 29.9291 74.6921 29.9812 74.5266 30.0374C74.5158 30.0761 74.4927 30.1523 74.4819 30.1898L74.2811 30.1162C74.2635 30.1684 74.2282 30.274 74.2105 30.3275L74.0559 30.2673C73.8484 30.4679 73.5784 30.5935 73.2826 30.5641L73.36 30.7553C73.2799 30.7285 73.1185 30.6751 73.0385 30.6483L73.048 30.8769C72.9937 30.8582 72.8865 30.8208 72.8336 30.8021C72.7102 30.9612 72.5406 31.0173 72.3263 30.9719L72.409 31.1657C72.3452 31.1403 72.2191 31.0882 72.1553 31.0628C72.0359 31.2272 71.8637 31.286 71.6385 31.2419L71.7348 31.3569C71.4974 31.3716 71.2776 31.4612 71.0551 31.528C70.9222 31.5868 70.7865 31.635 70.6468 31.6697C70.5111 31.7232 70.3728 31.77 70.2317 31.8061C70.0377 31.8957 69.8206 31.9023 69.6117 31.9077L69.6796 32.0374C69.5805 32.0387 69.3838 32.04 69.2848 32.0414C69.1193 32.1443 68.9253 32.1697 68.7381 32.2005C68.5061 32.3275 68.2375 32.2994 67.9838 32.3021L68.0435 32.4277C67.821 32.4318 67.5985 32.4371 67.3788 32.4438C66.8918 32.6871 66.322 32.4919 65.8092 32.6416C65.1743 32.6497 64.5367 32.5588 63.9181 32.4197L63.99 32.2473C63.9032 32.2753 63.7309 32.3328 63.6441 32.3609L63.7255 32.1229C63.6454 32.1443 63.4854 32.1871 63.4053 32.2085L63.4664 31.9999L63.2385 32.0842L63.309 31.8569L63.0675 31.917L63.1828 31.7018L62.9699 31.758C62.9861 31.6791 63.0187 31.5213 63.035 31.4438L62.86 31.5213C62.8586 31.4184 62.8545 31.2138 62.8532 31.1122C62.5887 30.6644 62.9359 30.1831 62.8708 29.7085L63.0133 29.8021C63.0051 29.6684 62.9889 29.4037 62.9807 29.27L63.1462 29.417C63.1408 29.3007 63.1299 29.0708 63.1245 28.9558C63.1747 28.9531 63.2765 28.9478 63.328 28.9451C63.2982 28.8756 63.2371 28.7392 63.2073 28.6697L63.4542 28.6938C63.4284 28.6176 63.3782 28.4638 63.3538 28.3876L63.5939 28.4277C63.5654 28.3475 63.5071 28.1871 63.4786 28.1069L63.6604 28.1898C63.6563 27.9679 63.7594 27.7713 63.8666 27.5855L64.0185 27.635L63.9249 27.5039C64.108 27.282 64.2491 27.0293 64.3468 26.7593L64.496 26.8689L64.4974 26.4892C64.2871 26.5213 64.0782 26.5507 63.8679 26.5761C63.6807 26.6951 63.4528 26.6858 63.2412 26.6898C63.2575 26.7259 63.2887 26.7954 63.3049 26.8302C63.1815 26.8248 62.9319 26.8141 62.8071 26.8088L62.9292 26.9652C62.8003 26.9598 62.5439 26.9465 62.4164 26.9411L62.5195 27.1537C62.4516 27.1296 62.3187 27.0788 62.2509 27.0547C62.1288 27.2152 61.9565 27.274 61.7327 27.2312L61.8466 27.417C61.7625 27.3903 61.5943 27.3355 61.5102 27.3074L61.5088 27.5307C61.4573 27.5133 61.3528 27.4785 61.3013 27.4612C61.1005 27.6737 60.8197 27.7793 60.5253 27.7606L60.6135 27.9505C60.5307 27.9224 60.3639 27.8662 60.2797 27.8382L60.3218 28.0735C60.2431 28.0494 60.0858 27.9986 60.0071 27.9732L60.0491 28.2072C59.9718 28.1831 59.8171 28.1323 59.7385 28.1082L59.7683 28.3368C59.6923 28.3128 59.5418 28.266 59.4671 28.2419L59.4983 28.4705C59.421 28.4465 59.2691 28.3997 59.1918 28.3756L59.2352 28.6096C59.1565 28.5842 59.0005 28.5334 58.9218 28.508L58.9679 28.7419C58.8879 28.7165 58.7278 28.667 58.6491 28.643L58.6993 28.885C58.6139 28.8542 58.4429 28.7914 58.3575 28.7593L58.4782 28.9425C58.3073 28.9933 58.1377 29.0467 57.9708 29.1042C57.96 29.143 57.9383 29.2219 57.9261 29.2606L57.7809 29.1831C57.7402 29.2245 57.6615 29.3061 57.6222 29.3475L57.4106 29.3743L57.4567 29.54C57.3821 29.516 57.2342 29.4692 57.1596 29.4451L57.1949 29.6871C57.1135 29.655 56.9507 29.5908 56.8693 29.5588L56.9873 29.786C56.9303 29.7727 56.815 29.7459 56.758 29.7326L56.7038 29.913L56.4854 29.8542V30.0467C56.4121 30.036 56.2642 30.0133 56.1896 30.0026L56.2466 30.2219C56.1652 30.1898 55.9997 30.1256 55.9183 30.0922L56.035 30.278C55.8654 30.3342 55.6958 30.3876 55.5249 30.4371L55.5371 30.5775C55.4639 30.5681 55.3173 30.5481 55.2454 30.5387L55.2902 30.7566C55.2102 30.7232 55.0487 30.6577 54.9673 30.6243L55.0799 30.7914C54.81 30.9077 54.5644 31.0908 54.2646 31.1269L54.4098 31.1978C54.3216 31.2312 54.1466 31.2981 54.0598 31.3315C54.0177 31.3596 53.935 31.4157 53.8929 31.4438C53.7518 31.5962 53.5375 31.6403 53.3354 31.635L53.4724 31.8395L53.292 31.7379L53.1753 31.8622C53.1156 31.8756 52.9949 31.8997 52.9352 31.9117L52.9935 32.0855C52.9108 32.0588 52.748 32.0053 52.6666 31.9785L52.7887 32.2433L52.5594 32.0975L52.577 32.2352C52.3261 32.3368 52.1239 32.5548 51.8458 32.5815L51.8716 32.7272C51.7997 32.7125 51.6573 32.6818 51.5854 32.667L51.6356 32.9023C51.5732 32.8729 51.4483 32.8141 51.3859 32.7834C51.3588 32.8449 51.3046 32.9679 51.2774 33.028C50.9057 33.1564 50.6317 33.508 50.2193 33.512L50.3265 33.6162C50.0551 33.7072 49.8354 33.9197 49.5369 33.9251L49.6264 34.0481C49.1923 34.163 48.8925 34.5668 48.4327 34.5949L48.5724 34.6604C48.3106 34.778 48.0813 34.9812 47.7801 34.9879L47.9049 35.1724L47.7272 35.0935C47.639 35.1336 47.4613 35.2152 47.3732 35.2553L47.4301 35.4451C47.3677 35.4144 47.2429 35.3529 47.1805 35.3235C47.152 35.7018 46.6609 35.6604 46.4737 35.9211C46.4276 35.9037 46.3354 35.8703 46.2906 35.8542L46.3666 35.9933C45.9949 36.0935 45.7493 36.4732 45.341 36.4532L45.4658 36.6523L45.2772 36.5454C45.1266 36.7366 44.9123 36.8489 44.6966 36.9531C44.6518 36.9745 44.5623 37.0173 44.5175 37.0387C44.4063 37.2339 44.1675 37.2406 43.9695 37.258L44.0726 37.4211C43.9016 37.4612 43.7294 37.4999 43.5584 37.5347L43.6466 37.7125C43.5625 37.6804 43.3943 37.6176 43.3102 37.5855L43.4255 37.8475L43.2708 37.7566C43.1772 37.8034 42.9914 37.897 42.8991 37.9438L42.9425 38.1056C42.8625 38.0748 42.7024 38.012 42.6224 37.9812L42.7363 38.1483C42.4718 38.258 42.229 38.4251 41.9427 38.4799L42.0133 38.6497C41.9292 38.6162 41.7609 38.5494 41.6768 38.516L41.7935 38.7499L41.5751 38.6831L41.5059 38.8729C41.4489 38.8542 41.335 38.8154 41.278 38.7967L41.3363 38.9318C41.1423 39.0307 40.9443 39.1403 40.7191 39.1323L40.81 39.3181C40.7218 39.2874 40.5454 39.2232 40.4573 39.1911L40.5739 39.4371L40.3623 39.3462C40.342 39.3957 40.2999 39.4946 40.2796 39.5441L40.091 39.4745C40.0761 39.5267 40.0462 39.631 40.0327 39.6831L39.8129 39.6082L39.7803 39.8114C39.7152 39.7967 39.5863 39.766 39.5226 39.7513L39.5321 39.9478C39.4615 39.9331 39.3232 39.9023 39.254 39.8876L39.2458 40.0828C39.1821 40.0668 39.0546 40.0347 38.9908 40.0187L38.9582 40.2138C38.9162 40.2031 38.8321 40.1831 38.79 40.1724C38.6435 40.2994 38.4712 40.3542 38.2704 40.3342L38.3763 40.5187C38.2922 40.4906 38.1239 40.4358 38.0385 40.409L38.0452 40.6283C37.9951 40.6149 37.8947 40.5882 37.8445 40.5748C37.6925 40.6911 37.5202 40.7459 37.3276 40.7392L37.3941 40.9171C37.3358 40.8943 37.2164 40.8489 37.1567 40.8275C37.0332 40.9892 36.8623 41.0467 36.6439 40.9986L36.7389 41.1884C36.6588 41.1604 36.4974 41.1029 36.4173 41.0748V41.2339C36.1813 41.2941 35.9493 41.3769 35.7078 41.4104L35.7513 41.5788C35.697 41.5588 35.5871 41.52 35.5328 41.5013C35.3958 41.6443 35.2249 41.7005 35.0201 41.6697L35.1001 41.8582C35.0241 41.8288 34.8722 41.7713 34.7962 41.7419C34.7908 41.7834 34.7813 41.8676 34.7759 41.909C34.5452 41.9679 34.3187 42.0507 34.0799 42.0775L34.1193 42.2459C34.0664 42.2272 33.9633 42.1911 33.9104 42.1724C33.7652 42.3021 33.5916 42.3596 33.3908 42.3435L33.464 42.5227C33.403 42.4999 33.2836 42.4545 33.2239 42.4331C33.0951 42.5882 32.9241 42.6457 32.7111 42.6029L32.7993 42.7927C32.7206 42.7646 32.5633 42.7072 32.4846 42.6777L32.4737 42.8703C32.3639 42.8663 32.1427 42.8556 32.0315 42.8502L32.1305 43.0601C32.0478 43.032 31.8836 42.9732 31.8009 42.9451L31.8144 43.1029C31.5757 43.1617 31.3437 43.2473 31.0995 43.2794L31.1389 43.3703C30.9014 43.4264 30.6722 43.5133 30.4294 43.5441C30.4348 43.5761 30.4443 43.6417 30.4497 43.6737C30.3344 43.6684 30.1051 43.6577 29.9898 43.6537L30.0916 43.8609C30.0265 43.8382 29.8976 43.7941 29.8325 43.7713C29.7022 43.9251 29.5326 43.9799 29.3224 43.9371L29.4024 44.0401C29.1704 44.0775 28.9493 44.159 28.7255 44.2285C28.583 44.3208 28.4257 44.3569 28.252 44.3382C28.2602 44.3729 28.2764 44.4425 28.2846 44.4772C28.1679 44.4705 27.9346 44.4598 27.8179 44.4545L27.9224 44.5949C27.6836 44.6069 27.4625 44.6951 27.2359 44.7593C27.0976 44.8649 26.9375 44.9023 26.7544 44.8716C26.7679 44.9064 26.7937 44.9772 26.8059 45.012C26.6838 45.0066 26.4369 44.9959 26.3148 44.9906L26.4437 45.147C26.3121 45.1417 26.0503 45.1283 25.9187 45.1229L26.0354 45.27C25.7912 45.2646 25.566 45.3649 25.3367 45.4304C25.1983 45.5294 25.0396 45.5654 24.8619 45.5414C24.8673 45.5775 24.8782 45.647 24.8836 45.6831C24.771 45.6764 24.5445 45.6617 24.4319 45.655L24.5119 45.8168C24.3898 45.8101 24.1443 45.7967 24.0222 45.7887L24.1171 45.9505C23.9896 45.9438 23.7359 45.9304 23.6098 45.9237L23.7237 46.0842C23.5921 46.0775 23.3276 46.0641 23.196 46.0588L23.333 46.2179C23.1987 46.2112 22.9315 46.1978 22.7972 46.1911L22.9166 46.3395C22.5978 46.3288 22.3061 46.4732 22.0171 46.5828C21.739 46.6711 21.4609 46.7633 21.1652 46.7499L21.2941 46.889C21.1598 46.8823 20.8925 46.8676 20.7582 46.8596L20.8803 47.0213C20.7487 47.0146 20.4856 46.9999 20.3553 46.9933L20.4611 47.1537C20.3336 47.147 20.0799 47.1336 19.9524 47.1269L20.0406 47.2887C19.9199 47.2807 19.6784 47.266 19.5577 47.2593L19.6051 47.4144C19.5115 47.413 19.3257 47.4104 19.2334 47.409C19.1086 47.4999 18.9689 47.5561 18.8156 47.5788C18.6202 47.6751 18.4018 47.6764 18.1902 47.6844L18.2825 47.8275C18.1617 47.8181 17.9216 47.8007 17.8022 47.7914C17.8104 47.8221 17.8253 47.885 17.8334 47.9157C17.5038 47.9665 17.1877 48.0949 16.8485 48.0828C16.8608 48.1122 16.8865 48.1724 16.8987 48.2018C16.5487 48.1898 16.2408 48.3983 15.8854 48.3502L15.9627 48.4826C15.8664 48.4826 15.6724 48.4812 15.5761 48.4812C15.4051 48.6403 15.1609 48.6015 14.9493 48.6176L14.9765 48.7499C14.7838 48.7446 14.5912 48.7406 14.3985 48.7352L14.4637 48.8876C14.2602 48.881 14.0567 48.8743 13.8532 48.8676L13.9292 49.0227C13.723 49.0146 13.5168 49.008 13.3106 49.0013L13.3879 49.1564C13.183 49.1483 12.9796 49.1417 12.7747 49.135L12.8276 49.2834C12.6567 49.2807 12.4871 49.2794 12.3175 49.2794C12.1168 49.4879 11.8088 49.3903 11.5538 49.4117C11.5673 49.4465 11.5945 49.5173 11.6067 49.5534C11.3639 49.5481 11.1197 49.5427 10.8755 49.5374L10.923 49.6684C10.6571 49.6751 10.3912 49.6804 10.1266 49.6911C9.69661 49.9398 9.17296 49.7259 8.71444 49.8756C7.48401 50.0695 6.23459 49.8703 5.01909 49.6791C4.88343 49.6711 4.75727 49.6336 4.63924 49.5668C4.2092 49.5761 3.84971 49.274 3.42374 49.2794L3.49971 49.1523C3.22568 49.1644 2.96792 49.0695 2.76308 48.893C2.51482 48.8342 2.31405 48.6724 2.11734 48.5227C1.97761 48.4291 1.71715 48.3957 1.7999 48.147L1.67374 48.2285C1.60862 48.1697 1.47975 48.0521 1.41599 47.9933L1.45668 47.9224L1.3156 47.9171L1.28847 47.8208C1.03614 47.5681 0.694281 47.3288 0.706491 46.9304L0.587111 47.0748C0.528778 46.8569 0.466374 46.6403 0.448739 46.4157L0.336142 46.4999C0.234398 46.0133 0.115018 45.5227 0.112305 45.024C0.176064 44.7018 0.19777 44.3756 0.195057 44.0494C0.231685 44.0588 0.30494 44.0788 0.341568 44.0895C0.332072 43.9679 0.314436 43.7272 0.30494 43.6056L0.452809 43.7031C0.414824 43.504 0.465018 43.3382 0.606103 43.2045C0.59932 43.1577 0.584398 43.0614 0.577615 43.0146L0.71056 42.9986C0.752615 42.913 0.836723 42.7433 0.880134 42.6577L0.831297 42.5093L1.0687 42.6149L0.965599 42.3582C0.999514 42.3529 1.0687 42.3422 1.10261 42.3368C1.13924 42.1176 1.26134 42.0106 1.47161 42.016L1.39971 41.8917C1.45533 41.8221 1.56792 41.6818 1.6249 41.6122L1.75649 41.6831L1.63711 41.4572L1.87316 41.5654L1.75242 41.3382L1.91657 41.4144C1.95048 41.2205 2.06579 41.1056 2.2625 41.0721L2.18246 40.9277L2.38595 41.028L2.36289 40.9104C2.60029 40.7352 2.79699 40.4986 3.08188 40.3917L3.05882 40.2593C3.14428 40.2807 3.31385 40.3235 3.39932 40.3435L3.25416 40.1804C3.3749 40.1136 3.49564 40.0467 3.61637 39.9826C3.77781 39.8368 3.96773 39.7379 4.19292 39.7366L4.0437 39.5548L4.26754 39.6604C4.29196 39.6082 4.34079 39.5026 4.36521 39.4505L4.47916 39.5467L4.59583 39.3983C4.65959 39.3823 4.78847 39.3502 4.85223 39.3342L4.81967 39.1791C4.89021 39.2018 5.02994 39.2473 5.10048 39.2713L5.09234 39.0521C5.16289 39.0721 5.30397 39.1122 5.37451 39.1323L5.37044 38.9144C5.42335 38.9318 5.52916 38.9665 5.58071 38.9826C5.77199 38.762 6.05823 38.6711 6.34583 38.6831L6.30106 38.5013C6.35397 38.52 6.45843 38.5561 6.51133 38.5735C6.66056 38.4545 6.83285 38.3983 7.02684 38.4077L6.98614 38.2727C7.09874 38.2807 7.32258 38.2967 7.43517 38.3061C7.42025 38.2646 7.38905 38.1831 7.37413 38.143C7.49622 38.1483 7.73905 38.159 7.86114 38.1644L7.77703 38.0053C7.89234 38.0133 8.12161 38.0294 8.23692 38.0374C8.23556 38.0066 8.23285 37.9438 8.23149 37.913C8.53672 37.8703 8.82975 37.774 9.13227 37.7179C9.30727 37.6457 9.49447 37.6149 9.68168 37.5868C9.90823 37.4692 10.1646 37.4799 10.4129 37.4852L10.3925 37.3703C10.9121 37.393 11.3951 37.1376 11.9201 37.2205L11.8509 37.0975C12.1398 37.0868 12.4301 37.0828 12.7204 37.0895L12.6892 36.9745C13.3635 36.9999 14.0051 36.778 14.6807 36.7941C15.1867 36.6082 15.7361 36.7486 16.2516 36.6176C16.8241 36.4652 17.4265 36.6243 18.0016 36.4946C18.8102 36.3261 19.6404 36.4866 20.4544 36.3743C21.4555 36.2553 22.4648 36.2834 23.4701 36.2807C26.2294 36.258 28.9914 36.3529 31.7452 36.1711C32.06 36.1457 32.3761 36.1443 32.6921 36.1497C33.2796 36.1844 33.8358 35.9224 34.4286 36.0227L34.4001 35.8957C34.6171 35.8863 34.8342 35.8783 35.0513 35.8676C35.2683 35.7165 35.5396 35.7513 35.7906 35.7446L35.7526 35.6109C35.9425 35.6136 36.1325 35.6176 36.3237 35.6243C36.317 35.5962 36.3007 35.5387 36.2939 35.5093C36.6249 35.4572 36.9423 35.3302 37.2828 35.3382C37.2652 35.3048 37.2327 35.2366 37.2164 35.2018C37.3398 35.2072 37.5867 35.2179 37.7102 35.2232L37.6111 35.0668C37.7359 35.0721 37.9842 35.0855 38.109 35.0922L38.0208 34.9331C38.1443 34.9398 38.3912 34.9518 38.5146 34.9572L38.4142 34.7513C38.478 34.7713 38.6055 34.8114 38.6706 34.8315C38.8117 34.7005 38.9827 34.6457 39.1807 34.663L39.1251 34.5614C39.3679 34.5053 39.6053 34.4264 39.8536 34.3917L39.8197 34.2272C39.8699 34.2446 39.973 34.2807 40.0232 34.2981C40.167 34.1644 40.3392 34.1082 40.5414 34.1283L40.46 33.9451C40.5373 33.9732 40.6892 34.0307 40.7666 34.0588C40.7733 34.0013 40.7896 33.8863 40.7978 33.8288L40.9728 33.9023C41.1139 33.758 41.2875 33.7005 41.4964 33.7312L41.3906 33.5441C41.4761 33.5721 41.647 33.6296 41.7325 33.6577L41.704 33.4291C41.7772 33.4518 41.9251 33.4959 41.9997 33.5187L42.0011 33.2967C42.0648 33.3195 42.1923 33.3649 42.2561 33.3876C42.267 33.3328 42.29 33.2232 42.3009 33.167L42.4718 33.2406C42.6712 33.0227 42.9575 32.9224 43.2532 32.9318L43.1542 32.7433C43.241 32.7713 43.416 32.8288 43.5028 32.8569L43.4445 32.6149C43.5259 32.6417 43.69 32.6965 43.7714 32.7245L43.7212 32.4839C43.8013 32.5106 43.9627 32.5628 44.0441 32.5895L43.9912 32.3502C44.0726 32.3769 44.2354 32.4291 44.3154 32.4558L44.2625 32.2165C44.3439 32.2433 44.5067 32.2954 44.5867 32.3221L44.5338 32.0842C44.6152 32.1096 44.778 32.1617 44.8594 32.1884L44.8011 31.9438C44.8892 31.9745 45.0629 32.0374 45.1511 32.0681L45.0249 31.893C45.1945 31.8395 45.3627 31.7834 45.5309 31.7272C45.5445 31.6884 45.5716 31.6136 45.5852 31.5748L45.7263 31.6336C45.8172 31.5882 45.9976 31.4973 46.0871 31.4531L46.0654 31.2994C46.1373 31.3195 46.2797 31.3582 46.3516 31.3783L46.315 31.1564C46.391 31.1791 46.5443 31.2259 46.6203 31.2486L46.5795 31.0066C46.6609 31.0387 46.8224 31.1029 46.9038 31.135L46.7898 30.8836L46.9458 30.9505C47.0354 30.9077 47.2158 30.8221 47.3053 30.7793L47.2823 30.6403C47.3609 30.6564 47.5183 30.6898 47.597 30.7058L47.4898 30.5668C47.8805 30.5053 48.1342 30.1243 48.5439 30.1056L48.4584 29.9344C48.5452 29.9652 48.7189 30.028 48.8057 30.0601L48.6904 29.8141L48.9224 29.9077L48.9319 29.6925C49.0038 29.7179 49.1476 29.77 49.2195 29.7954L49.1164 29.6443C49.3714 29.52 49.6102 29.3422 49.9018 29.3074L49.7743 29.139L50.0049 29.2245L50.047 29.0481C50.1094 29.0588 50.2356 29.0815 50.298 29.0922L50.2491 28.8689C50.3278 28.901 50.4865 28.9638 50.5666 28.9959L50.4553 28.7486L50.6914 28.8368L50.6832 28.6176C50.7511 28.643 50.8894 28.6911 50.9586 28.7165L50.9139 28.5187C51.0604 28.4491 51.2069 28.3783 51.352 28.3034C51.4809 28.2232 51.6057 28.135 51.7319 28.0481C51.8716 27.9638 52.0059 27.8703 52.1402 27.7753C52.3328 27.655 52.5214 27.5267 52.7276 27.4264L52.7168 27.3048C52.7927 27.3168 52.9447 27.3422 53.0206 27.3542L52.9311 27.139C53.0763 27.1096 53.2228 27.0828 53.3693 27.0588C53.3516 26.8235 53.6148 26.7687 53.7627 26.651C53.8156 26.6617 53.9214 26.6844 53.9743 26.6965L53.8441 26.4812L54.0788 26.5614L54.091 26.3328C54.1425 26.3636 54.2456 26.4251 54.2972 26.4558C54.2958 26.2473 54.4044 26.1256 54.6255 26.0895L54.635 25.9558C54.6892 25.9759 54.7978 26.016 54.852 26.036C54.8371 25.8569 54.9239 25.7513 55.1098 25.7205C55.3051 25.5721 55.4571 25.3489 55.7135 25.2981L55.7162 25.1497C55.7745 25.1724 55.8898 25.2165 55.9468 25.2392C55.9197 25.016 56.0309 24.9023 56.2819 24.8957L56.1774 24.774L56.3796 24.8128L56.423 24.6162C56.4704 24.6403 56.5668 24.6858 56.6142 24.7098C56.6034 24.4759 56.7268 24.3596 56.9832 24.3609L56.8516 24.3208C57.0646 24.2339 57.2234 23.9665 57.477 24.0093C57.4187 23.8128 57.5164 23.7085 57.7687 23.6938L57.6832 23.6537C58.0848 23.4692 58.2856 23.0187 58.7115 22.8823L58.6125 22.7339L58.839 22.8422L58.7902 22.7219C59.2067 22.4919 59.4346 22.0387 59.8592 21.8221C59.8958 21.6844 59.984 21.5962 60.1224 21.5588C60.1861 21.401 60.3055 21.3034 60.4819 21.2687L60.3951 21.1122L60.6514 21.2259L60.4995 21.0093L60.7546 21.1056L60.6474 20.905L60.8834 20.9371L60.7952 20.7326L61.0123 20.8435L60.916 20.6096L61.152 20.7192L61.0354 20.4933L61.1954 20.5601C61.2307 20.3368 61.3569 20.2312 61.5739 20.2459L61.4369 20.0842L61.6933 20.1457L61.597 19.9211L61.8466 20.032L61.7137 19.7807L61.9049 19.893C61.9646 19.5026 62.3797 19.3061 62.6171 19.02L62.6104 18.8876L62.7135 18.9318C62.8288 18.5989 63.1489 18.4037 63.3456 18.1216L63.3701 18.139C63.4976 17.8769 63.7133 17.6751 63.8856 17.4438L63.9235 17.4772C63.9452 17.2499 64.0619 17.143 64.2749 17.1577C64.2491 17.0975 64.1976 16.9785 64.1718 16.9184L64.3142 16.9518C64.3753 16.786 64.4852 16.647 64.5869 16.5039C64.6303 16.3328 64.7321 16.2406 64.8894 16.2259C64.9233 15.782 65.3724 15.5253 65.4687 15.1002L65.6356 15.2192C65.6071 15.1336 65.5501 14.9652 65.5216 14.8796L65.7346 14.9531C65.7251 14.8796 65.7061 14.7312 65.6952 14.6564L65.8892 14.6537C65.873 14.6002 65.8431 14.4919 65.8268 14.4371L65.953 14.3876C65.9951 14.3034 66.0792 14.1376 66.1226 14.0534L66.0534 13.885L66.2433 14.02C66.2406 13.7793 66.3437 13.5588 66.4183 13.3355L66.5635 13.3101C66.5458 13.2459 66.5106 13.1162 66.4929 13.0521L66.71 13.0427C66.6815 12.9625 66.6259 12.8021 66.5974 12.7219L66.809 12.8195C66.8036 12.7085 66.7927 12.4879 66.7873 12.3769L66.923 12.401C66.9691 11.9612 67.1522 11.54 67.3123 11.131C67.3381 10.9491 67.3598 10.7633 67.4493 10.5975C67.4724 10.3716 67.467 10.131 67.6013 9.93443C67.6216 9.20315 67.623 8.47052 67.6053 7.7379C67.4588 7.56411 67.4751 7.3355 67.4697 7.12427C67.4344 7.12694 67.3639 7.13363 67.3299 7.1363C67.3354 7.02534 67.3462 6.80341 67.3516 6.69379L67.1414 6.79539C67.1699 6.71384 67.2268 6.5494 67.2553 6.46651L67.0016 6.49593C67.0328 6.43175 67.0966 6.30609 67.1278 6.24325C66.8049 6.34486 66.8416 5.99058 66.7927 5.81678C66.6001 5.83817 66.5173 5.74994 66.5458 5.55207C66.3668 5.56544 66.265 5.48389 66.242 5.30876C66.1619 5.27133 66.0018 5.19512 65.9232 5.15769L66.0805 4.99994C65.9937 5.01197 65.8187 5.03603 65.7319 5.04806L65.7699 4.90903C65.6152 4.87828 65.4741 4.81544 65.348 4.7232C65.2286 4.6363 65.1092 4.55074 64.9912 4.46518L64.8392 4.52266C64.8243 4.4732 64.7945 4.37293 64.7795 4.32213C64.7185 4.33817 64.5991 4.37159 64.5381 4.38897L64.5109 4.18175C64.4282 4.20716 64.264 4.26063 64.1813 4.28737L64.2925 4.08015C64.1637 4.08683 63.9032 4.1002 63.7743 4.10689L63.8896 3.96518C63.6726 3.94111 63.4216 4.00395 63.2466 3.83951C63.0635 3.81678 62.8315 3.87427 62.7094 3.69913C61.9714 3.64298 61.2443 3.49459 60.5077 3.42373C59.1958 3.43309 57.8826 3.40903 56.5722 3.43577C56.0214 3.57079 55.453 3.58149 54.89 3.54673C54.8398 3.58149 54.7381 3.65101 54.6879 3.68576C53.7288 3.63229 52.809 3.98657 51.854 3.95448L51.8797 4.0748C51.5976 4.08817 51.3154 4.09218 51.0346 4.08951L51.0699 4.21384C50.8514 4.22186 50.6344 4.22721 50.4173 4.23657C50.2152 4.36758 49.9697 4.35956 49.7404 4.38229C49.3063 4.51999 48.8532 4.60421 48.4001 4.64031C48.1912 4.82881 47.8914 4.74058 47.6404 4.75796C47.654 4.79405 47.6825 4.86758 47.696 4.90368C47.5468 4.89833 47.2497 4.88764 47.1005 4.88363L47.1452 5.01999C46.9757 5.024 46.8075 5.02935 46.6406 5.03603C46.2987 5.20983 45.9067 5.2486 45.5377 5.32881C45.3695 5.40101 45.1877 5.42908 45.01 5.45849C44.835 5.59887 44.5989 5.5494 44.3941 5.56411C44.3995 5.59887 44.4104 5.66839 44.4158 5.70314C44.2679 5.69913 43.9749 5.69111 43.827 5.6871L43.9234 5.84218C43.823 5.83817 43.6208 5.83282 43.5191 5.82881C43.3577 6.01732 43.0945 5.94245 42.8828 5.97052L42.9602 6.10956C42.8611 6.10555 42.6644 6.09887 42.5654 6.09619C42.442 6.18978 42.3022 6.24726 42.1462 6.26865C41.9522 6.36491 41.7338 6.36758 41.5222 6.37427L41.6199 6.51732C41.4978 6.50796 41.2536 6.49058 41.1328 6.48122C41.1437 6.52266 41.1654 6.60421 41.1749 6.64566C41.0637 6.63897 40.8398 6.62427 40.7286 6.61758L40.7421 6.774C40.6377 6.76865 40.4315 6.75662 40.3284 6.75127L40.3297 6.90903C40.228 6.90234 40.0232 6.89031 39.9201 6.88363L39.9282 7.04138C39.8237 7.03603 39.6148 7.024 39.5104 7.01865L39.5307 7.18175C39.4235 7.17373 39.2092 7.15635 39.102 7.147C39.1115 7.18844 39.1319 7.27133 39.1414 7.31277C39.0247 7.30609 38.79 7.29405 38.672 7.28737C38.6951 7.32614 38.7425 7.40502 38.7656 7.44379C38.6381 7.43978 38.383 7.42908 38.2542 7.42507L38.3844 7.56945C38.1389 7.56678 37.9123 7.66304 37.6817 7.72855C37.5447 7.83817 37.3805 7.87694 37.192 7.84352L37.2625 7.95181C37.017 8.00261 36.7795 8.07881 36.5326 8.11892L36.534 8.24593C36.4268 8.24058 36.2125 8.22855 36.1067 8.2232L36.1745 8.43042C36.1175 8.41036 36.0049 8.37026 35.948 8.3502C35.8014 8.47587 35.6292 8.53069 35.4311 8.51598L35.4921 8.61357C35.2466 8.66839 35.0092 8.75395 34.7596 8.79004L34.8071 8.8863C34.5642 8.94379 34.3268 9.024 34.0786 9.05742L34.1247 9.22587C34.0691 9.20716 33.9606 9.16705 33.9049 9.14833C33.7679 9.29138 33.5956 9.34753 33.3921 9.31678L33.4722 9.50395C33.3976 9.47587 33.2456 9.41839 33.171 9.39031C33.1642 9.43175 33.1493 9.51331 33.1425 9.55475C32.9146 9.62159 32.6894 9.70181 32.4507 9.7232L32.5077 9.89833C32.4344 9.87159 32.2892 9.81812 32.2173 9.79138L32.2011 9.94913C31.9691 10.0187 31.7412 10.1082 31.497 10.1243L31.5743 10.3034C31.4956 10.2753 31.3369 10.2192 31.2582 10.1924L31.2623 10.4157C31.1958 10.3957 31.0629 10.3542 30.9964 10.3342C30.9883 10.3743 30.9693 10.4531 30.9598 10.4919C30.7346 10.5628 30.5094 10.643 30.272 10.6604L30.3656 10.8395C30.2828 10.8114 30.1146 10.7539 30.0305 10.7259L30.0617 10.9585C29.9871 10.9344 29.8379 10.8876 29.7633 10.8636L29.766 11.0895C29.7009 11.0668 29.5693 11.0187 29.5042 10.9959C29.496 11.0547 29.4797 11.1711 29.4716 11.2299L29.2505 11.1203C29.2342 11.1764 29.1989 11.2887 29.1826 11.3449L28.9737 11.266C28.9575 11.3061 28.9249 11.3863 28.9086 11.4264C28.5708 11.4545 28.3307 11.7887 27.9658 11.7165L28.0662 11.909C27.9794 11.881 27.803 11.8235 27.7162 11.7954L27.7813 12.0374C27.6972 12.0106 27.529 11.9558 27.4462 11.9291L27.5059 12.1711C27.4232 12.143 27.2577 12.0895 27.1749 12.0614L27.2359 12.3088C27.1478 12.2767 26.9714 12.2138 26.8832 12.1831L27.004 12.3462C26.9226 12.3783 26.7598 12.4424 26.6784 12.4759C26.5332 12.5601 26.3813 12.6243 26.2199 12.6657L26.1887 12.7967C26.1303 12.786 26.0164 12.7633 25.9594 12.7526L25.9363 12.9344C25.8739 12.9224 25.7478 12.897 25.684 12.885L25.6772 13.0949C25.6094 13.0668 25.4764 13.0093 25.41 12.9812L25.4724 13.131C25.1726 13.2299 24.9108 13.4117 24.6313 13.5547C24.3993 13.6884 24.1673 13.8342 23.8987 13.8836L23.9733 14.0507C23.8865 14.0173 23.7156 13.9491 23.6288 13.9157L23.7427 14.0802C23.4741 14.2005 23.2245 14.3756 22.9261 14.417L23.0712 14.4839C22.5327 14.6243 22.165 15.1564 21.6007 15.1951L21.7228 15.397L21.465 15.2606L21.522 15.385C21.4392 15.4411 21.2724 15.5507 21.1896 15.6069L21.0553 15.5053L21.1272 15.6617C20.978 15.758 20.8179 15.8275 20.6483 15.8716L20.6714 16.008C20.5914 15.9973 20.4299 15.9772 20.3485 15.9679L20.4733 16.1564C20.3241 16.1951 20.1735 16.2312 20.0216 16.2633C20.0854 16.4692 19.8425 16.4785 19.7286 16.5614C19.3433 16.8836 18.9078 17.1443 18.5443 17.4946L18.4263 17.3796C18.4398 17.6737 18.1753 17.7874 17.9501 17.889L17.9732 17.9237C17.6611 18.0949 17.4997 18.4839 17.128 18.5467L17.2094 18.7379L17.0032 18.5935C17.0697 18.7793 16.9991 18.901 16.7902 18.9558C16.7482 19.0949 16.6586 19.1804 16.5189 19.2138C16.4863 19.3743 16.3927 19.4612 16.2354 19.4759C16.1621 19.6751 16.0061 19.8275 15.884 19.9973L15.8487 19.9505C15.823 20.1764 15.7063 20.282 15.5001 20.2713C15.5204 20.3302 15.5598 20.4478 15.5801 20.5066L15.3875 20.4906L15.4485 20.7245L15.2858 20.6162C15.2952 21.0267 14.8679 21.274 14.8516 21.6724C14.8109 21.6884 14.7296 21.7192 14.6889 21.7339C14.716 21.8074 14.7702 21.9545 14.7974 22.028L14.6061 21.9371C14.5993 22.1911 14.6156 22.4598 14.4704 22.6831C14.4609 23.0441 14.4637 23.405 14.4542 23.766L14.5898 23.7433C14.5912 23.8342 14.5925 24.0187 14.5925 24.1109C14.6861 24.2486 14.7784 24.3876 14.8788 24.5227L14.8177 24.6858L15.0823 24.6323L14.9181 24.7927C15.1664 24.762 15.2939 24.8689 15.298 25.1136C15.359 25.0802 15.4797 25.0133 15.5408 24.9799L15.492 25.167C16.4606 25.4318 17.5038 25.4211 18.4764 25.1911C18.5633 25.1911 18.7369 25.1911 18.8224 25.1911C18.817 25.1523 18.8075 25.0761 18.802 25.0374C18.9472 25.0441 19.2389 25.0588 19.384 25.0654L19.3013 24.901C19.4193 24.9104 19.6567 24.9277 19.7747 24.9358C19.7666 24.8943 19.7516 24.8114 19.7435 24.77C19.8534 24.778 20.0732 24.7941 20.183 24.8021C20.1749 24.762 20.1586 24.6804 20.1505 24.6403C20.2644 24.647 20.4937 24.6577 20.6077 24.663L20.5222 24.5293C20.7732 24.4852 21.016 24.4064 21.267 24.3649L21.2249 24.266C21.4677 24.2072 21.7065 24.1283 21.9561 24.0962L21.8693 23.9211C21.9493 23.9491 22.1108 24.0039 22.1908 24.032L22.1881 23.8034C22.2532 23.8261 22.3848 23.8729 22.4513 23.8957C22.4621 23.8408 22.4838 23.7312 22.4947 23.6764L22.6561 23.7366C22.7619 23.6724 22.8677 23.6109 22.9749 23.5507C23.196 23.4064 23.4456 23.29 23.7183 23.3074L23.6206 23.1176C23.7061 23.1457 23.8797 23.2031 23.9666 23.2312L23.9109 22.9852C23.9964 23.016 24.166 23.0775 24.2501 23.1069L24.1361 22.8596L24.2935 22.9251C24.3776 22.8823 24.5472 22.7981 24.6313 22.7566C24.6462 22.7219 24.6747 22.6537 24.6896 22.6203L24.8402 22.6737C24.9297 22.6296 25.1088 22.54 25.1983 22.4946L25.1685 22.3395C25.2404 22.3596 25.3856 22.401 25.4575 22.4224L25.4249 22.1858C25.5063 22.2178 25.6677 22.282 25.7478 22.3141L25.6365 22.135C25.8047 22.0695 25.9757 22.0133 26.1493 21.9665L26.1303 21.8288C26.2036 21.8382 26.3487 21.8582 26.422 21.8676L26.3759 21.6497C26.4559 21.6831 26.6173 21.7486 26.6987 21.782L26.5889 21.6176C26.848 21.5066 27.0799 21.3088 27.3757 21.2967L27.2644 21.1416L27.434 21.1657C27.5208 21.1283 27.6931 21.0521 27.7799 21.0133L27.7325 20.8462C27.8098 20.8783 27.9644 20.9438 28.0418 20.9759L27.9332 20.7085L28.096 20.8154L28.21 20.6791C28.2724 20.6657 28.3972 20.6403 28.4596 20.6269L28.3999 20.4384C28.4664 20.4705 28.5993 20.5334 28.6658 20.5641C28.5518 20.2232 28.971 20.278 29.1487 20.2205L29.047 20.0521C29.1935 20.024 29.3414 19.9973 29.4892 19.9745C29.4336 19.7646 29.6737 19.7406 29.7972 19.6604C30.4497 19.1403 31.1429 18.6684 31.8063 18.1604C31.9949 18.0347 32.1563 17.8529 32.3951 17.8208L32.3272 17.766C32.5239 17.6403 32.7071 17.4933 32.9214 17.3983L32.9282 17.2566C32.9825 17.2807 33.0923 17.3302 33.1466 17.3556C33.0299 17.0494 33.3867 17.0601 33.5617 17.0253C33.5047 16.8248 33.7408 16.8074 33.8534 16.7192C34.0216 16.5802 34.2075 16.4665 34.4408 16.4785L34.3377 16.3221C34.5073 16.2807 34.6796 16.2419 34.8518 16.2085L34.7555 16.0293C34.8451 16.0628 35.0228 16.1283 35.1123 16.1617L34.9929 15.9866C35.21 15.9144 35.4202 15.8128 35.6549 15.8154L35.5573 15.6323C35.6427 15.659 35.815 15.7138 35.9005 15.7419L35.8693 15.5053C35.9249 15.5253 36.0389 15.5668 36.0958 15.5868C36.2071 15.4612 36.3495 15.3983 36.5218 15.3983C36.6846 15.2807 36.8908 15.2954 37.0807 15.2673C37.2747 15.1617 37.4958 15.1443 37.7129 15.155C38.6354 15.1858 39.5483 15.0253 40.4708 15.0133C40.7761 14.8422 41.2183 14.7994 41.5005 15.0347L41.6022 15.0133C41.6551 15.0641 41.7609 15.167 41.8139 15.2179C41.9943 15.3342 41.9956 15.5494 42.0038 15.7392L42.134 15.7058C42.134 15.9465 42.0838 16.1804 41.9821 16.401C41.6755 16.7152 41.4327 17.0882 41.259 17.4879C41.5127 17.3703 41.8315 17.3007 41.9142 16.9933L41.9956 17.1243C41.94 16.897 42.0201 16.7753 42.2344 16.7593C42.2819 16.3756 42.6075 16.1136 42.7852 15.786C43.0484 15.3756 43.3332 14.8061 43.9261 14.889L43.8474 14.77C44.291 14.766 44.7237 14.6604 45.1633 14.6069C44.7861 14.7232 44.4049 14.8181 44.0265 14.9251C43.7551 15.0267 43.5462 15.2165 43.4947 15.5066C43.6575 15.4719 43.8203 15.4358 43.9844 15.401C44.2788 15.2192 44.6505 15.274 44.9693 15.3556C45.3559 15.5588 45.5418 15.9612 45.7452 16.3208C45.5689 16.1229 45.2976 15.9866 45.2148 15.7219C44.717 15.6443 44.2164 15.6497 43.7185 15.7285L43.7294 15.901C43.6683 15.8783 43.5449 15.8328 43.4825 15.8101C43.4689 15.8622 43.4431 15.9679 43.4296 16.02L43.1962 15.9438L43.1922 16.167C43.1175 16.1416 42.971 16.0908 42.8978 16.0654L43.0117 16.3021L42.8028 16.2138C42.7852 16.2713 42.7499 16.3876 42.7323 16.4451L42.5451 16.2954L42.5288 16.7005L42.697 16.6029C42.6902 16.6898 42.6766 16.8622 42.6699 16.9491L42.5491 16.8649C42.5532 17.0935 42.4718 17.3088 42.4013 17.5227L42.2249 17.3957C42.2439 17.4692 42.2832 17.6149 42.3022 17.6884L42.1734 17.6871C41.9821 18.1203 41.5547 18.3836 41.2454 18.7285C40.9416 18.9879 40.7164 19.3743 40.3121 19.4919L40.384 19.524C40.1358 19.6924 39.9241 19.9104 39.6528 20.0427L39.6515 20.1844C39.5985 20.1564 39.4914 20.1015 39.4385 20.0735C39.4412 20.2673 39.3435 20.3876 39.1427 20.4344C38.767 20.7245 38.3464 20.9478 37.9381 21.1871C37.7522 21.2927 37.5433 21.3462 37.329 21.3502L37.4158 21.532C37.352 21.512 37.2245 21.4719 37.1608 21.4505C37.0102 21.6697 36.7348 21.5828 36.5177 21.6069C36.5313 21.6416 36.5584 21.7125 36.572 21.7473C36.3468 21.7419 36.1203 21.7352 35.8951 21.7272C35.8476 21.7633 35.7513 21.8355 35.7038 21.8716C35.0608 21.8636 34.415 21.897 33.7733 21.8596C33.4125 21.7887 33.0516 21.7098 32.6813 21.7366C32.6325 21.7045 32.5375 21.639 32.4887 21.6069C32.2173 21.6216 31.9501 21.5735 31.6883 21.508C31.7222 21.6042 31.7887 21.7941 31.8226 21.889C31.8972 21.8609 32.0478 21.8074 32.1237 21.7807L32.0261 21.9892C32.1414 21.9839 32.3706 21.9719 32.4859 21.9665C32.4792 22.0013 32.4656 22.0695 32.4575 22.1042C32.6297 22.0895 32.7885 22.1269 32.9323 22.2152C33.2321 22.2967 33.5292 22.3903 33.8222 22.4933C33.6635 22.5173 33.5034 22.54 33.3433 22.5601C33.1629 22.7165 32.9106 22.6604 32.6949 22.6818L32.8251 22.8248C32.6921 22.8181 32.4249 22.8034 32.292 22.7954L32.4032 22.9558C32.273 22.9491 32.0125 22.9358 31.8836 22.9291L32.003 23.0895C31.8728 23.0828 31.6123 23.0695 31.4821 23.0628L31.5933 23.2085C31.3342 23.2259 31.0914 23.3181 30.8377 23.3596C30.8377 23.3916 30.8404 23.4558 30.8404 23.4879C30.7319 23.4826 30.5121 23.4705 30.4036 23.4638L30.4823 23.6711C30.4226 23.6497 30.3032 23.6082 30.2435 23.5882C30.1038 23.7272 29.9328 23.7834 29.7294 23.7566L29.804 23.9398C29.7294 23.913 29.5815 23.8569 29.5069 23.8288L29.4825 23.9852C29.2532 24.0534 29.028 24.1457 28.7852 24.1617L28.8598 24.3395C28.7797 24.3114 28.6197 24.2553 28.5396 24.2272L28.5668 24.4572C28.4921 24.4358 28.3443 24.3916 28.2697 24.3689L28.2751 24.5935C28.2086 24.5695 28.0784 24.5213 28.0133 24.4973C28.0038 24.5561 27.9861 24.6711 27.9766 24.7299L27.7582 24.6243C27.7406 24.6791 27.704 24.7887 27.6863 24.8435L27.5249 24.7834C27.3214 24.9919 27.0406 25.1002 26.7476 25.0895L26.833 25.2767C26.7503 25.2486 26.5861 25.1924 26.5034 25.1644L26.5373 25.3983C26.4613 25.3743 26.3108 25.3261 26.2348 25.3007L26.247 25.5227C26.1764 25.5013 26.0367 25.4612 25.9675 25.4411L25.9513 25.6483C25.9011 25.6336 25.8007 25.6042 25.7505 25.5895C25.5646 25.8128 25.2689 25.8903 24.9867 25.893L25.0518 26.0748C24.9759 26.0481 24.8266 25.9946 24.7507 25.9692L24.7371 26.1844C24.6883 26.1711 24.5892 26.1457 24.539 26.1323C24.402 26.27 24.2325 26.3248 24.0317 26.2941L24.1144 26.4839C24.0371 26.4545 23.8825 26.3957 23.8038 26.3662C23.8024 26.4064 23.8011 26.4866 23.7997 26.5267C23.5637 26.5895 23.3358 26.6804 23.0902 26.7018L23.1458 26.8034C22.9016 26.8596 22.6629 26.9371 22.4146 26.9692L22.4567 27.0989C22.34 27.0922 22.1053 27.0788 21.9887 27.0735L22.0918 27.2205C21.8503 27.2205 21.6292 27.3195 21.4013 27.3836C21.2575 27.4719 21.1001 27.5093 20.9278 27.4973L20.9319 27.6256C20.8464 27.6243 20.6755 27.6243 20.5914 27.6229C20.4611 27.7085 20.3201 27.766 20.1668 27.7941C19.9796 27.8756 19.7761 27.8903 19.5739 27.8957C19.5753 27.9277 19.5794 27.9946 19.5821 28.028C19.441 28.024 19.1602 28.016 19.0204 28.012L19.0557 28.1523C18.8861 28.1564 18.7166 28.1604 18.5483 28.1657C18.3462 28.3061 18.0952 28.2914 17.8619 28.3114C17.5757 28.4705 17.2379 28.3997 16.9272 28.4518C16.2828 28.6296 15.6018 28.5507 14.9398 28.5467C14.598 28.4572 14.252 28.397 13.8952 28.4211L13.9495 28.3007C13.647 28.3048 13.3621 28.2112 13.0732 28.139L13.1057 27.9705C13.0243 27.9986 12.8602 28.0574 12.7774 28.0855L12.871 27.909C12.6296 27.9224 12.4396 27.7927 12.2578 27.6577C11.821 27.3636 11.4425 26.9772 11.1346 26.5521C10.9989 26.3743 10.8701 26.1871 10.8863 25.9505L10.7046 26.0601C10.733 25.9732 10.7914 25.8007 10.8199 25.7138L10.5716 25.7593C10.6015 25.6831 10.6611 25.5293 10.691 25.4518L10.4861 25.4826C10.4929 25.3636 10.5051 25.1243 10.5119 25.0053L10.3491 25.1189C10.3573 24.9104 10.3668 24.7018 10.3763 24.4946L10.2406 24.532C10.223 24.1029 10.227 23.6724 10.223 23.2433C10.2582 23.1978 10.3288 23.1056 10.364 23.0601C10.3573 22.8275 10.3532 22.5882 10.4577 22.3729C10.4821 22.2072 10.5472 22.0614 10.6544 21.9331C10.634 21.8716 10.5933 21.7513 10.573 21.6898L10.7575 21.7727C10.7534 21.4986 10.8389 21.2312 11.0179 21.02C11.064 20.9478 11.1563 20.8047 11.2011 20.7326L11.1156 20.5761L11.3761 20.6884C11.3435 20.6042 11.2784 20.4371 11.2458 20.3529L11.433 20.4318C11.4439 20.3649 11.467 20.2326 11.4778 20.167L11.6338 20.0802L11.5673 20.0213C11.6216 19.9398 11.7328 19.7793 11.7871 19.6991L11.8387 19.758C11.8604 19.5801 11.9825 19.4491 12.0883 19.3154C12.2443 19.0801 12.4342 18.8689 12.6065 18.6457L12.6377 18.6764C12.871 18.2125 13.3133 17.901 13.6673 17.532L13.6416 17.4104L13.8016 17.4705L13.7691 17.286L13.9577 17.3181L13.8817 17.1523L14.0716 17.2098L14.0187 17.0267L14.2059 17.0748L14.1489 16.889L14.3185 16.9665L14.2819 16.7793L14.4677 16.8101L14.4162 16.6537L14.5423 16.6764C14.6983 16.4892 14.8544 16.2847 15.1053 16.2232C15.1162 16.0146 15.2247 15.9304 15.4323 15.9705L15.3373 15.7473L15.5313 15.9077C15.492 15.6938 15.5856 15.5735 15.8135 15.5467L15.7809 15.4411L15.8881 15.417C15.9613 15.385 16.1092 15.3195 16.1825 15.2874C16.2299 15.0481 16.4389 14.8609 16.6966 14.9023L16.5325 14.7633L16.6993 14.7834C16.7753 14.7433 16.9272 14.6644 17.0032 14.6256C17.0208 14.5761 17.0561 14.4759 17.0737 14.4264C17.398 14.2312 17.6639 13.9558 18.0003 13.782L18.0016 13.6483C18.0559 13.6724 18.1671 13.7192 18.2214 13.7433C18.2133 13.5374 18.3204 13.4184 18.547 13.385L18.5416 13.2392C18.5958 13.266 18.7044 13.3195 18.76 13.3462C18.7559 13.155 18.8536 13.036 19.053 12.9892C19.2592 12.8368 19.4356 12.6015 19.7204 12.6122C19.7367 12.4545 19.8344 12.3529 20.0121 12.3088C20.141 12.2179 20.2685 12.1269 20.4028 12.0414C20.5493 11.9451 20.6972 11.8502 20.8464 11.758C20.9712 11.6564 21.1082 11.5748 21.2588 11.516L21.252 11.389C21.3253 11.4064 21.4732 11.4398 21.5478 11.4558L21.4175 11.2165L21.583 11.3128C21.6739 11.2687 21.8544 11.1818 21.9452 11.139L21.8625 11.0334C22.2952 10.9264 22.5611 10.4625 23.0305 10.4732L22.9084 10.2727L23.154 10.4037L23.1146 10.274C23.7047 10.0213 24.1768 9.49994 24.8212 9.39031L24.6828 9.31946C25.1102 9.18175 25.4358 8.82748 25.8753 8.72988L25.8929 8.58951C25.9553 8.60288 26.0801 8.62962 26.1425 8.64165L26.1154 8.4478C26.1954 8.46518 26.3569 8.4986 26.4369 8.51464L26.3202 8.37694C26.5414 8.3248 26.7611 8.23389 26.9158 8.06411L27.0759 8.10822L27.1057 7.92106C27.1695 7.93309 27.297 7.95849 27.3608 7.97186L27.3499 7.77133C27.4191 7.79004 27.5588 7.83015 27.628 7.8502L27.5982 7.62828C27.6728 7.65101 27.8247 7.69646 27.9007 7.71919L27.8573 7.47988C27.94 7.51063 28.1069 7.57347 28.191 7.60421L28.0702 7.41839C28.3104 7.42106 28.503 7.26464 28.6848 7.12962L28.8259 7.17507C28.8435 7.1256 28.8774 7.02667 28.8951 6.97721L29.0416 7.03202C29.1284 6.99058 29.3007 6.90502 29.3875 6.86357L29.4024 6.71117C29.4675 6.72721 29.5964 6.75796 29.6615 6.774L29.652 6.5748C29.7212 6.59085 29.8609 6.62159 29.9301 6.6363L29.9423 6.43576C30.0047 6.45448 30.1296 6.49325 30.192 6.51331L30.2123 6.31277C30.2761 6.32614 30.4009 6.35555 30.4633 6.36892C30.4728 6.31812 30.4945 6.21651 30.504 6.16571L30.6735 6.23389C30.8689 6.01331 31.1565 5.9117 31.4509 5.92774L31.3627 5.7379C31.4454 5.76598 31.6109 5.82347 31.6937 5.85154L31.6611 5.62026C31.7371 5.64298 31.8863 5.68844 31.9609 5.71117V5.48657C32.0247 5.51063 32.1522 5.55876 32.216 5.58149C32.2241 5.54138 32.2404 5.45849 32.2472 5.41705C32.4737 5.35154 32.6976 5.27133 32.935 5.24994L32.8848 5.07079C32.954 5.09887 33.0937 5.15635 33.1629 5.18577C33.171 5.14298 33.1873 5.05742 33.1954 5.01464C33.4233 4.95448 33.6472 4.87293 33.8846 4.84753L33.8398 4.67507C33.8927 4.69512 33.9985 4.73389 34.0514 4.75261C34.198 4.6256 34.3702 4.56812 34.571 4.58416L34.5032 4.47721C34.7487 4.42507 34.9889 4.34887 35.2385 4.31544C35.2249 4.29272 35.2005 4.24593 35.1869 4.22186C35.4108 4.17507 35.6264 4.1002 35.8462 4.0347C35.9887 3.94111 36.1474 3.90368 36.3224 3.92373C36.3129 3.88897 36.2939 3.81945 36.2844 3.78603C36.4024 3.79138 36.6398 3.80207 36.7578 3.80742L36.6439 3.66036C37.1743 3.64432 37.6356 3.3248 38.1551 3.23122C38.2827 3.16036 38.4197 3.11758 38.5675 3.10154C38.8958 2.9625 39.2363 2.82347 39.6026 2.85288L39.5022 2.70849C39.6257 2.71651 39.8699 2.73389 39.9933 2.74325C39.9825 2.7125 39.9594 2.64967 39.9485 2.61758C40.2809 2.56945 40.5997 2.44245 40.9416 2.45181C40.9294 2.42373 40.9049 2.36758 40.8927 2.33951C41.2332 2.32614 41.5466 2.15502 41.8939 2.18309L41.864 2.05341C42.0526 2.05742 42.2412 2.06277 42.4311 2.06812C42.4216 2.03068 42.3999 1.95314 42.3904 1.91571C42.5396 1.91972 42.8394 1.92908 42.9887 1.93443L42.91 1.77801C43.1121 1.78603 43.3129 1.79405 43.5164 1.80341C43.5069 1.76464 43.4879 1.6871 43.4784 1.64967C43.6235 1.65368 43.9152 1.66304 44.0617 1.66838L43.9912 1.54673C44.1743 1.53336 44.3575 1.51999 44.542 1.50662C44.7373 1.37427 44.9747 1.38897 45.2013 1.37293C45.4115 1.18978 45.7059 1.27534 45.9582 1.25796C45.9501 1.2232 45.9338 1.15635 45.9257 1.12159C46.1359 1.12159 46.3449 1.12026 46.5551 1.11892C46.7491 0.949133 47.0191 0.995925 47.2565 0.970524C47.5061 0.832823 47.7937 0.854214 48.0691 0.838171C48.6796 0.669722 49.3266 0.581486 49.9656 0.574802C50.359 0.35154 50.8325 0.529347 51.2476 0.378278ZM36.6317 16.2473L36.7375 16.4572C36.6561 16.4237 36.492 16.3556 36.4106 16.3221L36.4282 16.4826C36.1284 16.4839 35.9683 16.7687 35.6875 16.8221C35.7255 16.8796 35.7987 16.9946 35.8354 17.0521L35.6197 16.9745L35.6034 17.3796L35.8503 17.2072L35.6861 17.4572C36.089 17.4879 36.4662 17.3556 36.8582 17.2981L36.8664 17.151C36.9315 17.1644 37.0604 17.1911 37.1255 17.2045L37.1458 17.012C37.2177 17.0334 37.3588 17.0761 37.4307 17.0962L37.3168 16.9505C37.5392 16.9304 37.6627 16.8101 37.6885 16.5895L37.8187 16.7152C37.8078 16.5521 37.7672 16.401 37.6966 16.2593C37.3425 16.2259 36.9858 16.2539 36.6317 16.2473ZM76.6755 21.9999L76.6904 22.1283C76.4557 22.131 76.2224 22.1323 75.9904 22.1283L76.0324 22.2526C75.6621 22.2232 75.327 22.3863 74.9689 22.4344C74.7817 22.528 74.57 22.54 74.3652 22.5441L74.4005 22.6697C74.2011 22.6684 74.0016 22.6657 73.8049 22.6617L73.9013 22.8195C73.7792 22.8114 73.5363 22.7941 73.4156 22.786C73.4264 22.8261 73.4482 22.9077 73.459 22.9491C73.3437 22.9424 73.1144 22.9291 72.9991 22.9224L73.0547 23.0815C72.9367 23.0748 72.6993 23.0628 72.5813 23.0561L72.683 23.1831C72.4307 23.2352 72.1852 23.3195 71.9288 23.3489L71.9749 23.5187C71.903 23.4959 71.7578 23.4491 71.6846 23.4264L71.6629 23.631C71.5991 23.6149 71.4702 23.5842 71.4065 23.5695L71.3861 23.7606C71.3237 23.7473 71.1976 23.7205 71.1352 23.7072L71.104 23.8916C71.0416 23.8783 70.9154 23.8515 70.8516 23.8382L70.8706 24.0387C70.7987 24.02 70.6536 23.9839 70.5817 23.9652L70.6156 24.2098C70.5532 24.1764 70.427 24.1082 70.3633 24.0748C70.4772 24.393 70.1232 24.3743 69.9441 24.413C69.879 24.7152 69.4761 24.8636 69.202 24.9478L69.3323 25.1323L69.0704 25.0293L69.1898 25.2767L68.9823 25.151C69.0325 25.4224 68.6974 25.5293 68.6892 25.7874L68.5902 25.6858C68.54 25.8609 68.4871 26.036 68.4315 26.2112L68.2429 26.0855C68.2782 26.1777 68.3501 26.3622 68.3854 26.4545L68.1819 26.3449C68.1575 26.5547 68.2321 26.8141 68.0408 26.9719C68.0055 27.3729 68.0679 27.7646 68.2022 28.1416C68.3013 28.278 68.3962 28.4144 68.498 28.5494C68.6201 28.7098 68.8887 28.7419 68.8832 28.9906C68.9416 28.9612 69.0569 28.901 69.1139 28.8716L69.0786 29.0561C69.8559 29.2954 70.6685 29.2165 71.4702 29.2058L71.4309 29.0935C71.7144 29.0681 71.9803 28.9638 72.2611 28.9237L72.2693 28.8328C72.5026 28.7606 72.7292 28.643 72.9828 28.6697L72.8418 28.5735C73.109 28.4625 73.3464 28.2713 73.6462 28.2419L73.554 28.0761C73.7018 28.0481 73.8511 28.0227 74.0016 27.9999C73.9894 27.8288 74.083 27.7326 74.2811 27.7085C74.4602 27.5507 74.6094 27.3315 74.8726 27.3141L74.7315 27.1537L74.9133 27.2459C75.0801 27.0521 75.2389 26.7967 75.5305 26.7887L75.4342 26.5842L75.6458 26.7326C75.5807 26.5294 75.658 26.4104 75.8792 26.3743C75.909 26.2339 75.9972 26.143 76.1451 26.1015C76.1817 25.9652 76.2685 25.8769 76.4069 25.8368C76.4516 25.6991 76.5425 25.6109 76.6823 25.5708C76.723 25.3916 76.8383 25.3061 77.0282 25.3154L76.9251 25.1243L77.1828 25.266L77.0431 25.0013L77.2493 25.1149C77.2127 24.8863 77.3063 24.7807 77.5288 24.7994C77.5057 24.5668 77.7404 24.4585 77.8761 24.3114C78.0266 24.159 78.1067 23.9425 78.2993 23.8288C78.3468 23.6577 78.4512 23.5815 78.6127 23.5989C78.5964 23.3876 78.7076 23.2874 78.945 23.2981L78.8623 23.1818C78.9925 23.0601 79.1187 22.9331 79.2313 22.7941L79.3642 22.7967L79.2652 22.5908L79.5026 22.6978L79.3873 22.4531L79.6301 22.5895L79.4795 22.3221L79.6559 22.4545C79.6735 22.2352 79.7943 22.1122 80.0195 22.0815L79.9137 21.9117L80.1904 22.0521L80.0262 21.8195C80.0805 21.8395 80.189 21.8796 80.2433 21.8997C80.2555 21.8141 80.2826 21.6443 80.2949 21.5601C79.0726 21.5748 77.8883 21.9411 76.6755 21.9999ZM17.9894 39.2593C17.539 39.4572 17.0344 39.3141 16.5745 39.4625C16.3317 39.532 16.0753 39.5173 15.8257 39.5334C15.6181 39.6523 15.3766 39.6523 15.146 39.6737C14.9181 39.8088 14.6495 39.7847 14.3958 39.7887L14.4582 39.9224C14.3606 39.9237 14.1652 39.9251 14.0675 39.9264C13.8912 40.0654 13.6633 40.0534 13.4489 40.0574C13.4679 40.0935 13.5046 40.1644 13.5235 40.2005C13.4028 40.1925 13.16 40.1791 13.0392 40.1724C13.0542 40.2112 13.0854 40.2901 13.1003 40.3302C12.9809 40.3248 12.7408 40.3141 12.6214 40.3074L12.7218 40.4425C12.4654 40.4772 12.2199 40.5601 11.9662 40.6069L11.9987 40.77C11.9485 40.7526 11.8495 40.7179 11.8007 40.7005C11.6501 40.8261 11.4737 40.8823 11.273 40.8703L11.3747 41.0534C11.2892 41.024 11.1197 40.9652 11.0356 40.9358L11.0763 41.1737C10.9976 41.1483 10.8416 41.0975 10.7629 41.0721L10.8009 41.3007C10.7222 41.278 10.5662 41.2326 10.4875 41.2098L10.5363 41.4518C10.4509 41.4184 10.2827 41.3529 10.1972 41.3195L10.3139 41.4906C10.0452 41.5882 9.81599 41.7887 9.52025 41.8074L9.63556 41.9745L9.39544 41.8983L9.39951 42.0855C9.34254 42.0681 9.22994 42.0334 9.17296 42.0173C9.15397 42.3609 8.69951 42.4719 8.44176 42.6149L8.51637 42.7887L8.2749 42.6844L8.37529 42.9224L8.13517 42.8101L8.25455 43.0187L8.01986 42.9398L8.13517 43.1577L7.90455 43.0548L8.00358 43.2807L7.83808 43.2138C7.75533 43.4438 7.58304 43.6283 7.50436 43.8596L7.40804 43.7192C7.38633 44.1042 7.30223 44.4892 7.40668 44.8703C7.59254 45.0253 7.74312 45.2646 8.01986 45.262L7.86657 45.3903C7.99002 45.3836 8.23556 45.3689 8.35765 45.3609L8.28982 45.508C8.87994 45.4839 9.46463 45.6256 10.0534 45.5561C10.4699 45.5106 10.8877 45.5039 11.3069 45.4986C11.5456 45.3355 11.8441 45.381 12.1181 45.3609C12.3338 45.1965 12.6133 45.2499 12.8642 45.2433L12.8208 45.1216C13.377 45.147 13.8776 44.8703 14.423 44.8128C14.5912 44.7392 14.7716 44.7045 14.952 44.6777C15.1284 44.5347 15.3658 44.5855 15.5733 44.5708C15.5625 44.536 15.5394 44.4652 15.5286 44.4291C15.6208 44.4318 15.8067 44.4371 15.9003 44.4398C16.059 44.2459 16.329 44.3288 16.5433 44.2981L16.4416 44.1537C16.5637 44.163 16.8078 44.1804 16.9299 44.1898C16.9191 44.1483 16.9001 44.0654 16.8892 44.0253C17.0005 44.032 17.223 44.0467 17.3342 44.0534L17.3166 43.9224C18.41 43.7125 19.4383 43.2272 20.5154 42.9411C20.6443 42.8769 20.7799 42.8302 20.9224 42.7994C21.054 42.7433 21.1896 42.6978 21.3307 42.6671C21.4596 42.6069 21.5952 42.5614 21.735 42.5334C21.8666 42.4745 22.0022 42.4304 22.142 42.3983C22.2735 42.3422 22.4078 42.2967 22.5462 42.262C22.7036 42.1991 22.8664 42.1617 23.0359 42.1483L23.0088 42.02C23.1173 42.028 23.333 42.0427 23.4416 42.0507C23.4294 42.0187 23.4036 41.9545 23.3914 41.9224C23.6328 41.8649 23.8675 41.7807 24.1144 41.7473L24.0859 41.6537C24.3247 41.5895 24.558 41.5053 24.8049 41.4785L24.7235 41.3034C24.8036 41.3315 24.9664 41.3876 25.0464 41.4157L25.0166 41.1711C25.0993 41.2045 25.2621 41.27 25.3449 41.3034L25.239 41.1483C25.4778 41.036 25.6921 40.8663 25.9594 40.8221C25.973 40.6269 26.0883 40.5334 26.304 40.5414C26.266 40.4759 26.1927 40.3462 26.1547 40.282L26.3718 40.3743L26.3813 39.9973C26.327 39.9973 26.2199 39.9986 26.167 39.9999L26.3216 39.8048L26.1534 39.7767C25.3815 39.3382 24.4726 39.2539 23.6016 39.2192C22.8013 39.0441 21.9778 39.143 21.1652 39.1176C20.1003 39.0601 19.0544 39.3168 17.9894 39.2593Z" fill="#00ACAB"/>
<path d="M28.1121 19.1538C28.4784 19.1084 28.846 19.0816 29.215 19.0723C29.0753 19.1244 28.9342 19.1765 28.7931 19.2247C28.7456 19.2741 28.648 19.3731 28.6005 19.4225C28.2844 19.5429 28.0538 19.849 27.7051 19.8798L27.7255 20.0295C27.6482 20.0108 27.4908 19.9747 27.4135 19.9573L27.5342 20.0843C27.2724 20.2113 27.0377 20.4172 26.7297 20.4212L26.8776 20.5442C26.1858 20.5201 25.4858 20.583 24.802 20.4533C24.1183 20.3236 23.4102 20.4934 22.7305 20.3303C22.2489 20.1939 21.7361 20.3463 21.2546 20.2073C20.8869 20.0736 20.4623 20.2207 20.1177 20.0094C20.016 20.0081 19.8125 20.0027 19.7108 20.0014C19.6606 19.96 19.5629 19.8784 19.5127 19.8383C19.7542 19.7287 20.0133 19.6832 20.2778 19.7046C20.3226 19.6699 20.4094 19.6017 20.4542 19.5683C21.1162 19.6044 21.7511 19.3597 22.4185 19.4306C23.1768 19.2581 23.9542 19.3223 24.7247 19.2848C25.8425 19.0736 26.9848 19.2193 28.1121 19.1538Z" fill="#00ACAB"/>
<path d="M41.9021 19.3918C42.0011 19.2862 42.1029 19.1806 42.206 19.0776C43.4839 19.2875 44.7889 19.0603 46.0696 19.2394C46.8211 19.3958 47.6011 19.202 48.35 19.3824C48.8316 19.5068 49.3389 19.3624 49.8192 19.4974C50.1787 19.6044 50.5599 19.5643 50.9302 19.591L50.9085 19.718C51.1079 19.7087 51.306 19.7006 51.5054 19.6939L51.4539 19.8771C51.557 19.8557 51.7659 19.8129 51.8703 19.7929C51.7306 19.9119 51.58 20.0242 51.3887 20.0282C51.1961 20.2127 50.9044 20.1084 50.6698 20.1311C50.625 20.1672 50.5354 20.2394 50.4907 20.2755C50.1746 20.2715 49.8504 20.2407 49.5438 20.3343C49.0174 20.4814 48.4626 20.3357 47.9308 20.452C47.1955 20.5977 46.4426 20.5108 45.6978 20.5415C43.8827 20.7701 42.0473 20.6351 40.2227 20.6712C40.3692 20.5937 40.5225 20.5308 40.6825 20.4841L40.5998 20.448C40.9322 20.2875 41.1139 19.9159 41.4789 19.8143L41.388 19.6819L41.5969 19.7541L41.5738 19.6431C41.6837 19.5616 41.7936 19.4774 41.9021 19.3918Z" fill="#00ACAB"/>
<path d="M19.5781 20.4224C19.6894 20.4959 19.7992 20.5708 19.9078 20.6483C20.0801 20.643 20.2537 20.6389 20.426 20.6349L20.3704 20.778C20.6661 20.7793 20.989 20.7178 21.2522 20.8943C21.571 20.913 21.9142 20.8649 22.2031 21.032C22.8204 20.9718 23.4051 21.2031 24.0182 21.175C24.5419 21.151 25.0384 21.3676 25.5648 21.3087C25.3396 21.3943 25.113 21.4919 24.8648 21.4611L24.9624 21.6443L24.7413 21.5841L24.6992 21.7566C24.6409 21.7446 24.5229 21.7192 24.4646 21.7071L24.4618 21.9036C24.3954 21.8849 24.2624 21.8502 24.1946 21.8328L24.2068 22.044C24.1363 22.024 23.9938 21.9825 23.9233 21.9625L23.9477 22.1844C23.8744 22.1617 23.7266 22.1162 23.652 22.0935L23.6832 22.3208C23.6086 22.298 23.4566 22.2499 23.382 22.2258L23.4132 22.4531C23.3372 22.4304 23.1839 22.3836 23.108 22.3609L23.146 22.5935C23.07 22.5681 22.918 22.5173 22.8407 22.4919L22.8679 22.7218C22.7946 22.6991 22.6454 22.651 22.5721 22.6282L22.5857 22.8475C22.5138 22.8274 22.3713 22.7873 22.2994 22.7673L22.3022 22.9852C22.2506 22.9678 22.1502 22.9357 22.1 22.9184C21.9237 23.0413 21.7378 23.147 21.5547 23.2593C21.2359 22.9692 20.9442 22.6523 20.6295 22.3595L20.7706 22.2539C20.3867 22.4344 20.4762 21.9023 20.2076 21.8368C20.1872 21.7646 20.1479 21.6176 20.1275 21.544L19.9756 21.6015C19.9865 21.5213 20.0082 21.3622 20.019 21.282L19.7965 21.3555C19.8264 21.2753 19.8847 21.1162 19.9146 21.0373L19.6582 21.0841C19.6907 21.0012 19.7572 20.8368 19.7898 20.7539L19.593 20.8435C19.589 20.7379 19.5822 20.528 19.5781 20.4224Z" fill="#00ACAB"/>
<path d="M51.3222 20.6133C51.4972 20.5452 51.6803 20.4984 51.8662 20.4609C51.7984 20.5184 51.6613 20.6334 51.5935 20.6909C51.6206 20.7577 51.6735 20.8941 51.7007 20.9609L51.5053 20.8754C51.5474 21.0826 51.4904 21.2497 51.3358 21.3767L51.3927 21.5278C51.3412 21.5438 51.2354 21.5746 51.1838 21.5906L51.3005 21.8139L51.0984 21.6762C51.0658 21.8393 51.1119 22.2711 50.7809 22.1361C50.7972 22.2056 50.8298 22.346 50.846 22.4155L50.6276 22.346L50.7551 22.5759L50.5584 22.485C50.5734 22.6976 50.4798 22.8059 50.2763 22.8112C50.26 22.858 50.2288 22.9502 50.2139 22.9957C49.8666 23.3085 49.583 23.7136 49.1489 23.9128V24.0518C49.0947 24.0291 48.9848 23.981 48.9292 23.9583C49.0092 24.1949 48.7637 24.2363 48.6239 24.3179C48.4123 24.485 48.1912 24.6735 47.909 24.6949L47.9646 24.8473C47.886 24.8299 47.7286 24.7952 47.6499 24.7778L47.7123 25.0064C47.6282 24.977 47.46 24.9168 47.3759 24.8874L47.4912 25.1374L47.3338 25.0679C47.2497 25.1093 47.0801 25.1949 46.996 25.2363C46.9811 25.2711 46.9526 25.3379 46.9391 25.3727L46.7858 25.3219C46.5782 25.5238 46.3069 25.6441 46.0125 25.6227L46.0885 25.8125C46.0111 25.7845 45.8565 25.727 45.7778 25.6976L45.7819 25.8593C45.5499 25.9208 45.322 26.0064 45.0805 26.0278C45.086 26.0612 45.0982 26.128 45.1049 26.1601C44.9883 26.1548 44.7549 26.1441 44.6383 26.1387L44.7454 26.2831C44.2869 26.2671 43.9071 26.6267 43.4391 26.5532C43.4499 26.5826 43.473 26.6414 43.4852 26.6708C43.1433 26.6829 42.8327 26.8553 42.4867 26.8259L42.522 26.9556C42.3307 26.9516 42.1408 26.9476 41.9509 26.9436L41.9712 27.0772C41.803 27.0826 41.6348 27.0893 41.4666 27.0973C41.2617 27.223 41.0175 27.223 40.7856 27.2417C40.5332 27.366 40.2484 27.3553 39.9743 27.3714C39.3367 27.5625 38.6489 27.4957 37.9951 27.6294C38.0249 27.6789 38.0873 27.7751 38.1185 27.8232L37.8933 27.8633L37.9625 28.0853L37.7305 27.969C37.759 28.0425 37.816 28.1922 37.8445 28.2657L37.6274 28.247C37.641 28.3099 37.6668 28.4382 37.6803 28.501L37.5447 28.5264C37.4999 28.6133 37.409 28.7871 37.3642 28.874L37.4321 29.0385C37.39 29.0425 37.3046 29.0492 37.2625 29.0532C37.2218 29.3901 37.1228 29.7203 36.9885 30.0318C36.9817 30.2791 36.9817 30.5278 36.9844 30.7764C37.0902 30.9182 37.1404 31.0786 37.135 31.2591L37.2978 31.2283C37.2815 31.2764 37.2489 31.3727 37.2327 31.4195C37.3602 31.5652 37.4158 31.7363 37.4022 31.9315L37.5894 31.8513C37.5596 31.9289 37.5013 32.0813 37.4728 32.1575L37.6708 32.1682C37.6641 32.2751 37.6505 32.4903 37.6437 32.5986L37.7997 32.5291C37.7997 32.6294 37.8024 32.8272 37.8024 32.9275C38.0385 33.3018 37.9001 33.7644 37.9286 34.1789C37.8106 34.1748 37.5718 34.1655 37.4524 34.1601L37.5542 34.3206C37.4266 34.3139 37.173 34.2992 37.0468 34.2925L37.135 34.4543C37.0251 34.4489 36.804 34.4369 36.6941 34.4302C36.7592 34.3954 36.8908 34.3246 36.9559 34.2898C36.96 34.092 36.9179 33.8607 37.0834 33.7123C37.0875 33.358 37.0848 33.0051 37.0943 32.6508L36.9518 32.6682C36.9546 32.5559 36.9613 32.3313 36.9654 32.219L36.8732 32.35C36.7863 32.1227 36.6425 31.9115 36.4011 31.8272L36.454 31.7056C36.3916 31.7283 36.2654 31.7751 36.203 31.7978L36.1867 31.6347C35.6997 31.5759 35.2127 31.6 34.7243 31.6347L34.8736 31.7216C34.6307 31.7965 34.4544 31.997 34.2075 32.0599C34.2387 32.112 34.2997 32.2136 34.3296 32.2658L34.1505 32.2497C33.9687 32.7952 33.9891 33.3647 33.9904 33.9315L34.1315 33.8941C34.1301 34.0813 34.1274 34.2671 34.1234 34.4543C34.1627 34.4516 34.24 34.4449 34.2794 34.4422C34.2726 34.5478 34.2604 34.7591 34.2536 34.866L34.4137 34.8379C34.4096 34.9035 34.4015 35.0345 34.3974 35.0986C34.0311 35.1227 33.6296 35.0358 33.308 35.2551C33.0761 34.4489 33.1113 33.6 33.1602 32.7724L33.304 32.8807C33.2958 32.747 33.2809 32.4797 33.2728 32.3446L33.4369 32.4903C33.4315 32.3767 33.4206 32.1481 33.4152 32.0345C33.4654 32.0305 33.5658 32.0224 33.616 32.0198C33.5848 31.9462 33.5237 31.7992 33.4925 31.7243L33.677 31.7925C33.7069 31.5492 33.7896 31.3179 33.852 31.0826L33.966 31.128C34.004 30.608 33.9809 30.0906 33.9687 29.5706L33.8249 29.6067C33.8303 29.4984 33.8385 29.2805 33.8439 29.1708L33.711 29.2083C33.7042 29.0238 33.6228 28.8567 33.5373 28.6976C33.5034 28.6214 33.4356 28.4676 33.4016 28.3901L33.2755 28.3526C33.285 28.2912 33.3067 28.1668 33.3175 28.1053L33.0951 28.1454C33.1276 28.0679 33.1927 27.9141 33.2253 27.8366L33.0489 27.9449C33.11 27.5879 32.7505 27.6187 32.528 27.5478C32.2201 27.4569 31.8945 27.493 31.5784 27.4944C31.535 27.4583 31.4454 27.3834 31.4007 27.3473C31.1768 27.3513 30.9544 27.35 30.7305 27.3486L30.7699 27.2256C30.3697 27.2631 30.0061 27.0772 29.6113 27.0692L29.6927 26.9422C29.492 26.9489 29.2925 26.9543 29.0931 26.9609L29.1433 26.8272C28.929 26.8219 28.7051 26.8259 28.5261 26.6949C28.4365 26.6922 28.2575 26.6869 28.1679 26.6842L28.1842 26.5371C28.0716 26.5438 27.8451 26.5585 27.7311 26.5652L27.7935 26.4075C27.6701 26.4128 27.4245 26.4235 27.3024 26.4289L27.3811 26.2898C27.1139 26.3112 26.8561 26.2457 26.6377 26.0933C26.7544 26.1053 26.9877 26.1307 27.1044 26.1441L27.0189 25.9262C27.103 25.9543 27.2712 26.0104 27.3553 26.0385L27.3133 25.8018C27.3906 25.8272 27.5453 25.878 27.6239 25.9021L27.5995 25.6735C27.6714 25.6962 27.8166 25.7444 27.8898 25.7671L27.8871 25.5492C27.9549 25.5692 28.092 25.608 28.1598 25.628L28.1761 25.4262C28.2398 25.4409 28.366 25.4716 28.4298 25.4877L28.4569 25.3473C28.6821 25.2724 28.9032 25.1775 29.146 25.1695L29.047 24.989C29.1325 25.0171 29.3034 25.0732 29.3902 25.1013L29.3522 24.87C29.4282 24.8928 29.5788 24.9395 29.6534 24.9636L29.6548 24.7457C29.7049 24.7604 29.8067 24.7898 29.8569 24.8059C29.9939 24.6641 30.1648 24.6093 30.367 24.6414L30.291 24.4516C30.352 24.4756 30.4728 24.5238 30.5338 24.5492C30.6586 24.3914 30.8309 24.3326 31.052 24.3727L30.9611 24.2551C31.1958 24.239 31.4156 24.1508 31.6408 24.0893C31.7805 23.9863 31.942 23.9476 32.1237 23.9756L32.083 23.8353C32.1943 23.842 32.4195 23.8567 32.5307 23.8647L32.4887 23.7002C32.5999 23.7083 32.8224 23.7243 32.9336 23.7337C32.9241 23.6922 32.9079 23.6093 32.8984 23.5679C33.0096 23.5746 33.2307 23.5893 33.342 23.596L33.3216 23.4529C33.4125 23.4489 33.5956 23.4395 33.6865 23.4355C33.8642 23.3072 34.0854 23.3152 34.2943 23.3045L34.2699 23.1789C34.4625 23.1802 34.6565 23.1842 34.8505 23.1882L34.7637 23.0345C34.8641 23.0385 35.0648 23.0452 35.1652 23.0478C35.3172 22.842 35.5939 22.9422 35.8069 22.9075L35.697 22.7604C35.8191 22.7698 36.066 22.7871 36.1894 22.7965C36.1813 22.7564 36.1664 22.6762 36.1582 22.6361C36.2491 22.6387 36.4336 22.6428 36.5259 22.6454C36.8989 22.4315 37.3358 22.3446 37.7454 22.219C37.8865 22.112 38.0507 22.0732 38.2392 22.1013L38.1538 21.9155C38.2338 21.9436 38.3925 21.9997 38.4712 22.0278L38.459 21.7938C38.5377 21.8232 38.6964 21.8794 38.7751 21.9088L38.6598 21.743C38.8416 21.6842 39.0098 21.5625 39.2092 21.5759C39.9879 21.5585 40.7679 21.6013 41.5453 21.5585C42.4949 21.4021 43.458 21.4529 44.4158 21.4342C45.1877 21.2016 46.0084 21.4075 46.7844 21.2029C47.8561 21.1789 48.9048 20.969 49.9697 20.8914C50.2139 20.7658 50.492 20.7698 50.7606 20.7604C50.9274 20.6521 51.1282 20.6374 51.3222 20.6133Z" fill="#00ACAB"/>
<path d="M36.8217 42.0548C36.956 41.5455 36.9587 42.1618 37.2083 42.1952C37.4837 42.3021 37.6953 42.5294 37.9883 42.5936L37.8663 42.75C37.9571 42.7246 38.1362 42.6765 38.2257 42.6524L38.1267 42.8503C38.2095 42.8422 38.375 42.8262 38.4577 42.8182L38.4414 43.0107C38.5038 42.9933 38.6287 42.9559 38.6911 42.9372L38.7087 43.1297C38.7697 43.1176 38.8891 43.0949 38.9488 43.0842L38.999 43.2741L39.2133 43.2099C39.2296 43.2607 39.2635 43.3623 39.2812 43.4131L39.4847 43.3382C39.4996 43.3877 39.5267 43.488 39.5416 43.5388C39.6013 43.5227 39.7221 43.4893 39.7831 43.4733L39.8062 43.6751C39.874 43.6564 40.0097 43.6176 40.0775 43.5989V43.8182C40.1575 43.7901 40.319 43.734 40.399 43.7059L40.3068 43.8877C40.5102 43.8703 40.6852 43.9278 40.8318 44.0588C40.886 44.0388 40.9945 43.9973 41.0488 43.9759L40.9905 44.1591C41.1736 44.135 41.3364 44.1738 41.4788 44.2754C41.7461 44.3476 42.012 44.4305 42.2684 44.5348C42.4149 44.5749 42.5587 44.6243 42.6944 44.6925C42.8829 44.7019 43.0728 44.7112 43.2628 44.7179L43.1732 44.9064C43.2478 44.8757 43.3998 44.8142 43.4744 44.7834C43.4852 44.8824 43.5056 45.0829 43.5164 45.1832C43.3564 45.2353 43.1922 45.2687 43.024 45.2834L43.1054 45.4144C43.0064 45.4118 42.8083 45.4051 42.7093 45.4024C42.1626 45.6551 41.5195 45.6417 40.9254 45.6979C40.304 45.881 39.6556 45.7607 39.0221 45.8235C38.0073 45.9906 36.9763 45.9251 35.9535 45.9385C34.8777 45.9225 33.7938 45.9973 32.7275 45.8222C32.0994 45.7446 31.4374 45.9144 30.8337 45.6791C30.2354 45.6872 29.6209 45.6123 29.0552 45.4291C28.7961 45.4077 28.5519 45.3235 28.3213 45.2139C28.5044 45.2246 28.6889 45.2393 28.8721 45.2567L28.7988 45.0468C28.8571 45.0655 28.9738 45.1043 29.0321 45.1243C29.18 45.004 29.3509 44.9492 29.5449 44.9586L29.511 44.8275C29.6236 44.8329 29.8502 44.8449 29.9628 44.8516L29.8787 44.6444C29.9411 44.6658 30.0645 44.7072 30.1269 44.7286C30.2612 44.5856 30.4308 44.5294 30.6356 44.5615L30.5719 44.4545C30.8161 44.3997 31.0548 44.3222 31.3044 44.2874L31.2705 44.1577C31.3845 44.1644 31.6137 44.1778 31.7277 44.1831L31.6314 43.9692C31.7114 43.9987 31.8715 44.0575 31.9529 44.0869C31.9542 44.0388 31.9597 43.9412 31.9624 43.893C32.075 43.8984 32.3015 43.9091 32.4141 43.9144L32.2947 43.7032C32.3802 43.7326 32.5511 43.7888 32.6366 43.8168L32.6257 43.6631C32.8631 43.6043 33.0938 43.516 33.338 43.4826L33.3122 43.3235C33.361 43.3382 33.4614 43.3703 33.5116 43.3864C33.6581 43.262 33.8304 43.2072 34.0271 43.2206L33.962 43.0374C34.0203 43.0602 34.137 43.1069 34.1953 43.131C34.3188 42.9706 34.4924 42.9118 34.7149 42.9559L34.6091 42.7687C34.6918 42.7968 34.8587 42.8529 34.9414 42.881L34.9347 42.7206C35.1721 42.6564 35.404 42.5735 35.6509 42.5468L35.5967 42.369C35.6523 42.3917 35.7649 42.4398 35.8219 42.4626C35.9467 42.3021 36.119 42.2446 36.3401 42.2901L36.2451 42.0976C36.3252 42.127 36.4866 42.1858 36.5666 42.2152C36.568 42.1631 36.5693 42.0588 36.5707 42.0067C36.6331 42.0187 36.7593 42.0428 36.8217 42.0548Z" fill="#00ACAB"/>
</g>
<defs>
<clipPath id="clip0_16005_10">
<rect width="140" height="50" fill="white"/>
</clipPath>
</defs>
</svg>
