<svg width="15" height="17" viewBox="0 0 15 17" fill="none" xmlns="http://www.w3.org/2000/svg">
<path d="M10.9997 9.50003V5.54737C11.0019 4.97783 10.8911 4.4135 10.6737 3.88709C10.4562 3.36068 10.1365 2.88265 9.73301 2.4807L9.01634 1.7667C8.61439 1.36319 8.13636 1.04346 7.60995 0.826029C7.08354 0.608599 6.51922 0.497794 5.94967 0.500033H3.99967C3.02754 0.501092 2.09552 0.887741 1.40812 1.57514C0.720715 2.26255 0.334067 3.19456 0.333008 4.1667V9.50003C0.334067 10.4722 0.720715 11.4042 1.40812 12.0916C2.09552 12.779 3.02754 13.1656 3.99967 13.1667H7.33301C8.30514 13.1656 9.23716 12.779 9.92456 12.0916C10.612 11.4042 10.9986 10.4722 10.9997 9.50003ZM2.33301 9.50003V4.1667C2.33301 3.72467 2.5086 3.30075 2.82116 2.98819C3.13372 2.67563 3.55765 2.50003 3.99967 2.50003H5.95234C6.08004 2.50204 6.20735 2.51453 6.33301 2.53737V3.83337C6.33301 4.18699 6.47348 4.52613 6.72353 4.77618C6.97358 5.02623 7.31272 5.1667 7.66634 5.1667H8.96234C8.98518 5.29235 8.99767 5.41967 8.99967 5.54737V9.50003C8.99967 9.94206 8.82408 10.366 8.51152 10.6785C8.19896 10.9911 7.77504 11.1667 7.33301 11.1667H3.99967C3.55765 11.1667 3.13372 10.9911 2.82116 10.6785C2.5086 10.366 2.33301 9.94206 2.33301 9.50003ZM14.333 6.1667V12.8334C14.3319 13.8055 13.9453 14.7375 13.2579 15.4249C12.5705 16.1123 11.6385 16.499 10.6663 16.5H5.33301C5.06779 16.5 4.81344 16.3947 4.6259 16.2071C4.43836 16.0196 4.33301 15.7653 4.33301 15.5C4.33301 15.2348 4.43836 14.9805 4.6259 14.7929C4.81344 14.6054 5.06779 14.5 5.33301 14.5H10.6663C11.1084 14.5 11.5323 14.3244 11.8449 14.0119C12.1574 13.6993 12.333 13.2754 12.333 12.8334V6.1667C12.333 5.90148 12.4384 5.64713 12.6259 5.45959C12.8134 5.27206 13.0678 5.1667 13.333 5.1667C13.5982 5.1667 13.8526 5.27206 14.0401 5.45959C14.2277 5.64713 14.333 5.90148 14.333 6.1667Z" fill="#83909B"/>
</svg>
