<svg width="159" height="33" viewBox="0 0 159 33" fill="none" xmlns="http://www.w3.org/2000/svg">
<path d="M0 13.0772V25.7095L8.65758 25.4585L17.2311 25.2075L17.4833 22.5305L17.7354 19.8534L13.2806 19.6025C9.07785 19.3515 8.82569 19.1842 8.57353 17.0091C8.32137 14.834 8.40542 14.7503 12.5241 14.7503C16.4746 14.7503 16.8108 14.583 16.8108 12.7425C16.8108 10.8184 16.3906 10.6511 12.8603 10.4001C9.41407 10.1491 8.82569 9.89817 8.57353 8.30867C8.32137 6.63552 8.74164 6.4682 12.7762 6.21723C17.1471 5.96626 17.2311 5.8826 17.4833 3.20555L17.7354 0.528503H8.90974H0V13.0772Z" fill="#E3E3E3"/>
<path d="M85.7344 12.9937V25.626H89.5168H93.2993V19.6863C93.2993 13.161 93.9717 12.91 96.6614 18.1804C99.0149 22.6143 100.864 22.447 103.47 17.4275L105.487 13.4956L105.739 19.519L105.991 25.626H109.69H113.472V12.9937V0.445007L109.606 0.69598L105.655 0.946955L102.713 6.71934L99.7714 12.4917L96.7455 6.71934L93.7195 0.946955L89.769 0.69598L85.7344 0.445007V12.9937Z" fill="#E3E3E3"/>
<path d="M153.651 1.11427C151.466 1.4489 151.298 1.78353 151.298 5.29715C151.298 8.5598 151.13 8.97809 149.869 8.39249C149.028 8.05786 146.843 7.63957 144.994 7.3886C142.136 7.13762 141.211 7.47225 139.362 9.31272C135.16 13.4956 135.328 19.8536 139.698 23.5345C142.556 25.9606 146.591 26.2952 149.449 24.2875C151.13 23.1162 151.298 23.1162 151.298 24.2875C151.298 25.2913 152.223 25.626 155.08 25.626H158.863V13.0773C158.863 -0.726204 159.283 0.277689 153.651 1.11427ZM150.457 14.6668C152.054 17.6785 149.533 20.3555 146.171 19.3516C144.237 18.6824 143.313 15.838 144.574 14.3322C146.087 12.5754 149.365 12.8263 150.457 14.6668Z" fill="#E3E3E3"/>
<path d="M21.7706 9.64792C19.7533 11.7394 19.333 12.8269 19.333 16.2569C19.333 19.8542 19.7533 20.7744 22.0227 23.0332C25.0487 25.9612 30.0919 26.6304 31.9411 24.3717C32.8657 23.2005 33.1179 23.2841 33.9584 24.4553C34.6309 25.3756 35.9757 25.6265 38.2452 25.4592L41.6074 25.2083L41.8595 16.1732L42.1117 7.22185H38.3293C35.8076 7.22185 34.2947 7.64014 33.7903 8.56037C33.1179 9.73158 32.9498 9.73158 32.0252 8.56037C31.3528 7.7238 29.5876 7.22185 27.5703 7.22185C25.0487 7.22185 23.7038 7.80745 21.7706 9.64792ZM32.6136 13.8308C34.1265 14.751 33.5382 18.0974 31.773 19.2686C28.8311 21.109 25.553 17.0098 27.7384 14.3328C28.9152 12.9106 30.9325 12.7433 32.6136 13.8308Z" fill="#E3E3E3"/>
<path d="M46.7325 8.97809C42.7819 12.0734 44.2108 17.6785 49.17 18.5987C53.2887 19.3516 52.9525 20.9411 48.8338 20.3555C45.8079 20.0209 45.4717 20.1046 44.9673 22.1124C44.2949 24.8731 45.5557 25.626 50.9352 25.626C54.3814 25.626 55.5582 25.2077 57.1552 23.6182C58.1638 22.447 59.0884 20.5229 59.0884 19.268C59.0884 16.7583 56.2306 13.9139 53.709 13.9139C52.8684 13.9139 51.9438 13.4956 51.6917 13.0773C51.3554 12.5754 52.5322 12.2407 54.4655 12.2407C57.1552 12.2407 57.9117 11.9061 58.2479 10.4003C59.0044 7.63957 58.3319 7.22128 53.4568 7.22128C50.1787 7.22128 48.3295 7.72323 46.7325 8.97809Z" fill="#E3E3E3"/>
<path d="M61.4426 13.8302C61.7788 19.4353 62.115 20.7738 63.7961 22.6143C66.1496 25.124 70.1002 25.4586 72.958 23.4509C74.471 22.447 74.8072 22.447 74.8072 23.2835C74.8072 25.2077 72.958 26.4625 70.1002 26.4625C67.7467 26.4625 67.4104 26.7972 67.0742 28.9723C66.8221 30.3944 66.9061 31.6493 67.0742 31.9003C68.0829 32.8205 75.0594 32.2349 77.4129 30.98C81.1953 29.0559 82.3721 25.375 82.3721 15.587V7.22126H78.5896H74.8072V10.9022C74.8072 15.838 73.5464 18.9333 71.5291 18.9333C69.5118 18.9333 68.9234 17.3438 68.9234 11.7388V7.22126H65.0569H61.1904L61.4426 13.8302Z" fill="#E3E3E3"/>
<path d="M120.028 9.14541C115.909 12.5754 114.985 16.2563 117.254 20.6065C118.935 23.7855 122.55 25.626 127.257 25.626C132.552 25.626 133.645 25.0404 133.645 22.1124C133.645 19.6863 133.561 19.6026 130.535 20.1882C128.349 20.5229 126.836 20.2719 125.744 19.519C124.231 18.4314 124.483 18.2641 129.274 17.6785C134.317 17.0929 134.485 17.0092 134.485 14.7505C134.485 13.412 133.561 11.2369 132.3 9.81467C130.451 7.55591 129.526 7.22128 126.248 7.22128C123.39 7.22128 121.709 7.72323 120.028 9.14541ZM128.349 12.7427C128.518 13.2446 127.593 13.9139 126.332 14.1649C123.474 14.6668 122.97 14.3322 124.399 12.659C125.576 11.2369 127.845 11.2369 128.349 12.7427Z" fill="#E3E3E3"/>
</svg>
