<svg width="14" height="10" viewBox="0 0 14 10" fill="none" xmlns="http://www.w3.org/2000/svg">
<path d="M13.23 4.33C13.3959 4.51375 13.4877 4.75248 13.4877 5C13.4877 5.24752 13.3959 5.48625 13.23 5.67C12.18 6.8 9.79003 9 7.00003 9C4.21003 9 1.82003 6.8 0.770029 5.67C0.604189 5.48625 0.51239 5.24752 0.51239 5C0.51239 4.75248 0.604189 4.51375 0.770029 4.33C1.82003 3.2 4.21003 1 7.00003 1C9.79003 1 12.18 3.2 13.23 4.33Z" stroke="#727272" stroke-linecap="round" stroke-linejoin="round"/>
<path d="M7 7C8.10457 7 9 6.10457 9 5C9 3.89543 8.10457 3 7 3C5.89543 3 5 3.89543 5 5C5 6.10457 5.89543 7 7 7Z" stroke="#727272" stroke-linecap="round" stroke-linejoin="round"/>
</svg>
