<svg width="76" height="33" viewBox="0 0 76 33" fill="none" xmlns="http://www.w3.org/2000/svg">
<g clip-path="url(#clip0_335_5528)">
<path d="M28.1239 3.24266C34.3425 7.48572 39.6097 15.9511 51.0259 26.6726C36.8948 26.6726 31.3724 7.07176 19.4922 4.71221H2.11272C1.57897 3.98779 1.71823 0.199356 2.11272 0.137985C4.10824 -0.172482 12.2063 0.137986 19.4922 0.137985C23.4599 0.365662 24.9013 1.74335 28.1239 3.24266Z" fill="white"/>
<path d="M47.5657 10.2438C61.8644 26.4863 66.5842 27.2274 59.9975 26.4863C53.1552 25.0865 53.3871 23.4396 37.778 7.71172C31.7943 0.815352 29.5209 -0.0492691 33.0001 0.424216C38.4272 1.55645 41.7303 3.61507 47.5657 10.2438Z" fill="white"/>
<path d="M60.6468 10.2438C74.9454 26.4863 79.6653 27.2274 73.0785 26.4863C66.2362 25.0865 66.4682 23.4396 50.8591 7.71172C44.8753 0.815352 42.602 -0.0492691 46.0812 0.424216C51.5083 1.55645 54.8113 3.61507 60.6468 10.2438Z" fill="white"/>
<path d="M23.1284 10.5892C23.6801 10.7767 24.3268 11.1809 24.7224 11.5865C25.1129 11.985 29.2904 15.9536 29.6567 16.2728C29.7826 16.3819 29.8799 16.5112 29.8716 16.56C29.8561 16.6515 29.6477 16.6601 27.9213 16.5939C27.3723 16.5763 26.3057 16.5402 25.5503 16.519C22.7492 16.4278 21.9755 16.4036 21.215 16.3753C20.7849 16.359 20.1556 16.3341 19.8119 16.3261C18.6132 16.2927 15.9982 16.2142 15.0069 16.1782C13.0558 16.1054 12.3298 16.0955 12.2728 16.136C12.2371 16.1613 12.3073 16.5621 12.4231 17.0271C12.5389 17.492 12.688 18.0944 12.7554 18.3629C12.8229 18.6315 12.9559 19.1433 13.0577 19.5056L13.2361 20.1567L13.4984 20.1635C13.6489 20.1638 14.3423 20.1808 15.049 20.1937C15.7556 20.2066 16.8934 20.2297 17.5807 20.2456C18.268 20.2615 19.4932 20.2868 20.2995 20.304C21.1068 20.3151 22.5313 20.3491 23.4565 20.3676C24.3878 20.3872 25.8194 20.4161 26.645 20.4303C27.4707 20.4445 28.5962 20.4655 29.1463 20.477C29.7024 20.4895 30.404 20.4953 30.7121 20.491C31.1341 20.4808 31.4726 20.5193 32.0356 20.6396C32.9869 20.8381 33.5312 21.1059 34.1846 21.6931C34.838 22.2804 37.487 24.717 38.3869 25.553C38.8048 25.9373 39.2289 26.3227 39.3274 26.4083C39.575 26.6133 39.5309 26.7627 39.236 26.763C39.1048 26.7596 38.8415 26.759 38.6524 26.7646C38.4642 26.7642 37.2797 26.7582 36.0199 26.7521C34.7611 26.7399 33.2003 26.7331 32.5425 26.7284C31.8907 26.7248 29.8978 26.7139 28.1235 26.7085C26.3502 26.6971 24.037 26.6885 22.9846 26.6798C21.9312 26.6773 20.9154 26.6748 20.7273 26.6743C20.5382 26.68 19.5102 26.6754 18.4385 26.6698C17.374 26.6591 15.6505 26.6498 14.6164 26.6442C12.6855 26.6375 8.27978 26.6136 7.00168 26.6044C6.60717 26.6004 6.25234 26.5843 6.21885 26.5598C6.18432 26.5414 5.87107 25.3154 5.52591 23.8331C5.17464 22.3497 4.74999 20.5215 4.56981 19.7697C4.39065 19.0117 4.22858 18.3382 4.20944 18.2659C4.1903 18.1937 4.10574 17.8407 4.02222 17.4815C3.56349 15.4468 3.13377 13.6115 2.78533 12.2227C2.64137 11.6275 2.51374 11.01 2.51007 10.8463C2.47876 9.91888 3.28211 9.4714 4.77553 9.57976C5.44446 9.63019 7.20433 9.72088 8.47014 9.76564C9.10558 9.79159 10.1843 9.8298 10.8696 9.8579C11.5538 9.8921 13.4174 9.96271 15.0126 10.0256C16.6079 10.0884 18.2895 10.1596 18.749 10.1871C19.5512 10.2287 19.8328 10.2325 20.8435 10.2278C21.3967 10.221 22.6245 10.4162 23.1284 10.5892Z" fill="white"/>
</g>
<defs>
<clipPath id="clip0_335_5528">
<rect width="76" height="32.0378" fill="white"/>
</clipPath>
</defs>
</svg>
